<svg xmlns="http://www.w3.org/2000/svg" width="50" height="50" viewBox="0 0 50 50">
  <metadata><?xpacket begin="﻿" id="W5M0MpCehiHzreSzNTczkc9d"?>
<x:xmpmeta xmlns:x="adobe:ns:meta/" x:xmptk="Adobe XMP Core 5.6-c138 79.159824, 2016/09/14-01:09:01        ">
   <rdf:RDF xmlns:rdf="http://www.w3.org/1999/02/22-rdf-syntax-ns#">
      <rdf:Description rdf:about=""/>
   </rdf:RDF>
</x:xmpmeta>
                                                                                                    
                                                                                                    
                                                                                                    
                                                                                                    
                                                                                                    
                                                                                                    
                                                                                                    
                                                                                                    
                                                                                                    
                                                                                                    
                                                                                                    
                                                                                                    
                                                                                                    
                                                                                                    
                                                                                                    
                                                                                                    
                                                                                                    
                                                                                                    
                                                                                                    
                                                                                                    
                           
<?xpacket end="w"?></metadata>
<defs>
    <style>
      .cls-1 {
        fill: #a53737;
        fill-rule: evenodd;
      }
    </style>
  </defs>
  <path id="social" class="cls-1" d="M39.125,34.25a4.824,4.824,0,0,0-2.461.69l-7.979-7.981a4.815,4.815,0,0,0,.69-2.459,4.87,4.87,0,0,0-2.229-4.085l1.9-5.7c0.109,0.008.215,0.034,0.328,0.034a4.9,4.9,0,1,0-2.646-.79l-1.9,5.7c-0.109-.008-0.216-0.034-0.329-0.034A4.88,4.88,0,0,0,19.625,24.5a4.83,4.83,0,0,0,.289,1.592L13.8,30.168a4.856,4.856,0,1,0,.948,2.864A4.783,4.783,0,0,0,14.7,32.5l6.57-4.381a4.766,4.766,0,0,0,5.694.565l7.979,7.981a4.82,4.82,0,0,0-.69,2.459A4.875,4.875,0,1,0,39.125,34.25ZM9.875,35.469a2.438,2.438,0,1,1,2.438-2.437A2.44,2.44,0,0,1,9.875,35.469ZM24.5,26.937A2.437,2.437,0,1,1,26.937,24.5,2.439,2.439,0,0,1,24.5,26.937ZM26.937,9.875a2.438,2.438,0,1,1,2.438,2.438A2.439,2.439,0,0,1,26.937,9.875ZM39.125,41.563a2.438,2.438,0,1,1,2.437-2.437A2.439,2.439,0,0,1,39.125,41.563Z" transform="translate(0.5 0.5)"/>
</svg>
