<svg id="html-block" xmlns="http://www.w3.org/2000/svg" width="50" height="50" viewBox="0 0 50 50">
  <metadata><?xpacket begin="﻿" id="W5M0MpCehiHzreSzNTczkc9d"?>
<x:xmpmeta xmlns:x="adobe:ns:meta/" x:xmptk="Adobe XMP Core 5.6-c138 79.159824, 2016/09/14-01:09:01        ">
   <rdf:RDF xmlns:rdf="http://www.w3.org/1999/02/22-rdf-syntax-ns#">
      <rdf:Description rdf:about=""/>
   </rdf:RDF>
</x:xmpmeta>
                                                                                                    
                                                                                                    
                                                                                                    
                                                                                                    
                                                                                                    
                                                                                                    
                                                                                                    
                                                                                                    
                                                                                                    
                                                                                                    
                                                                                                    
                                                                                                    
                                                                                                    
                                                                                                    
                                                                                                    
                                                                                                    
                                                                                                    
                                                                                                    
                                                                                                    
                                                                                                    
                           
<?xpacket end="w"?></metadata>
<defs>
    <style>
      .cls-1 {
        fill: none;
        stroke: #a53737;
        stroke-linecap: round;
        stroke-linejoin: round;
        stroke-width: 3px;
      }

      .cls-1, .cls-2 {
        fill-rule: evenodd;
      }

      .cls-2 {
        fill: #a53737;
      }
    </style>
  </defs>
  <path id="d314" class="cls-1" d="M34.373,21.98l3.233,2.975L34.373,27.93"/>
  <path id="d865" class="cls-1" d="M15.245,27.955L11.97,24.96l3.275-2.995"/>
  <path id="d538" class="cls-1" d="M30.561,15.08L19.374,34.5"/>
  <path id="d357" class="cls-2" d="M10.563,4H7.938A3.943,3.943,0,0,0,4,7.938v2.625a1.313,1.313,0,0,0,2.625,0V7.938A1.314,1.314,0,0,1,7.938,6.625h2.625A1.313,1.313,0,0,0,10.563,4Zm31.5,0H39.438a1.313,1.313,0,0,0,0,2.625h2.625a1.314,1.314,0,0,1,1.313,1.313v2.625a1.313,1.313,0,0,0,2.625,0V7.938A3.942,3.942,0,0,0,42.063,4Zm2.625,34.125a1.312,1.312,0,0,0-1.312,1.313v2.625a1.314,1.314,0,0,1-1.312,1.313H39.438a1.313,1.313,0,0,0,0,2.625h2.625A3.942,3.942,0,0,0,46,42.063V39.438A1.312,1.312,0,0,0,44.688,38.125Zm-34.125,5.25H7.938a1.314,1.314,0,0,1-1.312-1.312V39.438a1.313,1.313,0,0,0-2.625,0v2.625A3.942,3.942,0,0,0,7.938,46h2.625A1.313,1.313,0,0,0,10.563,43.375ZM5.313,30.25a1.312,1.312,0,0,0,1.313-1.312V21.063a1.313,1.313,0,0,0-2.625,0v7.875A1.312,1.312,0,0,0,5.313,30.25Zm39.375-10.5a1.312,1.312,0,0,0-1.312,1.313v7.875a1.313,1.313,0,0,0,2.625,0V21.063A1.312,1.312,0,0,0,44.688,19.75ZM28.938,4H21.063a1.313,1.313,0,0,0,0,2.625h7.875A1.313,1.313,0,0,0,28.938,4Zm0,39.375H21.063a1.313,1.313,0,0,0,0,2.625h7.875A1.313,1.313,0,0,0,28.938,43.375Z"/>
</svg>
