<svg xmlns="http://www.w3.org/2000/svg" width="50" height="50" viewBox="0 0 50 50">
  <metadata><?xpacket begin="﻿" id="W5M0MpCehiHzreSzNTczkc9d"?>
<x:xmpmeta xmlns:x="adobe:ns:meta/" x:xmptk="Adobe XMP Core 5.6-c138 79.159824, 2016/09/14-01:09:01        ">
   <rdf:RDF xmlns:rdf="http://www.w3.org/1999/02/22-rdf-syntax-ns#">
      <rdf:Description rdf:about=""/>
   </rdf:RDF>
</x:xmpmeta>
                                                                                                    
                                                                                                    
                                                                                                    
                                                                                                    
                                                                                                    
                                                                                                    
                                                                                                    
                                                                                                    
                                                                                                    
                                                                                                    
                                                                                                    
                                                                                                    
                                                                                                    
                                                                                                    
                                                                                                    
                                                                                                    
                                                                                                    
                                                                                                    
                                                                                                    
                                                                                                    
                           
<?xpacket end="w"?></metadata>
<defs>
    <style>
      .cls-1 {
        fill: #a53737;
        fill-rule: evenodd;
      }
    </style>
  </defs>
  <path id="account" class="cls-1" d="M35.013,20.02a9.614,9.614,0,0,0-2.959-7.09,9.974,9.974,0,0,0-14.122,0,9.61,9.61,0,0,0-2.959,7.09,9.4,9.4,0,0,0,4.746,8.5A15.465,15.465,0,0,0,9.991,40h2.52a12.738,12.738,0,0,1,12.481-10.02A12.738,12.738,0,0,1,37.474,40h2.52a15.083,15.083,0,0,0-9.727-11.485,9.4,9.4,0,0,0,4.747-8.5h0Zm-10.02-7.5a7.5,7.5,0,0,1,7.5,7.5,7.18,7.18,0,0,1-2.227,5.3,7.427,7.427,0,0,1-10.548,0,7.176,7.176,0,0,1-2.227-5.3A7.5,7.5,0,0,1,24.992,12.52Z"/>
</svg>
