<svg id="button" xmlns="http://www.w3.org/2000/svg" width="50" height="50" viewBox="0 0 50 50">
  <metadata><?xpacket begin="﻿" id="W5M0MpCehiHzreSzNTczkc9d"?>
<x:xmpmeta xmlns:x="adobe:ns:meta/" x:xmptk="Adobe XMP Core 5.6-c138 79.159824, 2016/09/14-01:09:01        ">
   <rdf:RDF xmlns:rdf="http://www.w3.org/1999/02/22-rdf-syntax-ns#">
      <rdf:Description rdf:about=""/>
   </rdf:RDF>
</x:xmpmeta>
                                                                                                    
                                                                                                    
                                                                                                    
                                                                                                    
                                                                                                    
                                                                                                    
                                                                                                    
                                                                                                    
                                                                                                    
                                                                                                    
                                                                                                    
                                                                                                    
                                                                                                    
                                                                                                    
                                                                                                    
                                                                                                    
                                                                                                    
                                                                                                    
                                                                                                    
                                                                                                    
                           
<?xpacket end="w"?></metadata>
<defs>
    <style>
      .cls-1 {
        fill: none;
        stroke: #a53737;
        stroke-width: 3px;
      }

      .cls-1, .cls-2 {
        fill-rule: evenodd;
      }

      .cls-2 {
        fill: #a53737;
      }
    </style>
  </defs>
  <path id="d576" class="cls-1" d="M6.459,16.486H43.541a2,2,0,0,1,2,2V31.514a2,2,0,0,1-2,2H6.459a2,2,0,0,1-2-2V18.486A2,2,0,0,1,6.459,16.486Z" transform="translate(0)"/>
  <path id="d697" class="cls-2" d="M21.478,21.523a2.853,2.853,0,0,0-1.558.446A3.137,3.137,0,0,0,18.806,23.2a4.111,4.111,0,0,0,0,3.58,3.128,3.128,0,0,0,1.114,1.241,2.947,2.947,0,0,0,3.117,0,3.131,3.131,0,0,0,1.114-1.241,4.131,4.131,0,0,0,0-3.58,3.108,3.108,0,0,0-1.109-1.236,2.868,2.868,0,0,0-1.567-.446h0Zm0,1.524a1.406,1.406,0,0,1,1.152.527,2.557,2.557,0,0,1,0,2.837,1.519,1.519,0,0,1-2.3,0,2.576,2.576,0,0,1,0-2.842,1.412,1.412,0,0,1,1.152-.522h0Zm9.246-1.418h-1.77l-2.089,2.981V21.628H25.389V28.4h1.476V25.366L28.937,28.4h1.787l-2.46-3.46Z" transform="translate(0)"/>
</svg>
