<svg id="caegory" xmlns="http://www.w3.org/2000/svg" width="50" height="50" viewBox="0 0 50 50">
  <metadata><?xpacket begin="﻿" id="W5M0MpCehiHzreSzNTczkc9d"?>
<x:xmpmeta xmlns:x="adobe:ns:meta/" x:xmptk="Adobe XMP Core 5.6-c138 79.159824, 2016/09/14-01:09:01        ">
   <rdf:RDF xmlns:rdf="http://www.w3.org/1999/02/22-rdf-syntax-ns#">
      <rdf:Description rdf:about=""/>
   </rdf:RDF>
</x:xmpmeta>
                                                                                                    
                                                                                                    
                                                                                                    
                                                                                                    
                                                                                                    
                                                                                                    
                                                                                                    
                                                                                                    
                                                                                                    
                                                                                                    
                                                                                                    
                                                                                                    
                                                                                                    
                                                                                                    
                                                                                                    
                                                                                                    
                                                                                                    
                                                                                                    
                                                                                                    
                                                                                                    
                           
<?xpacket end="w"?></metadata>
<defs>
    <style>
      .cls-1 {
        fill: none;
        stroke: #a53737;
        stroke-width: 3px;
      }

      .cls-1, .cls-2 {
        fill-rule: evenodd;
      }

      .cls-2 {
        fill: #a53737;
      }
    </style>
  </defs>
  <path id="d456" class="cls-1" d="M5.478,17.8H44.522a2,2,0,0,1,2,2V32.2a2,2,0,0,1-2,2H5.478a2,2,0,0,1-2-2V19.8A2,2,0,0,1,5.478,17.8Z" transform="translate(0 -1)"/>
  <path id="d845" class="cls-2" d="M8.15,21.139h6.458a1.157,1.157,0,1,1,0,2.315H8.15A1.157,1.157,0,0,1,8.15,21.139Z" transform="translate(0 -1)"/>
  <path id="d139" class="cls-2" d="M8.15,24.843h6.458a1.157,1.157,0,1,1,0,2.315H8.15A1.157,1.157,0,1,1,8.15,24.843Z" transform="translate(0 -1)"/>
  <path id="d282" class="cls-2" d="M8.15,28.546h6.458a1.157,1.157,0,1,1,0,2.315H8.15A1.157,1.157,0,0,1,8.15,28.546Z" transform="translate(0 -1)"/>
  <path id="d196" class="cls-2" d="M19.459,24.38H42.546V27.62H19.459V24.38Z" transform="translate(0 -1)"/>
</svg>
