<svg xmlns="http://www.w3.org/2000/svg" width="50" height="50" viewBox="0 0 50 50">
  <metadata><?xpacket begin="﻿" id="W5M0MpCehiHzreSzNTczkc9d"?>
<x:xmpmeta xmlns:x="adobe:ns:meta/" x:xmptk="Adobe XMP Core 5.6-c138 79.159824, 2016/09/14-01:09:01        ">
   <rdf:RDF xmlns:rdf="http://www.w3.org/1999/02/22-rdf-syntax-ns#">
      <rdf:Description rdf:about=""/>
   </rdf:RDF>
</x:xmpmeta>
                                                                                                    
                                                                                                    
                                                                                                    
                                                                                                    
                                                                                                    
                                                                                                    
                                                                                                    
                                                                                                    
                                                                                                    
                                                                                                    
                                                                                                    
                                                                                                    
                                                                                                    
                                                                                                    
                                                                                                    
                                                                                                    
                                                                                                    
                                                                                                    
                                                                                                    
                                                                                                    
                           
<?xpacket end="w"?></metadata>
<defs>
    <style>
      .cls-1 {
        fill: #a53737;
        fill-rule: evenodd;
      }
    </style>
  </defs>
  <path id="search" class="cls-1" d="M35.134,22.24a11.633,11.633,0,0,0-3.689-8.675,12.334,12.334,0,0,0-8.907-3.576,12.261,12.261,0,0,0-8.847,3.576A11.633,11.633,0,0,0,10,22.24a11.727,11.727,0,0,0,3.689,8.7,12.207,12.207,0,0,0,8.847,3.6,11.92,11.92,0,0,0,7.677-2.755L37.893,40l2.1-2.052-7.677-7.5a12.437,12.437,0,0,0,2.819-8.206h0Zm-22.372,0a9,9,0,0,1,2.879-6.711,9.573,9.573,0,0,1,6.9-2.784,9.575,9.575,0,0,1,6.9,2.784,9,9,0,0,1,2.879,6.711,9.063,9.063,0,0,1-2.879,6.77,9.571,9.571,0,0,1-6.9,2.784,9.569,9.569,0,0,1-6.9-2.784,9.063,9.063,0,0,1-2.879-6.77h0Z"/>
</svg>
