<svg xmlns="http://www.w3.org/2000/svg" width="50" height="50" viewBox="0 0 50 50">
  <metadata><?xpacket begin="﻿" id="W5M0MpCehiHzreSzNTczkc9d"?>
<x:xmpmeta xmlns:x="adobe:ns:meta/" x:xmptk="Adobe XMP Core 5.6-c138 79.159824, 2016/09/14-01:09:01        ">
   <rdf:RDF xmlns:rdf="http://www.w3.org/1999/02/22-rdf-syntax-ns#">
      <rdf:Description rdf:about=""/>
   </rdf:RDF>
</x:xmpmeta>
                                                                                                    
                                                                                                    
                                                                                                    
                                                                                                    
                                                                                                    
                                                                                                    
                                                                                                    
                                                                                                    
                                                                                                    
                                                                                                    
                                                                                                    
                                                                                                    
                                                                                                    
                                                                                                    
                                                                                                    
                                                                                                    
                                                                                                    
                                                                                                    
                                                                                                    
                                                                                                    
                           
<?xpacket end="w"?></metadata>
<defs>
    <style>
      .cls-1 {
        fill: #a53737;
        fill-rule: evenodd;
      }
    </style>
  </defs>
  <path id="Cart" class="cls-1" d="M12.99,11.621l5.334,19.241a1.124,1.124,0,0,0,1.231.965H35.831a1.186,1.186,0,0,0,1.162-.759l5.881-13.724a1.337,1.337,0,0,0-.068-1.241,1.373,1.373,0,0,0-1.094-.621H23.727a1.175,1.175,0,0,0-.855.379,1.271,1.271,0,0,0-.376.931,1.335,1.335,0,0,0,.342.931,1.139,1.139,0,0,0,.889.379h16l-4.787,11.1H20.513L15.247,9.965A1.166,1.166,0,0,0,13.948,9H9.3a1.25,1.25,0,0,0-.923.379A1.271,1.271,0,0,0,8,10.31a1.256,1.256,0,0,0,.41.9,1.236,1.236,0,0,0,.889.414H12.99Zm8.275,26.414a2.913,2.913,0,0,0-.855-2.069,2.874,2.874,0,0,0-4.172,0,2.908,2.908,0,0,0-.855,2.069,2.871,2.871,0,0,0,.855,2.1,2.954,2.954,0,0,0,4.172,0,2.875,2.875,0,0,0,.855-2.1h0ZM36.857,41a3.074,3.074,0,0,0,2.052-.966,3.343,3.343,0,0,0,.684-2.207,2.828,2.828,0,0,0-.992-2,2.873,2.873,0,0,0-2.154-.759A2.929,2.929,0,0,0,34.5,36.138a2.975,2.975,0,0,0,.171,4.069A2.747,2.747,0,0,0,36.651,41h0.205Z" transform="translate(-0.5)"/>
</svg>
