<svg id="space" xmlns="http://www.w3.org/2000/svg" width="50" height="50" viewBox="0 0 51.046 51.046">
  <metadata><?xpacket begin="﻿" id="W5M0MpCehiHzreSzNTczkc9d"?>
<x:xmpmeta xmlns:x="adobe:ns:meta/" x:xmptk="Adobe XMP Core 5.6-c138 79.159824, 2016/09/14-01:09:01        ">
   <rdf:RDF xmlns:rdf="http://www.w3.org/1999/02/22-rdf-syntax-ns#">
      <rdf:Description rdf:about=""/>
   </rdf:RDF>
</x:xmpmeta>
                                                                                                    
                                                                                                    
                                                                                                    
                                                                                                    
                                                                                                    
                                                                                                    
                                                                                                    
                                                                                                    
                                                                                                    
                                                                                                    
                                                                                                    
                                                                                                    
                                                                                                    
                                                                                                    
                                                                                                    
                                                                                                    
                                                                                                    
                                                                                                    
                                                                                                    
                                                                                                    
                           
<?xpacket end="w"?></metadata>
<defs>
    <style>
      .cls-1 {
        fill: none;
        stroke: #a53737;
        stroke-linecap: round;
        stroke-linejoin: round;
        stroke-width: 3px;
      }

      .cls-1, .cls-2 {
        fill-rule: evenodd;
      }

      .cls-2 {
        fill: #a53737;
      }
    </style>
  </defs>
  <path id="d238" class="cls-1" d="M8,35.8L2.178,30.567,8,25.33" transform="translate(0.523 0.867)"/>
  <path id="d234" class="cls-2" d="M3.911,29.392H46.627v2.341H3.911V29.392Z" transform="translate(0.523 0.867)"/>
  <path id="d859" class="cls-1" d="M41.982,25.31l5.835,5.257-5.835,5.257" transform="translate(0.523 0.867)"/>
  <path id="d934" class="cls-2" d="M11.789,13.365v7.011h1.424V12.113H10.531v1.252h1.258Zm2.848,2.821a5.683,5.683,0,0,1,.712-3.078A2.6,2.6,0,0,1,17.721,12a2.6,2.6,0,0,1,2.373,1.118,5.688,5.688,0,0,1,.712,3.072,5.745,5.745,0,0,1-.712,3.09A2.591,2.591,0,0,1,17.721,20.4a2.6,2.6,0,0,1-2.373-1.118,5.738,5.738,0,0,1-.712-3.1h0Zm4.818,0a5.208,5.208,0,0,0-.356-2.159,1.373,1.373,0,0,0-1.376-.755,1.386,1.386,0,0,0-1.388.749,5.2,5.2,0,0,0-.356,2.165,5.323,5.323,0,0,0,.356,2.189,1.381,1.381,0,0,0,1.388.761,1.371,1.371,0,0,0,1.376-.761,5.323,5.323,0,0,0,.356-2.189h0Zm9.3-2.341a2.613,2.613,0,0,0-1.519.433,2.268,2.268,0,0,0-.878,1.147v-1.5H25.007v9.516h1.353V18.878a2.267,2.267,0,0,0,.878,1.147,2.612,2.612,0,0,0,1.519.433,2.93,2.93,0,0,0,1.525-.4,2.734,2.734,0,0,0,1.05-1.147,3.864,3.864,0,0,0,.38-1.767,3.838,3.838,0,0,0-.38-1.756,2.737,2.737,0,0,0-1.05-1.147,2.932,2.932,0,0,0-1.525-.4h0Zm-0.415,1.17a1.906,1.906,0,0,1,1.448.574,2.165,2.165,0,0,1,.546,1.557,2.161,2.161,0,0,1-.546,1.563,1.915,1.915,0,0,1-1.448.568,1.985,1.985,0,0,1-1.02-.263,1.88,1.88,0,0,1-.712-0.743,2.536,2.536,0,0,1,0-2.241,1.872,1.872,0,0,1,.712-0.749,1.985,1.985,0,0,1,1.02-.263h0Zm10.074,5.361-2.243-3.2,2.16-3.254H36.837l-1.388,2.224-1.566-2.224H32.351l2.183,3.1-2.16,3.348h1.507l1.4-2.282,1.6,2.282h1.531Z" transform="translate(0.523 0.867)"/>
</svg>
