<svg xmlns="http://www.w3.org/2000/svg" width="50" height="50" viewBox="0 0 50 50">
  <metadata><?xpacket begin="﻿" id="W5M0MpCehiHzreSzNTczkc9d"?>
<x:xmpmeta xmlns:x="adobe:ns:meta/" x:xmptk="Adobe XMP Core 5.6-c138 79.159824, 2016/09/14-01:09:01        ">
   <rdf:RDF xmlns:rdf="http://www.w3.org/1999/02/22-rdf-syntax-ns#">
      <rdf:Description rdf:about=""/>
   </rdf:RDF>
</x:xmpmeta>
                                                                                                    
                                                                                                    
                                                                                                    
                                                                                                    
                                                                                                    
                                                                                                    
                                                                                                    
                                                                                                    
                                                                                                    
                                                                                                    
                                                                                                    
                                                                                                    
                                                                                                    
                                                                                                    
                                                                                                    
                                                                                                    
                                                                                                    
                                                                                                    
                                                                                                    
                                                                                                    
                           
<?xpacket end="w"?></metadata>
<defs>
    <style>
      .cls-1 {
        fill: #a53737;
        fill-rule: evenodd;
      }
    </style>
  </defs>
  <path id="Wishlist" class="cls-1" d="M31.68,12a7.959,7.959,0,0,0-5.919,2.531L25,15.314l-0.762-.783A7.961,7.961,0,0,0,18.32,12a7.654,7.654,0,0,0-5.86,2.531A8.217,8.217,0,0,0,10,20.557a8.416,8.416,0,0,0,2.461,6.086l11.6,11.992a2.9,2.9,0,0,0,.7.362H25a1.535,1.535,0,0,0,.938-0.362l11.6-11.992A8.415,8.415,0,0,0,40,20.557a8.216,8.216,0,0,0-2.461-6.026A7.655,7.655,0,0,0,31.68,12h0ZM25,35.8L14.276,24.775a6.011,6.011,0,0,1,0-8.376,5.213,5.213,0,0,1,4.044-1.748,5.516,5.516,0,0,1,4.1,1.748l1.641,1.747a1.252,1.252,0,0,0,1.875,0L27.578,16.4a5.513,5.513,0,0,1,4.1-1.748A5.212,5.212,0,0,1,35.724,16.4a6.01,6.01,0,0,1,0,8.376Z" transform="translate(0 -0.5)"/>
</svg>
