<svg id="text-html" xmlns="http://www.w3.org/2000/svg" width="50" height="50" viewBox="0 0 50 50">
  <metadata><?xpacket begin="﻿" id="W5M0MpCehiHzreSzNTczkc9d"?>
<x:xmpmeta xmlns:x="adobe:ns:meta/" x:xmptk="Adobe XMP Core 5.6-c138 79.159824, 2016/09/14-01:09:01        ">
   <rdf:RDF xmlns:rdf="http://www.w3.org/1999/02/22-rdf-syntax-ns#">
      <rdf:Description rdf:about=""/>
   </rdf:RDF>
</x:xmpmeta>
                                                                                                    
                                                                                                    
                                                                                                    
                                                                                                    
                                                                                                    
                                                                                                    
                                                                                                    
                                                                                                    
                                                                                                    
                                                                                                    
                                                                                                    
                                                                                                    
                                                                                                    
                                                                                                    
                                                                                                    
                                                                                                    
                                                                                                    
                                                                                                    
                                                                                                    
                                                                                                    
                           
<?xpacket end="w"?></metadata>
<defs>
    <style>
      .cls-1 {
        fill: none;
        stroke: #a53737;
        stroke-linecap: round;
        stroke-linejoin: round;
        stroke-width: 3px;
      }

      .cls-1, .cls-2 {
        fill-rule: evenodd;
      }

      .cls-2 {
        fill: #a53737;
      }
    </style>
  </defs>
  <path id="d345" class="cls-1" d="M41.147,20.787l5.447,5.037L41.147,30.86" transform="translate(0 -0.5)"/>
  <path id="d738" class="cls-1" d="M8.916,30.9L3.4,25.832l5.518-5.07" transform="translate(0 -0.5)"/>
  <path id="d634" class="cls-2" d="M20.311,35.374h-0.4v0.634h10.18V35.374q-2.222-.033-2.719-0.633a2.812,2.812,0,0,1-.63-1.9L26.711,15.8l3.88,0.033q2.454,0.034,2.752,5.368h0.663l-0.1-6.2q-2.918.1-8.323,0.1-5.737,0-9.45-.1L16,21.2h0.63a7.943,7.943,0,0,1,.249-1.617,16.366,16.366,0,0,1,.547-1.734,3.908,3.908,0,0,1,.962-1.484,2.013,2.013,0,0,1,1.426-.6L23.3,15.8,23.262,32.84a3.068,3.068,0,0,1-.729,1.9,2.926,2.926,0,0,1-2.222.633h0Z" transform="translate(0 -0.5)"/>
</svg>
