<svg xmlns="http://www.w3.org/2000/svg" x="0px" y="0px" viewBox="0 0 356 547" width="356" height="547" enable-background="new 0 0 356 547">
<path fill="#FAFAFA" d="M267.7,386.4c0-45.6-7.6-87.8-22.8-126.6c-15.2-38.8-36.6-72.4-64.1-100.6c-27.5-28.2-60.6-50.4-99.3-66.4
	C56.4,82.3,29.6,75.3,1,71.7v100.2c11.9,2.5,23.1,5.9,33.8,10.3c24.2,10,44.8,24.5,61.7,43.4c16.9,18.9,29.9,41.9,38.9,69
	c9,27.1,13.5,57.7,13.5,91.8c0,34.1-4.5,64.7-13.5,91.8c-9,27.1-22,50-38.9,68.8h132.8c5.8-10.8,10.9-22.1,15.6-33.9
	C260.1,474.2,267.7,432,267.7,386.4z"/>
</svg>
