<svg xmlns="http://www.w3.org/2000/svg" x="0px" y="0px" viewBox="0 0 32 32" style="enable-background:new 0 0 32 32"><path style="fill:#1D1D1D" d="M4.3 0h23.5C30.1 0 32 1.9 32 4.3v23.5c0 2.4-1.9 4.3-4.3 4.3H4.3C1.9 32 0 30.1 0 27.7V4.3C0 1.9 1.9 0 4.3 0z"/><path style="fill:#282828" d="M28.1 4c-2.6-2.6-9.7 1.8-12.2 4-5.1-4-10-6-12-4C1 6.8 7.1 15 8 15.9l.1.1-.1.1c-.9.9-7 9-4.2 11.9 2 2 6.9 0 12-4 2.5 2.3 9.6 6.6 12.2 4 2.3-2.3-.8-7.9-4.1-12 3.4-4.1 6.5-9.7 4.2-12zm-6.3 9.6c-1.1-1.2-2.2-2.3-3.3-3.3 2.1-1.6 4.2-2.8 6-2.7h.6c.2 1.8-1.6 4-3.3 6zm-11.7-.1c-1.6-2.1-2.7-4.2-2.7-5.9v-.5c1.5.2 3.6 1.6 5.8 3.3-1 1.1-2.2 2.3-3.1 3.1zm.1 4.9l3.2 3.2c-2.3 1.8-4.5 3.2-6 3.3-.2-.7.5-3.5 2.8-6.5zm5.5 1.2c-1.1-1.1-2.3-2.3-3.5-3.6 1.1-1.1 2.3-2.3 3.6-3.5 1.4 1.2 2.7 2.5 3.8 3.5-1.1 1-2.4 2.3-3.9 3.6zm9.2 5c-.4.2-3.4-.4-6.6-2.8 1.2-1.1 2.3-2.2 3.5-3.4 1.7 2.1 3.3 4.5 3.1 6.2z"/><path style="fill:#FFFFFF" d="M21.9 12.4l-2 2 1 1 3.7-3.7L20.8 8l-1 1 2 2h-4l-3.1 3 1 1 2.7-2.7c0 .1 3.5.1 3.5.1zm0 7.2h-3.4L9.9 11H7.4v1.4h1.8l3.6 3.6-3.6 3.6H7.4V21h2.5l4-4 4 4h4l-2 2 1 1 3.8-3.7-3.8-3.7-1 1 2 2z"/></svg>