<svg width="32" height="32" viewBox="0 0 32 32" fill="none" xmlns="http://www.w3.org/2000/svg">
<g clip-path="url(#clip0)">
<path d="M4.3 0H27.8C30.1 0 32 1.9 32 4.3V27.8C32 30.2 30.1 32.1 27.7 32.1H4.3C1.9 32 0 30.1 0 27.7V4.3C0 1.9 1.9 0 4.3 0Z" fill="#1D1D1D"/>
<path fill-rule="evenodd" clip-rule="evenodd" d="M15.6811 7.72654C18.1603 5.49964 25.3298 1.02984 28 3.7001C30.3668 6.06691 27.2779 11.6611 23.9198 15.7001C27.2779 19.7391 30.3668 25.3333 28 27.7001C25.354 30.3462 18.2899 25.981 15.7497 23.7348C10.624 27.7529 5.70465 29.7356 3.70002 27.8001C0.800021 25.0001 6.90002 16.8001 7.80002 15.9001C7.83675 15.8634 7.87182 15.83 7.90529 15.7997C7.87132 15.7695 7.83624 15.7363 7.80002 15.7001C7.00002 14.8001 0.800021 6.7001 3.70002 3.8001C5.6957 1.80442 10.5802 3.78675 15.6811 7.72654ZM24.2998 7.29979C24.4876 7.30461 24.6669 7.30873 24.8379 7.31209C25.2185 9.1306 23.5065 11.3261 21.7866 13.3197C20.6888 12.1425 19.5467 11.024 18.3914 9.98792C20.4823 8.39351 22.5684 7.2554 24.2998 7.29979ZM7.41029 7.05009C8.87341 7.2899 10.9498 8.59781 13.0685 10.2371C11.9583 11.2955 10.7776 12.4225 10 13.2001C10 13.2179 10.0032 13.2357 10.0084 13.2535C8.45581 11.1985 7.35613 9.15859 7.39979 7.49979C7.40378 7.34404 7.4073 7.1942 7.41029 7.05009ZM9.98696 18.0869C10.4903 18.5895 11.9258 20.0212 13.2476 21.3238C10.9577 23.1134 8.69852 24.5409 7.18867 24.6786C6.95567 24.1737 7.55011 21.1941 9.98696 18.0869ZM24.7488 24.4228C24.9724 22.6796 23.3213 20.312 21.6421 18.2579C20.5245 19.4749 19.3626 20.6234 18.189 21.6806C21.2392 24.0078 24.1659 24.6218 24.7488 24.4228ZM19.4339 15.8501C18.3769 16.8761 17.04 18.1303 15.6132 19.3679C14.4958 18.289 13.2656 17.0575 12.105 15.7703C13.1612 14.69 14.3594 13.487 15.6159 12.3347C17.0418 13.5715 18.3775 14.8247 19.4339 15.8501Z" fill="#282828"/>
<path fill-rule="evenodd" clip-rule="evenodd" d="M11.4092 7C11.3007 7 11.1966 7.0431 11.1199 7.11982L7.84718 10.3925C7.77046 10.4693 7.72736 10.5733 7.72736 10.6818V13.9545C7.27549 13.9545 6.90918 14.3209 6.90918 14.7727V23.7727C6.90918 24.4505 7.45865 25 8.13645 25H22.8637C23.5415 25 24.091 24.4505 24.091 23.7727V14.7727C24.091 14.3209 23.7247 13.9545 23.2728 13.9545L23.2728 8.22727C23.2728 7.54947 22.7233 7 22.0455 7H11.4092ZM23.2728 14.7727V23.7727C23.2728 23.9987 23.0897 24.1818 22.8637 24.1818H8.13645C7.91052 24.1818 7.72736 23.9987 7.72736 23.7727V15.1818C7.72736 15.4078 7.91052 15.5909 8.13645 15.5909C8.36239 15.5909 8.54554 15.4078 8.54554 15.1818V11.0909H10.591C11.2688 11.0909 11.8183 10.5414 11.8183 9.86364V7.81818H22.0455C22.2715 7.81818 22.4546 8.00134 22.4546 8.22727V15.1818C22.4546 15.4078 22.6378 15.5909 22.8637 15.5909C23.0897 15.5909 23.2728 15.4078 23.2728 15.1818L23.2728 14.7727ZM10.591 10.2727H9.12409L11.0001 8.39672V9.86364C11.0001 10.0896 10.8169 10.2727 10.591 10.2727Z" fill="white"/>
<path d="M12.2274 11.9092C12.0015 11.9092 11.8183 12.0923 11.8183 12.3183C11.8183 12.5442 12.0015 12.7274 12.2274 12.7274H18.7729C18.9988 12.7274 19.1819 12.5442 19.1819 12.3183C19.1819 12.0923 18.9988 11.9092 18.7729 11.9092H12.2274Z" fill="white"/>
<path d="M12.2274 13.5455C12.0015 13.5455 11.8183 13.7287 11.8183 13.9546C11.8183 14.1806 12.0015 14.3637 12.2274 14.3637H18.7729C18.9988 14.3637 19.1819 14.1806 19.1819 13.9546C19.1819 13.7287 18.9988 13.5455 18.7729 13.5455H12.2274Z" fill="white"/>
<path d="M12.2274 15.1819C12.0015 15.1819 11.8183 15.3651 11.8183 15.591C11.8183 15.8169 12.0015 16.0001 12.2274 16.0001H18.7729C18.9988 16.0001 19.1819 15.8169 19.1819 15.591C19.1819 15.3651 18.9988 15.1819 18.7729 15.1819H12.2274Z" fill="white"/>
<path d="M7.5529 14.4377C7.36781 14.3081 7.11273 14.3531 6.98317 14.5382C6.8536 14.7233 6.89861 14.9784 7.08371 15.108L14.7963 20.5068C15.2189 20.8026 15.7813 20.8026 16.2039 20.5068L23.9165 15.108C24.1016 14.9784 24.1466 14.7233 24.0171 14.5382C23.8875 14.3531 23.6324 14.3081 23.4473 14.4377L15.7347 19.8365C15.5939 19.9351 15.4064 19.9351 15.2655 19.8365L7.5529 14.4377Z" fill="white"/>
</g>
<defs>
<clipPath id="clip0">
<rect width="32" height="32" fill="white"/>
</clipPath>
</defs>
</svg>
