<svg width="32" height="32" viewBox="0 0 32 32" fill="none" xmlns="http://www.w3.org/2000/svg">
<g clip-path="url(#clip0)">
<path d="M4.3 0H27.8C30.1 0 32 1.9 32 4.3V27.8C32 30.2 30.1 32.1 27.7 32.1H4.3C1.9 32 0 30.1 0 27.7V4.3C0 1.9 1.9 0 4.3 0Z" fill="#1D1D1D"/>
<path fill-rule="evenodd" clip-rule="evenodd" d="M15.6811 7.72654C18.1603 5.49964 25.3298 1.02984 28 3.7001C30.3668 6.06691 27.2779 11.6611 23.9198 15.7001C27.2779 19.7391 30.3668 25.3333 28 27.7001C25.354 30.3462 18.2899 25.981 15.7497 23.7348C10.624 27.7529 5.70465 29.7356 3.70002 27.8001C0.800021 25.0001 6.90002 16.8001 7.80002 15.9001C7.83675 15.8634 7.87182 15.83 7.90529 15.7997C7.87132 15.7695 7.83624 15.7363 7.80002 15.7001C7.00002 14.8001 0.800021 6.7001 3.70002 3.8001C5.6957 1.80442 10.5802 3.78675 15.6811 7.72654ZM24.2998 7.29979C24.4876 7.30461 24.6669 7.30873 24.8379 7.31209C25.2185 9.1306 23.5065 11.3261 21.7866 13.3197C20.6888 12.1425 19.5467 11.024 18.3914 9.98792C20.4823 8.39351 22.5684 7.2554 24.2998 7.29979ZM7.41029 7.05009C8.87341 7.2899 10.9498 8.59781 13.0685 10.2371C11.9583 11.2955 10.7776 12.4225 10 13.2001C10 13.2179 10.0032 13.2357 10.0084 13.2535C8.45581 11.1985 7.35613 9.15859 7.39979 7.49979C7.40378 7.34404 7.4073 7.1942 7.41029 7.05009ZM9.98696 18.0869C10.4903 18.5895 11.9258 20.0212 13.2476 21.3238C10.9577 23.1134 8.69852 24.5409 7.18867 24.6786C6.95567 24.1737 7.55011 21.1941 9.98696 18.0869ZM24.7488 24.4228C24.9724 22.6796 23.3213 20.312 21.6421 18.2579C20.5245 19.4749 19.3626 20.6234 18.189 21.6806C21.2392 24.0078 24.1659 24.6218 24.7488 24.4228ZM19.4339 15.8501C18.3769 16.8761 17.04 18.1303 15.6132 19.3679C14.4958 18.289 13.2656 17.0575 12.105 15.7703C13.1612 14.69 14.3594 13.487 15.6159 12.3347C17.0418 13.5715 18.3775 14.8247 19.4339 15.8501Z" fill="#282828"/>
<path d="M24.9362 18.3863C24.8228 18.1187 24.5581 17.9276 24.2557 17.8511C24.1422 17.3541 23.991 17.1248 23.991 17.0865C24.0288 17.0101 24.1044 16.9718 24.1044 16.9336C24.5581 16.3984 24.2557 15.5956 23.4995 15.4044C23.0837 14.9839 22.7056 14.7928 22.3653 14.6398C22.0629 14.4869 22.1763 14.5634 21.9116 14.4105C21.836 14.0282 21.7982 13.1871 21.6848 12.5755C21.5714 12.0402 21.3446 11.6197 21.0421 11.3903C20.8909 11.0845 20.7396 10.8169 20.5128 10.5875C21.5714 8.98189 21.836 7.37626 21.0799 6.53521C20.7396 6.15292 20.2482 6 19.6433 6C18.7737 6 17.7529 6.34406 16.6943 6.99396C16.6943 6.99396 16.0138 6.42052 15.976 6.42052C13.0271 4.08853 4.67184 14.4487 7.62075 16.7042L8.37688 17.2777C7.8854 18.6157 8.56592 20.2213 9.96476 20.7183C10.2672 20.833 10.6075 20.8712 10.9477 20.8712C10.9477 20.8712 13.1783 25 17.9041 25C23.3483 25 24.7471 19.6097 24.7471 19.5714C24.7093 19.6097 25.163 18.9215 24.9362 18.3863ZM7.80979 16.0161C7.24269 14.9839 8.26346 12.9195 9.0196 11.6962C10.8343 8.75252 13.8966 6.42052 15.2955 6.76459L15.6736 6.61167C15.6736 6.61167 16.6943 7.49095 16.7321 7.49095C17.4505 7.07042 18.3578 6.61167 19.1896 6.53521C18.6603 6.6499 18.0554 6.91751 17.2992 7.37626C17.2992 7.37626 15.5223 8.5996 14.4637 9.67002C13.8966 10.2435 11.5526 13.1107 11.5526 13.0724C11.9685 12.2696 12.271 11.8491 12.9515 11.008C13.3295 10.5111 13.7454 10.0523 14.1613 9.59356C14.3503 9.40241 14.5394 9.21127 14.7662 9.02012C14.9174 8.90543 15.0308 8.75252 15.1821 8.63783C15.2577 8.5996 15.2955 8.52314 15.3711 8.48491L14.0101 7.33803L14.0857 7.83501L15.0687 8.71429C15.0687 8.71429 14.1991 9.32596 13.7454 9.70825C11.9685 11.2374 10.2672 13.5694 9.6245 15.825H9.66231C9.35986 16.0161 9.0196 16.2837 8.75495 16.666C8.64153 16.7042 7.92321 16.2072 7.80979 16.0161ZM10.7209 20.2596C9.66231 20.2596 8.83056 19.3421 8.83056 18.2334C8.83056 17.1247 9.70012 16.2072 10.7209 16.2072C10.9855 16.2072 11.2502 16.2837 11.477 16.3602C11.477 16.3602 11.8929 16.5513 12.0063 17.5453C12.1197 17.2394 12.1954 16.9718 12.1954 16.9718C12.3466 17.3924 12.3844 17.8511 12.3844 18.2716C12.4978 18.1187 12.6112 17.8511 12.6112 17.8511C12.8381 19.1509 11.9307 20.2596 10.7209 20.2596ZM13.0649 13.1107C13.0649 13.1107 13.8966 11.5433 15.6736 10.4728C15.5223 10.4346 15.2199 10.5111 15.1443 10.5111C15.4845 10.2435 16.0894 10.0523 16.5053 9.93763C16.3919 9.86117 16.0894 9.82294 15.9382 9.82294C15.9004 9.82294 15.9004 9.82294 15.8626 9.82294C16.2407 9.59356 16.9968 9.47887 17.6395 9.59356C17.5639 9.47887 17.3749 9.40241 17.2236 9.36419H17.148H17.1858C17.6017 9.28773 18.0554 9.36419 18.4334 9.5171C18.3956 9.40242 18.2822 9.28773 18.2066 9.21127L18.1688 9.17304C18.5469 9.2495 18.9249 9.44064 19.2274 9.63179C19.1896 9.55533 19.114 9.44064 19.0383 9.36419C19.4164 9.47887 19.8323 9.74648 20.0213 10.1288V10.167C19.303 9.63179 17.2614 9.78471 15.2199 11.1227C14.3125 11.7344 13.5942 12.3843 13.0649 13.1107ZM24.18 19.3421C24.1422 19.3803 23.9154 20.7948 22.4031 21.9799C20.5506 23.4708 18.0932 23.3179 17.148 22.4769C16.6565 22.0181 16.4297 21.33 16.4297 21.33C16.4297 21.33 16.3919 21.7123 16.3541 21.8652C15.976 21.2153 16.0138 20.4507 16.0138 20.4507C16.0138 20.4507 15.8248 20.833 15.7114 21.0241C15.4467 20.2978 15.5601 19.5714 15.5601 19.5714L15.3333 19.9155C15.3333 19.9155 15.2199 19.1127 15.4845 18.4628C15.7492 17.7364 16.2785 17.2394 16.3919 17.163C16.0138 17.0483 15.5601 16.666 15.5601 16.666C15.5601 16.666 15.7492 16.666 15.8626 16.666C15.8626 16.666 15.0687 16.0926 14.9174 15.2133C15.0308 15.3662 15.2577 15.5191 15.2577 15.5191C15.1821 15.2897 15.1443 14.7928 15.2199 14.2575C15.3711 13.3018 16.165 12.6519 17.0346 12.6519C17.9798 12.6519 18.6225 12.8431 19.4164 12.1167C19.5676 11.9638 19.7189 11.8109 19.9457 11.7726C19.9835 11.7726 20.0213 11.7344 20.1725 11.7344C20.286 11.7344 20.4372 11.7726 20.5506 11.8491C20.9665 12.1167 21.0799 12.8048 21.1177 13.3018C21.3067 15.1368 21.2311 14.831 21.9495 15.2133C22.2897 15.4044 22.7056 15.5573 23.1593 16.0543C23.5373 16.0543 23.7264 16.3602 23.5751 16.5895C22.2897 18.1187 20.5128 18.8451 18.5469 18.9215C18.4712 18.9215 18.2822 18.9215 18.2822 18.9215C17.4883 18.9598 17.2236 19.992 17.7151 20.6036C18.0176 20.9859 18.6603 21.1388 19.1518 21.1388C21.3067 21.1771 23.4995 19.6479 23.8776 18.7686L23.9154 18.6922C23.8398 18.8068 21.7226 20.7948 19.1518 20.7183C19.1518 20.7183 18.8871 20.7183 18.6225 20.6419C18.2822 20.5654 18.0176 20.4125 17.9041 20.0684C18.131 20.1066 18.3956 20.1449 18.6981 20.1449C20.5506 20.1449 21.8738 19.3038 21.7604 19.2656C21.7604 19.2656 21.7604 19.2656 21.7226 19.2656C21.4958 19.3038 19.2652 20.1831 17.8663 19.7243C17.8663 19.6861 17.8663 19.6479 17.9041 19.6097C18.0176 19.1891 18.2444 19.2274 18.6225 19.2274C19.9079 19.1891 20.9287 18.8451 21.7226 18.501C22.5544 18.1187 23.1971 17.5835 23.4239 17.3159C23.7264 17.8129 23.7264 18.4628 23.7264 18.4628C23.7264 18.4628 23.8398 18.4245 23.991 18.4245C24.4447 18.4628 24.5203 18.8833 24.18 19.3421Z" fill="white"/>
<path d="M15.2199 7.45272L15.4845 7.52918L15.2577 6.76459L15.1443 7.14688L15.2199 7.45272Z" fill="white"/>
<path d="M16.3541 7.72032L15.9382 7.37626L16.0894 7.91147C16.165 7.83501 16.2407 7.79678 16.3541 7.72032Z" fill="white"/>
<path d="M20.1725 14.5634C20.3994 14.5634 20.5884 14.6016 20.7775 14.6781C20.7775 14.1429 20.475 13.5694 20.2482 13.6459C20.0969 13.6841 20.0969 13.9135 20.0969 14.0664C20.0969 14.2575 20.0969 14.4105 20.1725 14.5634Z" fill="white"/>
<path d="M15.9004 8.02616L15.0308 7.75855L15.5979 8.25553C15.7114 8.17907 15.787 8.10262 15.9004 8.02616Z" fill="white"/>
<path d="M18.131 15.328C18.32 15.4044 18.4334 15.4427 18.4334 15.4044C18.4334 15.4044 18.4334 15.328 18.3956 15.2897C18.2822 15.1368 18.0932 14.9839 17.9041 14.9457C17.4883 14.7928 16.9968 14.8692 16.6565 15.1751C16.4675 15.328 16.3919 15.4809 16.4675 15.4809C16.5053 15.4809 16.6187 15.4427 16.77 15.4044C17.3749 15.1368 17.6773 15.1368 18.131 15.328Z" fill="white"/>
<path d="M18.1688 15.825C18.2822 15.825 18.3578 15.825 18.3578 15.825C18.3956 15.7485 18.131 15.5573 17.7151 15.5956C17.6773 15.5956 17.6395 15.6338 17.5639 15.6338H17.5261C17.4505 15.672 17.337 15.7103 17.2614 15.7867C17.1858 15.8632 17.148 15.9396 17.1858 15.9779C17.2236 16.0161 17.2614 15.9779 17.3749 15.9396C17.7151 15.825 17.942 15.825 18.1688 15.825Z" fill="white"/>
<path d="M11.4014 17.5453C11.5148 17.6982 11.477 17.7746 11.5148 17.8129C11.5148 17.8129 11.5526 17.8511 11.5904 17.8129C11.6661 17.7746 11.6661 17.6982 11.6661 17.6217C11.6661 17.4688 11.5904 17.2777 11.477 17.163C11.3258 17.0101 11.1368 16.8571 10.8721 16.8189C10.6453 16.7807 10.4184 16.8189 10.3806 16.8571C10.3428 16.8571 10.305 16.8571 10.2672 16.8954C9.66231 17.1247 9.39766 17.7364 9.51108 18.3099C9.54889 18.4628 9.6245 18.6157 9.70012 18.7304C9.81354 18.8833 9.96476 18.8451 9.88915 18.7304C9.88915 18.6922 9.81354 18.5392 9.77573 18.3099C9.77573 18.0423 9.81354 17.7746 10.0026 17.5453C10.116 17.3924 10.2672 17.3159 10.305 17.3159C10.3428 17.3159 10.3428 17.2777 10.3806 17.2777H10.4184C10.4941 17.2394 10.4562 17.2777 10.5319 17.2394C10.9855 17.163 11.288 17.3541 11.4014 17.5453Z" fill="white"/>
<path d="M11.2124 18.004C11.1746 17.9658 11.1368 17.9276 11.1368 17.8893C11.1368 17.8129 11.1368 17.7746 11.2124 17.7364C11.2502 17.6982 11.288 17.6982 11.288 17.66C11.288 17.6217 11.1368 17.5835 10.9855 17.6982C10.8721 17.8129 10.8721 18.0423 11.0233 18.1952C11.2124 18.3863 11.477 18.4245 11.5148 18.6539C11.5148 18.6922 11.5148 18.7304 11.5148 18.7686C11.5148 18.8068 11.5148 18.8833 11.5148 18.8833C11.477 19.1127 11.2502 19.3421 10.8721 19.2656C10.7965 19.2656 10.7587 19.2656 10.7587 19.2656C10.7209 19.3038 10.8721 19.495 11.1746 19.4567C11.5904 19.4567 11.8929 19.0362 11.8173 18.5775C11.7795 18.1952 11.3636 18.1187 11.2124 18.004Z" fill="white"/>
<path d="M20.9451 15.4447C20.9677 15.2987 20.9023 15.1671 20.7991 15.1509C20.696 15.1346 20.5941 15.2398 20.5716 15.3858C20.5491 15.5319 20.6144 15.6634 20.7176 15.6797C20.8207 15.696 20.9226 15.5908 20.9451 15.4447Z" fill="white"/>
<path d="M20.134 15.8643C20.1942 15.7532 20.1243 15.5973 19.9778 15.5162C19.8313 15.435 19.6637 15.4592 19.6035 15.5703C19.5433 15.6814 19.6133 15.8373 19.7598 15.9185C19.9063 15.9997 20.0738 15.9754 20.134 15.8643Z" fill="white"/>
</g>
<defs>
<clipPath id="clip0">
<rect width="32" height="32" fill="white"/>
</clipPath>
</defs>
</svg>
