<svg width="32" height="32" viewBox="0 0 32 32" fill="none" xmlns="http://www.w3.org/2000/svg">
<g clip-path="url(#clip0)">
<path d="M4.30006 -1.62573e-05H27.7998C28.3578 0.00649097 28.9092 0.122532 29.4224 0.341483C29.9355 0.560432 30.4003 0.878001 30.7904 1.27605C31.1804 1.67411 31.4879 2.14485 31.6954 2.6614C31.9029 3.17794 32.0063 3.73018 31.9997 4.28656V27.7132C32.0037 28.2772 31.8952 28.8365 31.6805 29.3583C31.4658 29.8802 31.1492 30.3543 30.7492 30.7532C30.3491 31.152 29.8735 31.4675 29.35 31.6816C28.8265 31.8956 28.2655 32.0038 27.6998 31.9998H4.30006C3.15218 31.9687 2.0615 31.4936 1.25892 30.6748C0.456346 29.8562 0.00487903 28.7582 0.000106142 27.6135V4.28656C-0.00388312 3.72253 0.104615 3.16333 0.319294 2.64147C0.533974 2.1196 0.850555 1.64547 1.25063 1.24663C1.65072 0.847788 2.12633 0.532192 2.64983 0.31818C3.17332 0.104167 3.73426 -0.00399313 4.30006 -1.62573e-05Z" fill="#1D1D1D"/>
<path opacity="0.05" fill-rule="evenodd" clip-rule="evenodd" d="M8.60865 16.0873C8.57879 16.0577 8.54809 16.0252 8.51655 15.9893C7.77551 15.148 2.03238 7.57615 4.71868 4.86522C6.5673 2.99966 11.0918 4.85273 15.8168 8.53561C18.1134 6.45388 24.7544 2.27563 27.2278 4.77176C29.4202 6.98424 26.5589 12.2136 23.4484 15.9893C26.559 19.765 29.4204 24.9945 27.228 27.207C24.7769 29.6805 18.2333 25.5999 15.8803 23.5001C11.1323 27.2564 6.57546 29.1098 4.71854 27.3005C2.03224 24.683 7.68273 17.0177 8.51641 16.1763C8.54851 16.1439 8.57924 16.1143 8.60865 16.0873ZM8.14567 8.32406C8.10488 9.92974 9.14216 11.8618 10.6007 13.7928C10.5776 13.7461 10.5543 13.6991 10.5543 13.6524C11.2746 12.9254 12.3683 11.8719 13.3967 10.8825C11.4341 9.35004 9.51071 8.12741 8.15541 7.9033C8.15264 8.03813 8.14938 8.17833 8.14567 8.32406ZM10.5426 18.2207C11.009 18.6908 12.3384 20.0289 13.5626 21.2463C11.4416 22.9192 9.34897 24.2536 7.95036 24.3825C7.73484 23.9097 8.28569 21.1248 10.5426 18.2207ZM24.2163 24.1436C24.4237 22.5141 22.8941 20.3007 21.3385 18.3803C20.3032 19.5181 19.2268 20.5917 18.1396 21.5802C20.9652 23.7559 23.6765 24.3298 24.2163 24.1436ZM21.4723 13.7641C23.0655 11.9006 24.6511 9.84835 24.2988 8.14848C24.1405 8.14534 23.9745 8.14149 23.8006 8.13699C22.1969 8.09549 20.2645 9.15938 18.3277 10.6498C19.3977 11.6183 20.4556 12.6637 21.4723 13.7641ZM15.7567 12.8436C17.0774 13.9997 18.3146 15.1711 19.2931 16.1295C18.3135 17.0891 17.0745 18.2621 15.7521 19.4195C14.7138 18.4122 13.5703 17.2666 12.4924 16.0677C13.4737 15.0547 14.5879 13.9252 15.7567 12.8436Z" fill="white"/>
<path fill-rule="evenodd" clip-rule="evenodd" d="M16.7503 10.9055C18.0442 10.5725 19.0003 9.39788 19.0003 8C19.0003 6.34315 17.6571 5 16.0003 5C14.3434 5 13.0003 6.34315 13.0003 8C13.0003 9.39788 13.9564 10.5725 15.2503 10.9055V13.25H12.6157V14.75H15.2503V25.2236C13.7725 25.1167 12.6899 24.6942 11.8887 24.135C10.9534 23.4822 10.3489 22.6059 9.95785 21.7022C9.58508 20.8407 9.41327 19.969 9.3373 19.2839L11.1438 20.2599L11.8568 18.9401L8.46168 17.1059L5.53613 19.4109L6.46444 20.5891L7.85173 19.4961C7.9415 20.2754 8.14154 21.2817 8.58119 22.2978C9.05555 23.3941 9.81639 24.5178 11.0302 25.365C12.2482 26.2152 13.8697 26.75 16.0003 26.75C18.1308 26.75 19.7524 26.2152 20.9704 25.365C22.1842 24.5178 22.945 23.3941 23.4194 22.2978C23.859 21.2817 24.0591 20.2754 24.1488 19.4961L25.5361 20.5891L26.4644 19.4109L23.5389 17.1059L20.1438 18.9401L20.8568 20.2599L22.6633 19.2839C22.5873 19.969 22.4155 20.8407 22.0427 21.7022C21.6517 22.6059 21.0472 23.4822 20.1119 24.135C19.3107 24.6942 18.228 25.1167 16.7503 25.2236V14.75H19.3849V13.25H16.7503V10.9055ZM17.5003 8C17.5003 8.82843 16.8287 9.5 16.0003 9.5C15.1719 9.5 14.5003 8.82843 14.5003 8C14.5003 7.17157 15.1719 6.5 16.0003 6.5C16.8287 6.5 17.5003 7.17157 17.5003 8Z" fill="white"/>
</g>
<defs>
<clipPath id="clip0">
<rect width="32" height="32" fill="white"/>
</clipPath>
</defs>
</svg>
