<?xml version="1.0" encoding="utf-8"?>
<!-- Generator: Adobe Illustrator 21.0.0, SVG Export Plug-In . SVG Version: 6.00 Build 0)  -->
<svg version="1.1" id="Countdown_timer" xmlns="http://www.w3.org/2000/svg" xmlns:xlink="http://www.w3.org/1999/xlink" x="0px"
	 y="0px" viewBox="0 0 32 32" style="enable-background:new 0 0 32 32;" xml:space="preserve">
<style type="text/css">
	.st0{fill:#1D1D1D;}
	.st1{opacity:5.000000e-02;}
	.st2{fill:#FFFFFF;}
</style>
<g id="back">
	<path id="bg" class="st0" d="M4.3,0h23.5C30.1,0,32,1.9,32,4.3v23.5c0,2.4-1.9,4.3-4.3,4.3H4.3C1.9,32,0,30.1,0,27.7V4.3
		C0,1.9,1.9,0,4.3,0z"/>
	<g id="logo" class="st1">
		<g id="Down">
			<path id="b34" class="st2" d="M27.4,6.1c1,1.1,0.8,1.3-3.1,1.2s-9.6,5.8-13.1,9.4s-4.3,7.5-4,8C3,25,5.9,18.9,9.5,14.7
				c4.1-4.1,11.7-11.8,14.7-8.9S26.3,5,27.4,6.1z"/>
			<path id="b15" class="st2" d="M6.2,4.4c1.1-1,1.3-0.8,1.2,3.1c-0.1,3.8,5.8,9.6,9.4,13s7.5,4.2,8,3.9c0.3,4.3-5.8,1.4-10-2.2
				C10.7,18.1,2.7,10.3,5.6,7.3S5.1,5.4,6.2,4.4z"/>
		</g>
		<g id="up">
			<path id="b87" class="st2" d="M10.4,13.8c-0.1-0.1-0.2-0.2-0.3-0.3c0-0.1-0.1-0.2-0.1-0.3c1.5-1.5,4.5-4.3,5.6-5.4
				C18,5.6,25.3,1,28,3.7s-1.7,9.6-5.5,13.6C15.6,25.2,6.6,30.6,3.7,27.8s3.2-11,4.1-11.9s0.8,0.2,0.8,0.2s-5,5.9-2.7,8.2
				s11.3-6.2,14.6-9.5c2.4-2.8,6-6.4,3.6-8.8s-8.8,3.5-8.8,3.5S10.4,13.9,10.4,13.8z"/>
			<path id="b74" class="st2" d="M9.8,17.9c0,0,4.7,4.7,5.8,5.7c2.4,2.2,9.7,6.8,12.4,4.1s-1.7-9.6-5.5-13.6
				C15.6,6.4,6.6,0.9,3.7,3.8s3.3,11,4.1,11.9c0.9,0.9,1.1-0.1,0.9-0.3s-5.1-5.7-2.8-8s11.3,6.2,14.6,9.5c2.4,2.8,5.7,6.8,3.6,8.8
				S16.3,23,16.3,23s-2.6-2.4-4.3-4c-0.8-0.8-1.4-1.4-1.5-1.5C10.4,17.5,9.8,17.9,9.8,17.9z"/>
		</g>
	</g>
</g>
<g>
	<path class="st2" d="M14.1,22.8c-0.8-0.1-1.5-0.3-2.2-0.6c-0.7-0.3-1.3-0.7-1.7-1.2l0.8-1.1c0.1-0.1,0.2-0.2,0.3-0.2
		c0.1-0.1,0.2-0.1,0.3-0.1c0.1,0,0.3,0.1,0.5,0.2c0.2,0.1,0.4,0.2,0.6,0.4c0.2,0.1,0.5,0.3,0.7,0.4s0.6,0.2,1,0.3l0.4-4.5
		c-0.5-0.1-0.9-0.3-1.4-0.5S12.4,15.3,12,15s-0.7-0.7-0.9-1.1s-0.3-1-0.3-1.7c0-0.5,0.1-1,0.3-1.5c0.2-0.5,0.5-0.9,0.9-1.3
		c0.4-0.4,0.9-0.7,1.4-0.9c0.6-0.2,1.2-0.4,1.9-0.4l0.1-1.3c0-0.2,0.1-0.3,0.2-0.4s0.3-0.2,0.5-0.2H17l-0.2,2
		c0.7,0.1,1.3,0.3,1.8,0.6c0.5,0.3,1,0.6,1.3,1l-0.6,0.9c-0.1,0.1-0.2,0.2-0.3,0.3C19.1,11,19,11,18.8,11c-0.1,0-0.2,0-0.4-0.1
		s-0.3-0.1-0.5-0.2s-0.4-0.2-0.6-0.3c-0.2-0.1-0.5-0.2-0.7-0.2l-0.4,4.1c0.5,0.1,1,0.3,1.4,0.5c0.5,0.2,0.9,0.4,1.3,0.7
		c0.4,0.3,0.7,0.6,0.9,1c0.2,0.4,0.3,0.9,0.3,1.6c0,0.6-0.1,1.2-0.3,1.7c-0.2,0.5-0.5,1-0.9,1.4c-0.4,0.4-0.9,0.8-1.5,1
		s-1.2,0.4-2,0.5l-0.1,1.5c0,0.2-0.1,0.3-0.2,0.4s-0.3,0.2-0.5,0.2h-0.9L14.1,22.8z M13.1,12c0,0.3,0,0.5,0.1,0.7
		c0.1,0.2,0.2,0.4,0.4,0.5c0.2,0.2,0.3,0.3,0.6,0.4c0.2,0.1,0.4,0.2,0.7,0.3l0.3-3.7c-0.4,0-0.7,0.1-0.9,0.2
		c-0.3,0.1-0.5,0.2-0.6,0.4c-0.2,0.2-0.3,0.3-0.4,0.5C13.1,11.5,13.1,11.8,13.1,12z M18,18.5c0-0.3,0-0.5-0.1-0.7
		c-0.1-0.2-0.2-0.4-0.4-0.5c-0.2-0.1-0.4-0.3-0.6-0.4c-0.2-0.1-0.5-0.2-0.7-0.3l-0.3,4.1c0.7-0.1,1.2-0.3,1.6-0.7
		C17.8,19.6,18,19.1,18,18.5z"/>
</g>
</svg>
