<svg width="32" height="32" viewBox="0 0 32 32" fill="none" xmlns="http://www.w3.org/2000/svg">
<g clip-path="url(#clip0)">
<path d="M4.3 0H27.8C30.1 0 32 1.9 32 4.3V27.8C32 30.2 30.1 32.1 27.7 32.1H4.3C1.9 32 0 30.1 0 27.7V4.3C0 1.9 1.9 0 4.3 0Z" fill="#1D1D1D"/>
<path opacity="0.05" fill-rule="evenodd" clip-rule="evenodd" d="M15.6811 7.72653C18.1603 5.49963 25.3298 1.02984 28 3.7001C30.3668 6.0669 27.2779 11.661 23.9198 15.7001C27.2779 19.7391 30.367 25.3334 28.0002 27.7002C25.3541 30.3463 18.2898 25.981 15.7497 23.7348C10.624 27.7529 5.70465 29.7356 3.70002 27.8001C0.800021 25.0001 6.90002 16.8001 7.80002 15.9001C7.83676 15.8634 7.87183 15.83 7.90531 15.7997C7.87138 15.7695 7.83634 15.7364 7.80017 15.7002C7.00017 14.8002 0.800172 6.7002 3.70017 3.8002C5.69584 1.80454 10.5802 3.78682 15.6811 7.72653ZM24.2997 7.29992C24.4876 7.30474 24.6669 7.30886 24.8379 7.31221C25.2184 9.13069 23.5065 11.3262 21.7866 13.3196C20.6888 12.1425 19.5467 11.024 18.3915 9.98793C20.4823 8.39358 22.5684 7.25552 24.2997 7.29992ZM7.4103 7.05017C8.87339 7.28991 10.9498 8.5978 13.0685 10.2371C11.9583 11.2955 10.7776 12.4225 10 13.2001C10 13.218 10.0032 13.236 10.0085 13.2539C8.45586 11.1988 7.35613 9.15888 7.39979 7.50004C7.40378 7.34423 7.4073 7.19433 7.4103 7.05017ZM9.98698 18.0868C10.4902 18.5894 11.9257 20.0211 13.2476 21.3237C10.9577 23.1135 8.69838 24.541 7.18852 24.6786C6.95566 24.1734 7.55021 21.1939 9.98698 18.0868ZM24.7489 24.423C24.9726 22.6798 23.3214 20.3121 21.6421 18.2579C20.5244 19.4749 19.3625 20.6234 18.1889 21.6808C21.2393 24.0082 24.1663 24.6222 24.7489 24.423ZM19.434 15.8501C18.3768 16.8761 17.04 18.1304 15.613 19.368C14.4957 18.2891 13.2655 17.0576 12.1049 15.7704C13.1611 14.6901 14.3593 13.4871 15.6159 12.3347C17.0418 13.5715 18.3776 14.8247 19.434 15.8501Z" fill="white"/>
<path d="M20.043 7L7 20.043L11.957 25L25 11.957L20.043 7ZM9.00391 20.0078L9.98828 18.9883L11.9922 20.9922L13.0117 20.0078L11.0078 18.0039L11.9922 16.9844L13.0117 18.0039L13.9961 16.9844L13.0117 16L13.9961 15.0156L16 16.9844L16.9844 16L15.0156 13.9961L16 13.0117L16.9844 13.9961L18.0039 13.0117L16.9844 11.9922L18.0039 11.0078L20.0078 13.0117L20.9922 11.9922L18.9883 9.98828L20.0078 9.00391L22.9961 11.9922L11.9922 22.9961L9.00391 20.0078Z" fill="white"/>
</g>
<defs>
<clipPath id="clip0">
<rect width="32" height="32" fill="white"/>
</clipPath>
</defs>
</svg>
