<?xml version="1.0" encoding="utf-8"?>
<!-- Generator: Adobe Illustrator 21.0.0, SVG Export Plug-In . SVG Version: 6.00 Build 0)  -->
<svg version="1.1" id="Countdown_timer" xmlns="http://www.w3.org/2000/svg" xmlns:xlink="http://www.w3.org/1999/xlink" x="0px"
	 y="0px" viewBox="0 0 32 32" style="enable-background:new 0 0 32 32;" xml:space="preserve">
<g id="back">
	<path id="d64" style="fill:#1D1D1D;" d="M4.3,0h23.5C30.1,0,32,1.9,32,4.3v23.5c0,2.4-1.9,4.3-4.3,4.3H4.3C1.9,32,0,30.1,0,27.7
		V4.3C0,1.9,1.9,0,4.3,0z"/>
	<g id="logo">
		<g id="Down">
			<path id="d15" style="fill:#282828;" d="M27.4,6.1c1,1.1,0.8,1.3-3.1,1.2s-9.6,5.8-13.1,9.4s-4.3,7.5-4,8C3,25,5.9,18.9,9.5,14.7
				c4.1-4.1,11.7-11.8,14.7-8.9S26.3,5,27.4,6.1z"/>
			<path id="d45" style="fill:#282828;" d="M6.2,4.4c1.1-1,1.3-0.8,1.2,3.1c-0.1,3.8,5.8,9.6,9.4,13s7.5,4.2,8,3.9
				c0.3,4.3-5.8,1.4-10-2.2C10.7,18.1,2.7,10.3,5.6,7.3S5.1,5.4,6.2,4.4z"/>
		</g>
		<g id="up">
			<path id="d23" style="fill:#282828;" d="M10.4,13.8c-0.1-0.1-0.2-0.2-0.3-0.3c0-0.1-0.1-0.2-0.1-0.3c1.5-1.5,4.5-4.3,5.6-5.4
				c2.4-2.2,9.7-6.8,12.4-4.1s-1.7,9.6-5.5,13.6C15.6,25.2,6.6,30.6,3.7,27.8s3.2-11,4.1-11.9c0.9-0.9,0.8,0.2,0.8,0.2
				s-5,5.9-2.7,8.2s11.3-6.2,14.6-9.5c2.4-2.8,6-6.4,3.6-8.8s-8.8,3.5-8.8,3.5S10.4,13.9,10.4,13.8z"/>
			<path id="d31" style="fill:#282828;" d="M9.8,17.9c0,0,4.7,4.7,5.8,5.7c2.4,2.2,9.7,6.8,12.4,4.1s-1.7-9.6-5.5-13.6
				C15.6,6.4,6.6,0.9,3.7,3.8s3.3,11,4.1,11.9c0.9,0.9,1.1-0.1,0.9-0.3s-5.1-5.7-2.8-8s11.3,6.2,14.6,9.5c2.4,2.8,5.7,6.8,3.6,8.8
				S16.3,23,16.3,23s-2.6-2.4-4.3-4c-0.8-0.8-1.4-1.4-1.5-1.5C10.4,17.5,9.8,17.9,9.8,17.9z"/>
		</g>
	</g>
</g>
<g id="b35">
	<g id="icon">
		<path id="b12" style="fill:none;stroke:#FFFFFF;stroke-linecap:round;" d="M7.8,10h16.3v10.5H7.8V10z"/>
		<path id="b43" style="fill:none;stroke:#FFFFFF;" d="M7.8,15.1c0,0,1.9-1.3,3.9-1.3s3.2,3.5,4.2,3.5s2.4-0.6,3.9-0.6
			c1.5,0,4.2,1.9,4.2,1.9v1.9H7.8V15.1z"/>
	</g>
	<polyline id="b432" style="fill:none;stroke:#FFFFFF;stroke-miterlimit:10;" points="26.5,14.4 27.9,15.8 26.5,17.2 	"/>
	<polyline id="b435" style="fill:none;stroke:#FFFFFF;stroke-miterlimit:10;" points="5.5,17.2 4.1,15.8 5.5,14.4 	"/>
	<circle id="b42" style="fill:#FFFFFF;" cx="15.7" cy="22.6" r="0.6"/>
	<circle id="b67" style="fill:#FFFFFF;" cx="13.3" cy="22.6" r="0.6"/>
	<circle id="b14" style="fill:#FFFFFF;" cx="18.1" cy="22.6" r="0.6"/>
</g>
</svg>
