<svg width="17" height="17" viewBox="0 0 17 17" fill="none" xmlns="http://www.w3.org/2000/svg">
<path d="M14.636 2.36304C13.7045 1.42916 11.1901 2.35654 8.49975 4.46184C5.81268 2.35654 3.29823 1.42916 2.36345 2.36304C1.42867 3.29693 2.35694 5.81223 4.461 8.5C2.35694 11.1878 1.42867 13.7031 2.36345 14.637C3.29823 15.5708 5.81268 14.6435 8.49975 12.5382C11.1868 14.6435 13.7013 15.5708 14.636 14.637C15.5708 13.7031 14.6426 11.1878 12.5385 8.5C14.6458 5.80898 15.5708 3.29693 14.636 2.36304ZM11.4539 7.21794C11.1933 6.93159 10.923 6.64525 10.6396 6.36215C10.3335 6.05628 10.0241 5.76017 9.71138 5.48033C10.9979 4.5497 12.1607 4.00954 12.9131 4.01605C12.9196 4.76771 12.3822 5.93263 11.4539 7.21794ZM7.22298 5.54541C6.93636 5.80573 6.64974 6.07906 6.36312 6.36215C6.05696 6.66802 5.76382 6.97715 5.48697 7.28628C4.55545 6.00096 4.01478 4.83279 4.02455 4.08113C4.77367 4.07788 5.93644 4.61478 7.22298 5.54541ZM4.02129 12.9156C4.01478 12.164 4.55219 10.999 5.48371 9.71047C5.76382 10.0196 6.0537 10.3287 6.35986 10.6346C6.64323 10.9209 6.92985 11.191 7.21973 11.4513C5.93644 12.382 4.77367 12.9221 4.02129 12.9156ZM8.43135 10.4914C8.10239 10.2018 7.77017 9.89269 7.43795 9.56079C7.08619 9.20936 6.75722 8.85143 6.4478 8.5C6.75397 8.14857 7.08293 7.79064 7.43795 7.43921C7.76691 7.11056 8.09913 6.79818 8.43135 6.50858C8.78637 6.81771 9.14465 7.14961 9.49967 7.50429C9.82863 7.83619 10.1413 8.1681 10.4312 8.5C10.1413 8.8319 9.82863 9.16706 9.49967 9.49571C9.14139 9.85039 8.78637 10.1823 8.43135 10.4914ZM12.9131 12.9807C12.1607 12.9872 10.9979 12.447 9.71138 11.5164C10.0208 11.2366 10.3335 10.9437 10.6396 10.6346C10.923 10.3515 11.1933 10.0652 11.4539 9.7788C12.3822 11.0674 12.9196 12.229 12.9131 12.9807Z" fill="white"/>
</svg>
