<svg width="32" height="33" viewBox="0 0 32 33" fill="none" xmlns="http://www.w3.org/2000/svg">
<path d="M4.30011 1.45911e-05H27.8001C28.3582 0.00654219 28.9096 0.122947 29.4228 0.342583C29.9359 0.562218 30.4007 0.880781 30.7908 1.28008C31.1808 1.67938 31.4883 2.1516 31.6958 2.66976C31.9033 3.18792 32.0067 3.74189 32.0001 4.30001V27.8C32.0041 28.3658 31.8956 28.9268 31.6809 29.4503C31.4662 29.9738 31.1496 30.4494 30.7496 30.8495C30.3495 31.2496 29.8739 31.5661 29.3504 31.7808C28.8269 31.9955 28.2659 32.104 27.7001 32.1H4.30011C3.15222 32.0688 2.06153 31.5922 1.25894 30.7709C0.456352 29.9497 0.00487909 28.8483 0.000106144 27.7V4.30001C-0.00388317 3.73422 0.104616 3.17327 0.319298 2.64977C0.533981 2.12627 0.850565 1.65065 1.25065 1.25056C1.65074 0.850473 2.12636 0.533889 2.64986 0.319207C3.17336 0.104524 3.73431 -0.00397473 4.30011 1.45911e-05V1.45911e-05Z" fill="#1D1D1D"/>
<g opacity="0.05">
<path d="M27.3999 6.10001C28.3999 7.20001 28.1999 7.40001 24.2999 7.30001C20.3999 7.20001 14.6999 13.1 11.1999 16.7C7.69994 20.3 6.89994 24.2 7.19994 24.7C2.99994 25 5.89994 18.9 9.49994 14.7C13.5999 10.6 21.1999 2.90001 24.1999 5.80001C27.1999 8.70001 26.2999 5.00001 27.3999 6.10001Z" fill="white"/>
<path d="M6.20003 4.40001C7.30003 3.40001 7.50003 3.60001 7.40003 7.50001C7.30003 11.4 13.2 17.1 16.8 20.5C20.4 23.9 24.3 24.7 24.8 24.4C25.1 28.7 19 25.8 14.8 22.2C10.7 18.1 2.70003 10.3 5.60003 7.30001C8.50003 4.30001 5.10003 5.40001 6.20003 4.40001Z" fill="white"/>
<path d="M10.4 13.8L10.1 13.5C10.1 13.4 10 13.3 10 13.2C11.5 11.7 14.5 8.90001 15.6 7.80001C18 5.60001 25.3 1.00001 28 3.70001C30.7 6.40001 26.3 13.3 22.5 17.3C15.6 25.2 6.60002 30.6 3.70002 27.8C0.800021 25 6.90002 16.8 7.80002 15.9C8.70002 15 8.60002 16.1 8.60002 16.1C8.60002 16.1 3.60002 22 5.90002 24.3C8.20002 26.6 17.2 18.1 20.5 14.8C22.9 12 26.5 8.40001 24.1 6.00001C21.7 3.60001 15.3 9.50001 15.3 9.50001C15.3 9.50001 10.4 13.9 10.4 13.8Z" fill="white"/>
<path d="M9.79993 17.9C9.79993 17.9 14.4999 22.6 15.5999 23.6C17.9999 25.8 25.2999 30.4 27.9999 27.7C30.6999 25 26.2999 18.1 22.4999 14.1C15.5999 6.40002 6.59993 0.900021 3.69993 3.80002C0.799928 6.70002 6.99993 14.8 7.79993 15.7C8.59993 16.6 8.89993 15.6 8.69993 15.4C8.49993 15.2 3.59993 9.70002 5.89993 7.40002C8.19993 5.10002 17.1999 13.6 20.4999 16.9C22.8999 19.7 26.1999 23.7 24.0999 25.7C21.9999 27.7 16.2999 23 16.2999 23C16.2999 23 13.6999 20.6 11.9999 19L10.4999 17.5C10.2547 17.6114 10.0204 17.7453 9.79993 17.9Z" fill="white"/>
</g>
<path d="M24.6399 8.65C25.1902 9.18083 25.6229 9.82132 25.9099 10.53C26.1865 11.2201 26.3291 11.9566 26.3299 12.7C26.3305 13.4371 26.1879 14.1673 25.9099 14.85C25.6236 15.5708 25.1912 16.2245 24.6399 16.77L16.6399 24.77C16.5513 24.8472 16.4497 24.9081 16.3399 24.95C16.2303 24.9862 16.1153 25.0031 15.9999 25H15.8399C15.7603 25.0112 15.6795 25.0112 15.5999 25C15.5141 24.956 15.4335 24.9023 15.3599 24.84L7.35992 16.84C6.80865 16.2945 6.37624 15.6408 6.08992 14.92C5.81199 14.2373 5.66934 13.5071 5.66992 12.77C5.67076 12.0266 5.81331 11.2901 6.08992 10.6C6.36821 9.86629 6.80138 9.20119 7.35992 8.65C7.88109 8.11617 8.50298 7.69103 9.18959 7.39922C9.8762 7.10741 10.6139 6.95472 11.3599 6.95C12.1188 6.94801 12.8705 7.09732 13.5711 7.38921C14.2716 7.68111 14.907 8.10972 15.4399 8.65L15.9599 9.17L16.4799 8.65C17.027 8.1103 17.6764 7.68532 18.3899 7.4C19.089 7.11033 19.8382 6.96124 20.5949 6.96124C21.3516 6.96124 22.1009 7.11033 22.7999 7.4C23.4946 7.68209 24.1217 8.1081 24.6399 8.65V8.65ZM23.3899 15.51C23.7732 15.1311 24.0759 14.6788 24.2799 14.18C24.5761 13.4593 24.6496 12.6664 24.491 11.9036C24.3323 11.1407 23.9488 10.4429 23.3899 9.9C23.0342 9.51448 22.6015 9.20787 22.1199 9C21.6415 8.80066 21.1282 8.69868 20.6099 8.7C20.0885 8.69998 19.5722 8.8019 19.0899 9C18.598 9.20125 18.1522 9.50068 17.7799 9.88L16.6499 11.05C16.4765 11.2111 16.2465 11.2973 16.0099 11.29C15.7681 11.2924 15.5337 11.2072 15.3499 11.05L14.2199 9.9C13.4716 9.15249 12.4576 8.73181 11.3999 8.73C10.8805 8.72045 10.3643 8.81215 9.87992 9C9.39648 9.19536 8.96264 9.49598 8.60992 9.88C8.22408 10.2489 7.92076 10.6954 7.71992 11.19C7.33072 12.1521 7.33072 13.2279 7.71992 14.19C7.92397 14.6888 8.2267 15.1411 8.60992 15.52L15.9999 22.9L23.3899 15.51Z" fill="white"/>
</svg>
