<?xml version="1.0" standalone="no"?>
<!DOCTYPE svg PUBLIC "-//W3C//DTD SVG 1.1//EN" "http://www.w3.org/Graphics/SVG/1.1/DTD/svg11.dtd" >
<svg xmlns="http://www.w3.org/2000/svg">
<metadata>
<json>
<![CDATA[
{
	"fontFamily": "woodmart-font",
	"majorVersion": 1,
	"minorVersion": 0,
	"description": "Font generated by IcoMoon.",
	"version": "Version 1.0",
	"fontId": "woodmart-font",
	"psName": "woodmart-font",
	"subFamily": "Regular",
	"fullName": "woodmart-font"
}
]]>
</json>
</metadata>
<defs>
<font id="woodmart-font" horiz-adv-x="1024">
<font-face units-per-em="1024" ascent="960" descent="-64" />
<missing-glyph horiz-adv-x="1024" />
<glyph unicode="&#x20;" horiz-adv-x="512" d="" />
<glyph unicode="&#xf100;" glyph-name="warning-sign" data-tags="alert" d="M511.744 960c-282.881 0-511.744-229.121-511.744-511.999s228.864-511.999 511.744-511.999 512.256 229.121 512.256 511.999-229.377 511.999-512.256 511.999zM511.999 38.401c-226.303 0-409.6 183.295-409.6 409.6s183.297 409.598 409.6 409.598 409.6-183.295 409.6-409.598-183.295-409.6-409.6-409.6zM460.8 294.401h102.401v-102.401h-102.401v102.401zM460.8 703.999h102.401v-307.2h-102.401v307.2z" />
<glyph unicode="&#xf101;" glyph-name="play-button" data-tags="button-play-2" d="M902 552c36-20 58-52 58-86s-20-66-54-86l-694-426c-20-12-40-18-60-18-42 0-88 32-88 102v820c0 82 76 128 148 86zM860 454c8 6 10 10 10 12 0-2-2 2-12 8l-690 392c-6 4-10 6-14 6 0-2 0-6 0-14v-820c0-6 0-10 0-12 4 0 6 2 12 4z" />
<glyph unicode="&#xf102;" glyph-name="360-deg" data-tags="360-deg" d="M836 510c120-34 188-86 188-146 0-32-20-80-116-122-68-28-164-50-268-58 0 0-2 0-2 0s0 0 0 0h-90c-10 0-20 10-20 22s10 20 22 20c0 0 0 0 0 0h86c102 8 192 28 254 56 58 24 92 54 92 82 0 38-62 78-158 106-12 2-18 14-16 26 4 12 16 18 28 14zM206 534h88v88h-88c-12 0-20 10-20 22s8 22 20 22h110c12 0 22-10 22-22v-262c0-12-10-20-22-20h-110c-12 0-20 8-20 20s8 22 20 22h88v88h-88c-12 0-20 10-20 22s8 20 20 20zM402 362c-10 0-20 8-20 20v262c0 12 10 22 20 22h110c12 0 22-10 22-22s-10-22-22-22h-88v-88h110c12 0 22-8 22-20v-132c0-12-10-20-22-20zM424 492v-88h88v88zM622 362c-12 0-22 8-22 20v262c0 12 10 22 22 22h130c12 0 22-10 22-22v-262c0-12-10-20-22-20zM642 622v-218h88v218zM390 308l72-86c4-4 6-8 6-14v-2c0-4-2-10-6-14l-78-86c-4-4-10-6-16-6-4 0-10 2-14 4-8 8-8 22 0 32l42 46c-102 8-196 28-266 56-84 32-130 76-130 126 0 30 16 58 48 82 28 22 68 42 116 58 12 2 24-4 28-14 4-12-2-24-14-28-84-26-136-64-136-98 0-30 38-62 104-88 68-26 158-44 260-52l-48 56c-8 10-6 24 2 30 10 8 22 8 30-2zM814 666c-12 0-22 10-22 22v88c0 12 10 20 22 20h86c12 0 22-8 22-20v-88c0-12-10-22-22-22zM836 754v-44h44v44z" />
<glyph unicode="&#xf103;" glyph-name="comment" data-tags="note" d="M0 960h1024v-756h-196l-340-268v268h-488zM926 302v560h-828v-560h488v-146l194 146z" />
<glyph unicode="&#xf104;" glyph-name="paperclip" data-tags="statik" d="M1024 614c4-86-24-162-80-218l-414-416-62 62 414 416c38 38 56 92 54 150-4 60-28 116-68 156-82 82-220 86-298 8l-448-450c-48-48-44-138 8-190 26-26 58-40 94-40 34 0 66 12 90 36l438 440c20 20 20 52 0 72s-54 20-74 0l-386-388-62 64 386 388c26 26 62 40 98 40 38 0 74-14 100-40 54-56 54-144 0-200l-448-448c-40-34-88-52-140-52-2 0-2 0-4 0-58 0-112 24-154 64-88 88-92 234-8 316l458 460c114 102 300 96 412-18 56-56 90-132 94-212z" />
<glyph unicode="&#xf105;" glyph-name="header-cart" data-tags="altcart" d="M38 836c-20 0-38 18-38 38 0 22 18 38 38 38h136c18 0 34-10 38-28l154-558h422l140 322h-468c-20 0-36 16-36 38 0 20 16 38 36 38h526c12 0 24-8 32-18 6-10 8-24 2-36l-172-398c-6-14-20-22-34-22h-476c-18 0-32 12-36 28l-156 558zM302-16c-48 0-86 38-86 86 0 46 38 86 86 86s86-40 86-86c0-48-38-86-86-86zM838-16c-44 0-82 34-84 80-4 46 32 88 78 92 48 2 90-34 92-80 2-24-6-46-20-64-16-16-36-26-60-28z" />
<glyph unicode="&#xf106;" glyph-name="heart" data-tags="shapes" d="M940 812c112-110 112-290 0-402l-396-398c-10-8-20-12-32-12-2 0-6 0-8 0-8 2-16 6-24 12l-396 398c-112 112-112 292 0 402 52 54 124 84 200 84s148-30 202-84l26-26 26 26c54 54 126 84 202 84s148-30 200-84zM878 472c78 78 78 202 0 278-36 38-86 58-138 58s-102-20-140-58l-56-58c-18-16-46-16-64 0l-56 58c-38 38-88 58-140 58s-102-20-138-58c-78-76-78-200 0-278l366-366z" />
<glyph unicode="&#xf107;" glyph-name="check" data-tags="check" d="M326 222l616 616 82-82-698-698-326 326 82 82z" />
<glyph unicode="&#xf108;" glyph-name="door-logout" data-tags="logout" d="M372 402v92h536l-116 186h92l140-232-140-232h-92l116 186zM0-64v1024h744v-302h-92v208h-558v-836h558v208h92v-302z" />
<glyph unicode="&#xf109;" glyph-name="more-dots" data-tags="moredots" d="M94 542c50 0 92-42 92-94s-42-94-92-94c-52 0-94 42-94 94s42 94 94 94zM528 542c50 0 92-42 92-94s-42-94-92-94c-52 0-94 42-94 94s42 94 94 94zM930 542c52 0 94-42 94-94s-42-94-94-94c-50 0-92 42-92 94s42 94 92 94z" />
<glyph unicode="&#xf110;" glyph-name="arrow-circle-left" data-tags="arrowaroundleft" d="M512-64c-282 0-512 230-512 512s230 512 512 512c282 0 512-230 512-512s-230-512-512-512zM512 898c-248 0-450-202-450-450s202-450 450-450c248 0 450 202 450 450s-202 450-450 450zM552 254l-160 194 160 194 48-40-128-154 128-154z" />
<glyph unicode="&#xf111;" glyph-name="arrow-circle-right" data-tags="arrowaroundright" d="M512-64c-282 0-512 230-512 512s230 512 512 512c282 0 512-230 512-512s-230-512-512-512zM512 898c-248 0-450-202-450-450s202-450 450-450c248 0 450 202 450 450s-202 450-450 450zM472 254l-48 40 128 154-128 154 48 40 160-194z" />
<glyph unicode="&#xf112;" glyph-name="cross-close" data-tags="cross" d="M1024 880l-432-432 432-432-80-80-432 432-432-432-80 80 432 432-432 432 80 80 432-432 432 432z" />
<glyph unicode="&#xf113;" glyph-name="chevron-right" data-tags="right-arrow-chevron" d="M282 960l526-512-526-512-66 68 456 444-456 444z" />
<glyph unicode="&#xf114;" glyph-name="chevron-left" data-tags="left-arrow-chevron" d="M808 892l-456-444 456-444-66-68-526 512 526 512z" />
<glyph unicode="&#xf115;" glyph-name="chevron-up" data-tags="up-chevron" d="M512 744l512-526-68-66-444 456-444-456-68 66z" />
<glyph unicode="&#xf116;" glyph-name="edit" data-tags="edit" d="M282 218v242l496 500 246-244-496-498zM384 418v-98h102l392 396-100 100zM922 38v358h102v-460h-1024v1024h512v-102h-410v-820z" />
<glyph unicode="&#xf117;" glyph-name="social" data-tags="symbol" d="M790 406c128 0 234-104 234-234s-106-236-234-236c-164 0-278 166-220 320l-250 134c-34-30-78-48-128-48-106 0-192 86-192 192s86 192 192 192c58 0 110-26 146-68l304 130c-14 92 58 172 148 172 82 0 148-68 148-150s-66-150-148-150c-44 0-84 20-112 50l-300-126c10-44 6-86-6-124l244-132c42 48 104 78 174 78zM790 874c-36 0-64-28-64-64s28-64 64-64c34 0 64 28 64 64s-30 64-64 64zM298 534c0 0 0 0 0 0v0c0 58-48 106-106 106s-106-48-106-106c0-60 48-108 106-108s106 48 106 108zM790 22c82 0 148 66 148 150 0 82-66 150-148 150s-150-68-150-150c0-84 68-150 150-150z" />
<glyph unicode="&#xf118;" glyph-name="filter" data-tags="filters" d="M362-22v504l-352 406c-18 22-16 70 32 70h938c46 0 56-42 32-70l-344-396v-310c0-14-4-24-14-32l-220-204c-24-18-72-8-72 32zM136 872l300-346c8-8 12-18 12-28v-424l136 124v308c0 12 4 20 10 28l292 338z" />
<glyph unicode="&#xf119;" glyph-name="sort-by" data-tags="sort-by" d="M180 638l-102-140-78 56 228 314 226-314-76-56-102 140v-574h-96v574zM844 258l102 140 78-56-228-314-226 314 76 56 102-140v574h96z" />
<glyph unicode="&#xf120;" glyph-name="long-arrow-right" data-tags="arrow-next" d="M744 728l280-280-280-280-46 44 202 204h-900v64h900l-202 204z" />
<glyph unicode="&#xf121;" glyph-name="long-arrow-left" data-tags="arrow-back" d="M1024 480v-64h-900l202-204-46-44-280 280 280 280 46-44-202-204h900z" />
<glyph unicode="&#xf122;" glyph-name="grid" data-tags="layout" d="M84 492c-18 0-34 16-34 32v352c0 18 16 34 34 34h352c18 0 32-16 32-34v-352c0-18-14-32-32-32zM116 844v-286h286v286zM974 876v-352c0-18-16-32-34-32h-350c-20 0-34 14-34 32v352c0 18 14 34 34 34h350c18 0 34-16 34-34zM908 558v286h-286v-286zM84-14c-18 0-34 16-34 34v350c0 20 16 34 34 34h352c18 0 32-14 32-34v-350c0-18-14-34-32-34zM116 338v-286h286v286zM940 404c18 0 34-16 34-34v-350c0-18-16-34-34-34h-350c-20 0-34 16-34 34v350c0 20 14 34 34 34zM908 52v286h-286v-286z" />
<glyph unicode="&#xf123;" glyph-name="cart" data-tags="cart" d="M960 928c24 0 42-18 42-40s-18-40-42-40h-154l-100-536c-4-18-22-32-40-32h-504c-18 0-34 12-38 28l-100 360c-6 18 4 52 40 52h388c24 0 42-18 42-42 0-22-18-40-42-40h-334l76-278h438l100 536c4 18 20 32 40 32zM570 210c66 0 120-54 120-122 0-66-54-122-120-122s-120 56-120 122c0 68 54 122 120 122zM570 48c22 0 38 18 38 42 0 22-16 40-38 40-20 0-38-18-38-40 0-24 18-42 38-42zM254 210c66 0 120-54 120-122 0-66-54-122-120-122s-120 56-120 122c0 68 54 122 120 122zM254 48c20 0 38 18 38 42 0 22-18 40-38 40-22 0-38-18-38-40 0-24 16-42 38-42z" />
<glyph unicode="&#xf124;" glyph-name="user" data-tags="user" d="M692 328c170-60 298-208 332-392h-86c-42 196-216 342-426 342s-384-146-426-342h-86c34 180 162 328 332 392-98 60-162 166-162 290 0 188 154 342 342 342s342-154 342-342c0-124-64-230-162-290zM256 618c0-140 116-256 256-256s256 116 256 256c0 142-116 256-256 256s-256-114-256-256z" />
<glyph unicode="&#xf125;" glyph-name="newlatter" data-tags="newlatter" d="M0 832h1024v-136l-512-418-512 418zM938 738v8h-852v-8l426-350zM938 150v340h86v-426h-1024v426h86v-340z" />
<glyph unicode="&#xf126;" glyph-name="bag" data-tags="bag" d="M894 704l46-768h-856l50 768h82v-86h-4l-34-596h678l-38 596h-90v-84h-86v212c0 74-56 128-128 128s-128-54-128-128v-42h170v-86h-170v-84h-86v212c0 120 94 214 214 214s214-94 214-214v-42z" />
<glyph unicode="&#xf127;" glyph-name="scale-arrows" data-tags="scaleerrows" d="M354 350l64-60-268-268h192v-86h-342v342h86v-196zM938 82v196h86v-342h-342v86h196l-792 792v-196h-86v342h342v-86h-196zM682 960h342v-342h-86v192l-264-264-60 60 270 268h-202z" />
<glyph unicode="&#xf128;" glyph-name="compare" data-tags="compare" d="M658 662l-158-158-60 60 182 182h236l-120 120 60 60 226-222-226-222-60 60 120 120zM738 354l60 60 226-222-226-222-60 60 120 120h-236l-238 238-238-238h-146v84h110l214 214-214 214h-110v84h146l512-512h200z" />
<glyph unicode="&#xf129;" glyph-name="chevron-down" data-tags="arrows" d="M956 744l68-66-512-526-512 526 68 66 444-456z" />
<glyph unicode="&#xf130;" glyph-name="search" data-tags="lup" d="M756 262l256-256-70-70-256 280c-70-58-158-94-256-94-228 0-418 186-418 420 0 232 190 418 418 418 230 0 420-186 420-418 0-102-36-208-94-280zM430 216c178 0 326 144 326 326 0 180-148 324-326 324s-326-144-326-324c0-182 148-326 326-326z" />
<glyph unicode="&#xf131;" glyph-name="quote" data-tags="quote_right" horiz-adv-x="952" d="M439.286 763.952v-402.679q0-59.487-23.166-113.54t-62.632-93.52-93.52-62.632-113.54-23.166h-36.607q-14.872 0-25.739 10.868t-10.868 25.739v73.214q0 14.872 10.868 25.739t25.739 10.868h36.607q60.63 0 103.53 42.899t42.899 103.53v18.304q0 22.879-16.016 38.895t-38.895 16.016h-128.125q-45.759 0-77.79 32.031t-32.031 77.79v219.643q0 45.759 32.031 77.79t77.79 32.031h219.643q45.759 0 77.79-32.031t32.031-77.79zM951.786 763.952v-402.679q0-59.487-23.166-113.54t-62.632-93.52-93.52-62.632-113.54-23.166h-36.607q-14.872 0-25.739 10.868t-10.868 25.739v73.214q0 14.872 10.868 25.739t25.739 10.868h36.607q60.63 0 103.53 42.899t42.899 103.53v18.304q0 22.879-16.016 38.895t-38.895 16.016h-128.125q-45.759 0-77.79 32.031t-32.031 77.79v219.643q0 45.759 32.031 77.79t77.79 32.031h219.643q45.759 0 77.79-32.031t32.031-77.79z" />
<glyph unicode="&#xf132;" glyph-name="envelope-o" data-tags="envelope-o" d="M950.857 91.428v438.857c-12-13.714-25.143-26.286-39.429-37.714-81.714-62.857-164-126.857-243.429-193.143-42.857-36-96-80-155.429-80h-1.143c-59.429 0-112.571 44-155.429 80-79.429 66.286-161.714 130.286-243.429 193.143-14.286 11.429-27.429 24-39.429 37.714v-438.857c0-9.714 8.571-18.286 18.286-18.286h841.143c9.714 0 18.286 8.571 18.286 18.286zM950.857 692c0 14.286 3.429 39.429-18.286 39.429h-841.143c-9.714 0-18.286-8.571-18.286-18.286 0-65.143 32.571-121.714 84-162.286 76.571-60 153.143-120.571 229.143-181.143 30.286-24.571 85.143-77.143 125.143-77.143h1.143c40 0 94.857 52.571 125.143 77.143 76 60.571 152.571 121.143 229.143 181.143 37.143 29.143 84 92.571 84 141.143zM1024 713.143v-621.714c0-50.286-41.143-91.429-91.429-91.429h-841.143c-50.286 0-91.429 41.143-91.429 91.429v621.714c0 50.286 41.143 91.429 91.429 91.429h841.143c50.286 0 91.429-41.143 91.429-91.429z" />
<glyph unicode="&#xf133;" glyph-name="tik-tok-brands" data-tags="tik-tok" horiz-adv-x="896" d="M896 540.18c-0.299-0.001-0.652-0.001-1.005-0.001-91.768 0-176.664 29.423-245.768 79.349l1.233-0.848v-357.44c-0.068-179.496-145.594-324.981-325.1-324.981-179.548 0-325.1 145.552-325.1 325.1s145.552 325.1 325.1 325.1c15.745 0 31.228-1.119 46.375-3.283l-1.735 0.203v-179.78c-13.386 4.362-28.789 6.877-44.78 6.877-82.423 0-149.24-66.817-149.24-149.24s66.817-149.24 149.24-149.24c82.423 0 149.24 66.817 149.24 149.24 0 0.001 0 0.002 0 0.004v0 698.76h176c-0.005-0.592-0.008-1.292-0.008-1.993 0-14.966 1.356-29.615 3.953-43.83l-0.225 1.484c12.99-67.689 52.414-124.345 106.88-159.865l0.94-0.575c37.691-25.239 84.063-40.28 133.949-40.28 0.018 0 0.036 0 0.054 0h-0.003z" />
<glyph unicode="&#xf134;" glyph-name="account-wishlist" data-tags="account-wishlist" d="M1022 640c-14 164-132 284-276 284-98 0-186-52-236-136-50 84-136 136-232 136-144 0-262-120-276-284-2-8-6-46 8-108 22-90 70-172 142-236l356-324 364 324c72 64 120 146 142 236 14 62 10 100 8 108zM976 542c-20-82-66-158-130-218l-336-300-332 300c-64 60-110 136-130 218-14 58-8 92-8 92v2c14 144 114 248 238 248 94 0 174-56 212-148l20-42 18 42c38 90 122 148 218 148 124 0 224-104 238-250 0 0 6-34-8-92z" />
<glyph unicode="&#xf135;" glyph-name="account-details" data-tags="account-details" d="M1024 448c0 282-230 512-512 512s-512-230-512-512c0-150 64-284 166-378v0l16-14c2 0 2-2 4-2 8-8 18-14 26-22 4-2 6-4 10-6 10-6 20-12 30-20 2 0 6-2 8-4 10-6 22-12 34-18 2 0 2 0 4 0 38-18 80-32 122-40 2 0 4 0 4 0 14-2 28-4 42-6 0 0 2 0 4 0 14-2 28-2 42-2s28 0 42 2c2 0 2 0 4 0 14 2 28 4 42 6 0 0 2 0 2 0 44 8 84 20 122 38 2 2 4 2 4 2 12 6 24 12 34 18 4 2 6 2 8 4 10 6 20 12 30 20 4 2 8 4 10 6 8 6 16 12 24 18 2 2 4 4 6 4l16 14v2c104 94 168 228 168 378zM38 448c0 262 212 474 474 474s474-212 474-474c0-142-62-268-160-354-4 2-10 6-16 10l-158 78c-14 6-22 22-22 36v56c4 4 8 10 12 16 20 28 36 60 48 94 24 12 38 36 38 62v66c0 16-6 32-16 44v86c2 10 4 66-34 110-36 40-90 60-166 60s-130-20-166-60c-38-44-36-100-34-110v-86c-10-12-16-28-16-44v-66c0-20 8-40 24-52 16-60 46-104 58-120v-54c0-14-8-28-22-36l-146-80c-6-2-10-6-14-10-98 88-158 214-158 354zM790 64c-6-4-12-10-20-14-2-2-6-4-8-6-10-6-18-10-28-16-2 0-4-2-6-2-20-12-42-20-64-28-2 0-2 0-2 0-12-4-24-8-36-10 0 0 0 0 0 0-12-4-24-6-38-8 0 0 0 0 0 0-12-2-24-4-34-4-2-2-6-2-8-2-10 0-22 0-34 0s-24 0-36 0c-2 0-4 0-6 2-12 0-22 2-34 4-2 0-2 0-2 0-24 4-48 10-72 18-2 0-2 0-2 0-12 4-24 8-36 14 0 0 0 0 0 0-10 4-20 10-32 16 0 0-2 0-4 2-8 4-18 10-28 16-2 2-4 4-8 4-8 6-16 12-24 18-2 0-2 2-2 2s0 0 0 2l148 80c26 14 42 40 42 68v68l-6 4c0 2-40 50-56 116v8l-8 4c-8 6-14 16-14 26v66c0 8 4 16 10 22l8 6v104l-2 2c0 0-4 46 26 82 28 30 74 46 138 46s110-16 136-46c32-36 28-82 28-82l-2-106 8-6c6-6 10-14 10-22v-66c0-14-10-26-22-30l-10-2-2-10c-12-34-28-66-48-94-4-6-8-12-12-16l-6-6v-70c0-30 18-56 44-70l158-78c0 0 2-2 2-2-2-2-4-2-6-4z" />
<glyph unicode="&#xf136;" glyph-name="account-download" data-tags="account-download" d="M350 468c-6 8-18 8-24 0-6-6-6-18 0-24l174-174c2-2 6-4 12-4 0 0 0 0 0 0s0 0 0 0c6 0 10 2 14 8l172 170c6 8 6 18 0 26-8 6-18 6-26 0l-142-144v616c0 10-8 18-18 18s-18-8-18-18v-618zM634 682c-10 0-18-8-18-18 0-8 8-16 18-16h226v-678h-696v678h226c10 0 18 8 18 16 0 10-8 18-18 18h-260v-746h764v746z" />
<glyph unicode="&#xf137;" glyph-name="account-exit" data-tags="account-exit" d="M1004 506c2 4 2 10 0 14 0 2-2 4-4 6l-224 224c-6 8-18 8-26 0s-8-20 0-26l192-192h-402c-10 0-18-8-18-18 0-12 8-20 18-20h402l-192-192c-8-6-8-18 0-26 4-4 8-4 14-4 4 0 8 0 12 4l224 224c2 2 4 4 4 6zM670 420c-10 0-18-8-18-18v-298h-186v708c0 8-6 14-14 16l-294 94h494v-298c0-10 8-18 18-18s18 8 18 18v318c0 10-8 18-18 18h-632c-2 0-2 0-2 0-2 0-2 0-4 0-2-2-2-2-4-2 0-2-2-2-2-2s0 0-2-2c0 0 0 0 0 0-2-2-2-4-4-4 0-2 0-2 0-2 0-2-2-4-2-6v-858c0-2 2-4 2-6 0 0 0 0 0-2 2 0 2-2 4-4 0 0 0 0 2 0 0-2 2-2 2-4 2 0 2 0 2 0 2 0 2 0 2 0l410-132c2 0 2 0 4 0 4 0 8 2 12 4 4 4 8 8 8 14v112h204c10 0 18 8 18 18v318c0 10-8 18-18 18zM428-20l-372 118v818l372-118z" />
<glyph unicode="&#xf138;" glyph-name="account-orders" data-tags="account-orders" d="M664 960h-554v-1024h804v776zM674 902l180-180h-180zM146-30v956h494v-240h238v-716zM726 602h-274c-10 0-16-8-16-18 0-8 6-16 16-16h274c8 0 16 8 16 16 0 10-8 18-16 18zM390 650l-72-60-24 24c-8 6-18 6-24 0-8-8-8-18 0-24l34-34c2-4 8-6 12-6s8 2 10 4l86 68c8 6 8 18 2 24-6 8-16 8-24 4zM726 414h-274c-10 0-16-8-16-18 0-8 6-16 16-16h274c8 0 16 8 16 16 0 10-8 18-16 18zM390 462l-72-60-24 24c-8 6-18 6-24 0-8-6-8-18 0-24l34-34c2-4 8-6 12-6s8 2 10 4l86 68c8 6 8 18 2 24-6 8-16 10-24 4zM726 226h-274c-10 0-16-8-16-16 0-10 6-18 16-18h274c8 0 16 8 16 18 0 8-8 16-16 16zM390 274l-72-60-24 24c-8 6-18 6-24 0-8-6-8-18 0-24l34-34c2-4 8-6 12-6s8 2 10 4l86 68c8 6 8 18 2 24-6 8-16 10-24 4z" />
<glyph unicode="&#xf139;" glyph-name="account-address" data-tags="account-address" d="M512 516c66 0 120 54 120 120s-54 120-120 120c-66 0-120-54-120-120s54-120 120-120zM512 722c48 0 86-40 86-86 0-48-38-86-86-86s-86 38-86 86c0 46 38 86 86 86zM508 26l262 378c100 130 84 346-30 460-62 62-144 96-232 96-86 0-168-34-230-96-114-114-130-330-32-460zM302 840c56 56 128 86 206 86 80 0 152-30 208-86 104-104 116-298 28-416l-236-338-234 338c-88 118-76 312 28 416zM718 226c-8 2-18-6-18-14-2-10 6-18 14-20 180-22 276-78 276-110 0-48-182-112-478-112s-478 64-478 112c0 32 96 88 276 110 8 2 16 10 14 20 0 8-10 16-18 14-180-22-306-80-306-144 0-74 176-146 512-146s512 72 512 146c0 64-126 122-306 144z" />
<glyph unicode="&#xf13f;" glyph-name="ruler" data-tags="size-ruler" d="M742 960l-742-742 282-282 742 742zM114 220l56 58 114-114 58 56-114 114 56 58 58-58 56 58-56 56 56 56 114-112 56 56-112 114 56 56 56-56 58 56-58 58 58 56 114-114 56 58-114 114 58 56 170-170-626-626z" />
<glyph unicode="&#xf140;" glyph-name="account-other" data-tags="account-other" d="M972 562h-96c-16 0-28 8-34 22s-4 30 8 40l68 68c10 10 14 24 14 38s-4 26-14 36l-88 88c-20 20-54 20-74 0l-68-68c-10-12-26-14-40-8s-22 18-22 34v96c0 28-24 52-52 52h-124c-28 0-52-24-52-52v-96c0-16-8-28-22-34s-30-4-40 8l-68 68c-20 20-54 20-74 0l-88-88c-10-10-14-22-14-36s4-28 14-38l68-68c12-10 14-26 8-40s-18-22-34-22h-96c-28 0-52-24-52-52v-124c0-28 24-52 52-52h96c16 0 28-8 34-22s4-30-8-40l-68-68c-10-10-14-24-14-38s4-26 14-36l88-88c20-20 54-20 74 0l68 68c10 12 26 14 40 8s22-18 22-34v-96c0-28 24-52 52-52h124c28 0 52 24 52 52v96c0 16 8 28 22 34s30 4 40-8l68-68c20-20 54-20 74 0l88 88c10 10 14 22 14 36s-4 28-14 38l-68 68c-12 10-14 26-8 40s18 22 34 22h96c28 0 52 24 52 52v124c0 28-24 52-52 52zM986 386c0-8-6-14-14-14h-96c-32 0-58-18-70-46s-6-60 16-82l68-68c6-4 6-14 0-20l-86-86c-6-6-16-6-20 0l-68 68c-22 22-54 28-82 16s-46-38-46-70v-96c0-8-6-14-14-14h-124c-8 0-14 6-14 14v96c0 32-18 58-46 70-10 4-20 6-30 6-18 0-36-8-52-22l-68-68c-4-6-14-6-20 0l-86 86c-6 6-6 16 0 20l68 68c22 22 28 54 16 82s-38 46-70 46h-96c-8 0-14 6-14 14v124c0 8 6 14 14 14h96c32 0 58 18 70 46s6 60-16 82l-68 68c-6 4-6 14 0 20l86 86c6 6 16 6 20 0l68-68c22-22 54-28 82-16s46 38 46 70v96c0 8 6 14 14 14h124c8 0 14-6 14-14v-96c0-32 18-58 46-70s60-6 82 16l68 68c4 6 14 6 20 0l86-86c6-6 6-16 0-20l-68-68c-22-22-28-54-16-82s38-46 70-46h96c8 0 14-6 14-14zM512 618c-94 0-170-76-170-170s76-170 170-170c94 0 170 76 170 170s-76 170-170 170zM512 316c-74 0-132 58-132 132s58 132 132 132c74 0 132-58 132-132s-58-132-132-132z" />
<glyph unicode="&#xf142;" glyph-name="account-payment" data-tags="account-payment" d="M952 824h-880c-40 0-72-32-72-72v-608c0-40 32-72 72-72h880c40 0 72 32 72 72v608c0 40-32 72-72 72zM990 144c0-20-18-38-38-38h-880c-20 0-38 18-38 38v608c0 20 18 38 38 38h880c20 0 38-18 38-38zM274 328h-154c-10 0-18-8-18-16 0-10 8-18 18-18h154c8 0 16 8 16 18 0 8-8 16-16 16zM494 328h-152c-10 0-18-8-18-16 0-10 8-18 18-18h152c10 0 18 8 18 18 0 8-8 16-18 16zM136 244h-16c-10 0-18-8-18-18s8-16 18-16h16c10 0 18 6 18 16s-8 18-18 18zM238 244h-34c-8 0-16-8-16-18s8-16 16-16h34c10 0 18 6 18 16s-8 18-18 18zM324 244h-16c-10 0-18-8-18-18s8-16 18-16h16c10 0 18 6 18 16s-8 18-18 18zM426 244h-34c-8 0-16-8-16-18s8-16 16-16h34c10 0 18 6 18 16s-8 18-18 18zM482 238c-2-2-4-8-4-12s2-8 4-12c4-4 8-4 12-4 6 0 10 0 14 4 2 4 4 8 4 12s-2 10-4 12c-8 6-20 6-26 0zM820 396c-22 0-42-6-60-16-18 10-38 16-60 16-66 0-120-52-120-118s54-120 120-120c22 0 42 6 60 16 18-10 38-16 60-16 66 0 118 54 118 120s-52 118-118 118zM786 278c0-24-10-46-26-62-16 16-26 38-26 62s10 44 26 60c16-16 26-36 26-60zM614 278c0 46 38 84 86 84 10 0 20-2 30-6-18-20-30-48-30-78 0-32 12-58 30-80-10-4-20-6-30-6-48 0-86 38-86 86zM820 192c-12 0-22 2-32 6 20 22 32 48 32 80 0 30-12 58-32 78 10 4 20 6 32 6 46 0 84-38 84-84 0-48-38-86-84-86zM140 448h232c20 0 38 18 38 38v162c0 22-18 38-38 38h-232c-20 0-38-16-38-38v-162c0-20 18-38 38-38zM204 550h-68v34h68zM136 486v30h68v-30c0-2 2-2 2-4h-66c-2 0-4 2-4 4zM376 550h-68v30c0 2 2 4 4 4h60c0 0 2 0 4 0zM372 482h-66c0 2 2 2 2 4v30h68v-30c0-2-2-4-4-4zM372 652c2 0 4-2 4-4v-24c0-4-2-6-4-6h-60c-22 0-38-16-38-38v-94c0-2-2-4-6-4h-24c-4 0-6 2-6 4v162c0 2 2 4 6 4zM140 652h66c0 0-2-2-2-4v-30h-68v30c0 2 2 4 4 4z" />
<glyph unicode="&#xf143;" glyph-name="plus" data-tags="plus" d="M576 512v448h-128v-448h-448v-128h448v-448h128v448h448v128z" />
<glyph unicode="&#xf144;" glyph-name="home" data-tags="home-page" horiz-adv-x="997" d="M936.157-64h-339.964v322.852h-186.182v-322.852h-349.091v525.462h-60.92v82.139l500.592 416.399 496.485-416.627v-81.911h-60.92v-525.462zM687.458 27.266h157.433v524.549l-344.528 289.312-348.178-289.768v-524.093h166.56v322.852h368.713v-322.852z" />
<glyph unicode="&#xf145;" glyph-name="blog" data-tags="blog" d="M665 560h-452v-80h452zM213 400v-80h329v80h-329zM386.4 16l-253.4 0.6v862.6l80 0.8h570.8l1.2-360h79.8v440h-811.2l-0.6-1024h333.8v40l-0.4 40zM839.2 453.8l-308.6-307.8-32.4-198 218.4 44.4 290.8 290.4-168.2 171zM667.6 56.4l-70.6-13.4 13.2 69.2 148.2 147.8 56.6-56.6-147.4-147zM879.2 267.8l-7.8-7.8-56.6 56.6 7.8 7.8c15.6 15.6 41 15.6 56.6 0s15.6-41 0-56.6zM665 720h-452v-80h452z" />
<glyph unicode="&#xf146;" glyph-name="shop" data-tags="shop-page" horiz-adv-x="1076" d="M1055.064 669.044l-161.292 290.956h-741.063l-136.906-297.846c-9.977-20.329-15.812-44.245-15.812-69.524 0-30.963 8.754-59.882 23.922-84.415l-0.397 0.69c17.871-29.261 44.153-51.857 75.464-64.707l1.055-0.383v-507.932h344.9v331.567h192.426v-331.567h339.797v507.415c34.11 13.668 61.534 38.037 78.726 68.888l0.403 0.788c12.659 22.154 20.124 48.688 20.124 76.966 0 29.144-7.929 56.436-21.746 79.838l0.4-0.732zM883.096 30.061h-151.674v331.567h-380.549v-331.567h-156.777v406.181c36.331 7.863 67.409 26.646 90.476 52.687l0.152 0.175c30.92-34.773 75.777-56.572 125.726-56.572 50.663 0 96.088 22.427 126.889 57.894l0.175 0.206c30.931-35.663 76.314-58.087 126.934-58.087 51.067 0 96.803 22.82 127.568 58.82l0.193 0.231c23.077-27.018 54.245-46.516 89.73-54.757l1.133-0.222zM974.030 558.522c-10.089-18.661-29.265-31.266-51.438-31.885l-0.084-0.002h-2.587c-0.002 0-0.005 0-0.007 0-39.131 0-71.128 30.547-73.445 69.096l-0.010 0.204c-1.63 28.699-25.3 51.354-54.262 51.354s-52.632-22.655-54.255-51.211l-0.007-0.144c-2.266-38.806-34.289-69.418-73.462-69.418-39.33 0-71.453 30.858-73.478 69.684l-0.008 0.181c-1.503 28.378-24.879 50.82-53.497 50.82s-51.995-22.441-53.492-50.686l-0.006-0.133c-2.085-38.962-34.185-69.766-73.481-69.766-39.544 0-71.801 31.194-73.509 70.317l-0.005 0.154c-1.063 28.058-24.065 50.401-52.286 50.401s-51.223-22.343-52.284-50.304l-0.003-0.097c-1.559-39.288-33.786-70.546-73.314-70.546-0.069 0-0.137 0-0.206 0h-2.552c-22.292 0.686-41.599 12.848-52.28 30.752l-0.159 0.289c-6.173 9.945-9.831 22.011-9.831 34.931 0 10.511 2.422 20.457 6.737 29.31l-0.175-0.397 111.322 244.513h627.531l134.038-243.878c5.469-9.226 8.7-20.336 8.7-32.2 0-11.515-3.044-22.32-8.372-31.652l0.165 0.314z" />
<glyph unicode="&#xf147;" glyph-name="cart-empty" data-tags="cart-empty" d="M861.623 178.834h-532.48l-11.703 45.349h604.16l98.011 425.691-264.777 32.183v-80.457l166.766-19.017-64.366-277.943h-557.349l-64.366 359.863 182.857-21.943v80.457l-196.023 23.406-38.034 213.577h-184.32v-80.457h115.566l130.194-703.634c-27.794-5.851-51.2-19.017-71.68-40.96-19.017-21.943-29.257-48.274-29.257-78.994 0-33.646 11.703-61.44 35.109-84.846s51.2-35.109 84.846-35.109c33.646 0 61.44 11.703 86.309 35.109 23.406 23.406 36.571 51.2 36.571 84.846 0 7.314-1.463 14.629-2.926 20.48-1.463 7.314-2.926 13.166-5.851 19.017h367.177c-1.463-5.851-2.926-13.166-4.389-19.017-1.463-7.314-1.463-13.166-1.463-20.48 0-33.646 11.703-61.44 35.109-84.846s51.2-35.109 84.846-35.109c33.646 0 62.903 11.703 86.309 35.109s35.109 51.2 35.109 84.846c0 33.646-11.703 62.903-35.109 86.309-21.943 24.869-51.2 36.571-84.846 36.571zM294.034 28.16c-7.314-7.314-17.554-11.703-27.794-11.703-11.703 0-20.48 4.389-27.794 11.703s-11.703 17.554-11.703 27.794c0 11.703 4.389 20.48 11.703 27.794s17.554 11.703 27.794 11.703c11.703 0 20.48-4.389 27.794-11.703s11.703-17.554 11.703-27.794c0-10.24-4.389-20.48-11.703-27.794zM889.417 28.16c-7.314-7.314-17.554-11.703-27.794-11.703-11.703 0-20.48 4.389-27.794 11.703s-11.703 17.554-11.703 27.794c0 11.703 4.389 20.48 11.703 27.794s17.554 11.703 27.794 11.703c11.703 0 20.48-4.389 27.794-11.703s11.703-17.554 11.703-27.794c0-10.24-4.389-20.48-11.703-27.794zM377.417 507.977l51.2-51.2 156.526 156.526 157.989-156.526 51.2 51.2-156.526 157.989 156.526 156.526-51.2 51.2-157.989-156.526-156.526 156.526-51.2-51.2 156.526-156.526-156.526-157.989z" />
<glyph unicode="&#xf148;" glyph-name="star" data-tags="star" horiz-adv-x="952" d="M951.786 576.912q0-12.583-14.872-27.456l-207.632-202.484 49.191-285.993q0.572-4.004 0.572-11.44 0-12.012-6.006-20.306t-17.446-8.294q-10.868 0-22.879 6.864l-256.822 134.989-256.822-134.989q-12.583-6.864-22.879-6.864-12.012 0-18.018 8.294t-6.006 20.306q0 3.432 1.144 11.44l49.191 285.993-208.203 202.484q-14.3 15.444-14.3 27.456 0 21.164 32.031 26.312l287.137 41.755 128.697 260.254q10.868 23.452 28.027 23.452t28.027-23.452l128.697-260.254 287.137-41.755q32.031-5.148 32.031-26.312z" />
<glyph unicode="&#xf149;" glyph-name="star-empty" data-tags="star_empty" horiz-adv-x="952" d="M650.349 372.712l175.028 169.88-241.379 35.464-108.106 218.499-108.106-218.499-241.379-35.464 175.028-169.88-41.755-240.806 216.211 113.825 215.64-113.825zM951.786 576.912q0-12.583-14.872-27.456l-207.632-202.484 49.191-285.993q0.572-4.004 0.572-11.44 0-28.599-23.452-28.599-10.868 0-22.879 6.864l-256.822 134.989-256.822-134.989q-12.583-6.864-22.879-6.864-12.012 0-18.018 8.294t-6.006 20.306q0 3.432 1.144 11.44l49.191 285.993-208.203 202.484q-14.3 15.444-14.3 27.456 0 21.164 32.031 26.312l287.137 41.755 128.697 260.254q10.868 23.452 28.027 23.452t28.027-23.452l128.697-260.254 287.137-41.755q32.031-5.148 32.031-26.312z" />
<glyph unicode="&#xf150;" glyph-name="caret-down" data-tags="caret_down" horiz-adv-x="586" d="M585.715 544.308q0-14.872-10.868-25.739l-256.25-256.25q-10.868-10.868-25.739-10.868t-25.739 10.868l-256.25 256.25q-10.868 10.868-10.868 25.739t10.868 25.739 25.739 10.868h512.5q14.872 0 25.739-10.868t10.868-25.739z" />
<glyph unicode="&#xf151;" glyph-name="caret-up" data-tags="caret_up" horiz-adv-x="586" d="M585.715 251.451q0-14.872-10.868-25.739t-25.739-10.868h-512.5q-14.872 0-25.739 10.868t-10.868 25.739 10.868 25.739l256.25 256.25q10.868 10.868 25.739 10.868t25.739-10.868l256.25-256.25q10.868-10.868 10.868-25.739z" />
<glyph unicode="&#xf152;" glyph-name="caret-left" data-tags="caret_left" horiz-adv-x="366" d="M366.071 690.737v-512.5q0-14.872-10.868-25.739t-25.739-10.868-25.739 10.868l-256.25 256.25q-10.868 10.868-10.868 25.739t10.868 25.739l256.25 256.25q10.868 10.868 25.739 10.868t25.739-10.868 10.868-25.739z" />
<glyph unicode="&#xf153;" glyph-name="caret-right" data-tags="caret_right" horiz-adv-x="366" d="M329.465 434.487q0-14.872-10.868-25.739l-256.25-256.25q-10.868-10.868-25.739-10.868t-25.739 10.868-10.868 25.739v512.5q0 14.872 10.868 25.739t25.739 10.868 25.739-10.868l256.25-256.25q10.868-10.868 10.868-25.739z" />
<glyph unicode="&#xf154;" glyph-name="twitter-brands" data-tags="twitter-brands" d="M918.74 656.568c0.65-9.096 0.65-18.194 0.65-27.29 0-277.44-211.166-597.116-597.116-597.116-118.904 0-229.36 34.438-322.274 94.212 16.894-1.948 33.136-2.598 50.68-2.598 98.11 0 188.426 33.136 260.548 89.664-92.264 1.95-169.584 62.376-196.224 145.544 12.996-1.948 25.99-3.248 39.636-3.248 18.842 0 37.686 2.6 55.228 7.146-96.162 19.494-168.286 103.96-168.286 205.97v2.598c27.938-15.594 60.428-25.34 94.862-26.638-56.528 37.686-93.562 102.010-93.562 174.782 0 38.984 10.394 74.72 28.588 105.908 103.31-127.35 258.6-210.516 432.73-219.614-3.248 15.594-5.198 31.836-5.198 48.080 0 115.656 93.564 209.868 209.868 209.868 60.426 0 115.004-25.34 153.34-66.274 47.43 9.096 92.912 26.64 133.198 50.68-15.596-48.732-48.732-89.666-92.264-115.654 42.234 4.546 83.168 16.244 120.852 32.486-28.584-41.582-64.322-78.616-105.256-108.506z" />
<glyph unicode="&#xf155;" glyph-name="github-brands" data-tags="github-brands" horiz-adv-x="992" d="M331.8 165.2c0-4-4.6-7.2-10.4-7.2-6.6-0.6-11.2 2.6-11.2 7.2 0 4 4.6 7.2 10.4 7.2 6 0.6 11.2-2.6 11.2-7.2zM269.6 174.2c-1.4-4 2.6-8.6 8.6-9.8 5.2-2 11.2 0 12.4 4s-2.6 8.6-8.6 10.4c-5.2 1.4-11-0.6-12.4-4.6zM358 177.6c-5.8-1.4-9.8-5.2-9.2-9.8 0.6-4 5.8-6.6 11.8-5.2 5.8 1.4 9.8 5.2 9.2 9.2-0.6 3.8-6 6.4-11.8 5.8zM489.6 944c-277.4 0-489.6-210.6-489.6-488 0-221.8 139.6-411.6 339-478.4 25.6-4.6 34.6 11.2 34.6 24.2 0 12.4-0.6 80.8-0.6 122.8 0 0-140-30-169.4 59.6 0 0-22.8 58.2-55.6 73.2 0 0-45.8 31.4 3.2 30.8 0 0 49.8-4 77.2-51.6 43.8-77.2 117.2-55 145.8-41.8 4.6 32 17.6 54.2 32 67.4-111.8 12.4-224.6 28.6-224.6 221 0 55 15.2 82.6 47.2 117.8-5.2 13-22.2 66.6 5.2 135.8 41.8 13 138-54 138-54 40 11.2 83 17 125.6 17s85.6-5.8 125.6-17c0 0 96.2 67.2 138 54 27.4-69.4 10.4-122.8 5.2-135.8 32-35.4 51.6-63 51.6-117.8 0-193-117.8-208.4-229.6-221 18.4-15.8 34-45.8 34-92.8 0-67.4-0.6-150.8-0.6-167.2 0-13 9.2-28.8 34.6-24.2 200 66.4 335.6 256.2 335.6 478 0 277.4-225 488-502.4 488zM194.4 254.2c-2.6-2-2-6.6 1.4-10.4 3.2-3.2 7.8-4.6 10.4-2 2.6 2 2 6.6-1.4 10.4-3.2 3.2-7.8 4.6-10.4 2zM172.8 270.4c-1.4-2.6 0.6-5.8 4.6-7.8 3.2-2 7.2-1.4 8.6 1.4 1.4 2.6-0.6 5.8-4.6 7.8-4 1.2-7.2 0.6-8.6-1.4zM237.6 199.2c-3.2-2.6-2-8.6 2.6-12.4 4.6-4.6 10.4-5.2 13-2 2.6 2.6 1.4 8.6-2.6 12.4-4.4 4.6-10.4 5.2-13 2zM214.8 228.6c-3.2-2-3.2-7.2 0-11.8s8.6-6.6 11.2-4.6c3.2 2.6 3.2 7.8 0 12.4-2.8 4.6-8 6.6-11.2 4z" />
<glyph unicode="&#xf156;" glyph-name="pinterest-brands" data-tags="pinterest-brands" horiz-adv-x="992" d="M992 448c0-274-222-496-496-496-51.2 0-100.4 7.8-146.8 22.2 20.2 33 50.4 87 61.6 130 6 23.2 30.8 118 30.8 118 16.2-30.8 63.4-57 113.6-57 149.6 0 257.4 137.6 257.4 308.6 0 163.8-133.8 286.4-305.8 286.4-214 0-327.8-143.6-327.8-300.2 0-72.8 38.8-163.4 100.6-192.2 9.4-4.4 14.4-2.4 16.6 6.6 1.6 6.8 10 40.6 13.8 56.2 1.2 5 0.6 9.4-3.4 14.2-20.2 25-36.6 70.6-36.6 113.2 0 109.4 82.8 215.2 224 215.2 121.8 0 207.2-83 207.2-201.8 0-134.2-67.8-227.2-156-227.2-48.6 0-85.2 40.2-73.4 89.6 14 59 41 122.6 41 165.2 0 38-20.4 69.8-62.8 69.8-49.8 0-89.8-51.4-89.8-120.4 0-44 14.8-73.6 14.8-73.6s-49-207.6-58-246.4c-10-42.8-6-103.2-1.8-142.4-184.4 72.2-315.2 251.8-315.2 462 0 274 222 496 496 496s496-222 496-496z" />
<glyph unicode="&#xf157;" glyph-name="envelope-solid" data-tags="env" d="M1004.6 578.4c7.8 6.2 19.4 0.4 19.4-9.4v-409c0-53-43-96-96-96h-832c-53 0-96 43-96 96v408.8c0 10 11.4 15.6 19.4 9.4 44.8-34.8 104.2-79 308.2-227.2 42.2-30.8 113.4-95.6 184.4-95.2 71.4-0.6 144 65.6 184.6 95.2 204 148.2 263.2 192.6 308 227.4zM512 320c46.4-0.8 113.2 58.4 146.8 82.8 265.4 192.6 285.6 209.4 346.8 257.4 11.6 9 18.4 23 18.4 37.8v38c0 53-43 96-96 96h-832c-53 0-96-43-96-96v-38c0-14.8 6.8-28.6 18.4-37.8 61.2-47.8 81.4-64.8 346.8-257.4 33.6-24.4 100.4-83.6 146.8-82.8z" />
<glyph unicode="&#xf158;" glyph-name="linkedin-brands" data-tags="linkedin-in-brands" horiz-adv-x="896" d="M200.56 64h-185.76v598.2h185.76zM107.58 743.8c-59.4 0-107.58 49.2-107.58 108.6 0 59.415 48.165 107.58 107.58 107.58s107.58-48.165 107.58-107.58v0c0-59.4-48.2-108.6-107.58-108.6zM895.8 64h-185.36v291.2c0 69.4-1.4 158.4-96.58 158.4-96.58 0-111.38-75.4-111.38-153.4v-296.2h-185.56v598.2h178.16v-81.6h2.6c24.8 47 85.38 96.6 175.76 96.6 188 0 222.56-123.8 222.56-284.6v-328.6z" />
<glyph unicode="&#xf159;" glyph-name="mobile-alt-solid" data-tags="mobile-alt-solid" horiz-adv-x="640" d="M544 960h-448c-53 0-96-43-96-96v-832c0-53 43-96 96-96h448c53 0 96 43 96 96v832c0 53-43 96-96 96zM320 0c-35.4 0-64 28.6-64 64s28.6 64 64 64 64-28.6 64-64-28.6-64-64-64zM544 216c0-13.2-10.8-24-24-24h-400c-13.2 0-24 10.8-24 24v624c0 13.2 10.8 24 24 24h400c13.2 0 24-10.8 24-24v-624z" />
<glyph unicode="&#xf15a;" glyph-name="menu" data-tags="menu" horiz-adv-x="704" d="M0 730h704v-90h-704v90zM0 500h704v-90h-704v90zM0 270h704v-90h-704v90z" />
<glyph unicode="&#xf15b;" glyph-name="menu-active" data-tags="menu-active" horiz-adv-x="704" d="M0 730h550v-90h-550v90zM0 500h704v-90h-704v90zM0 270h450v-90h-450v90z" />
<glyph unicode="&#xf15c;" glyph-name="menu-filters" data-tags="menu-filters" horiz-adv-x="704" d="M0 685c0-57.99 47.010-105 105-105 41.886 0 78.044 24.526 94.896 60h504.104v90h-504.104c-16.852 35.474-53.010 60-94.896 60-57.99 0-105-47.010-105-105zM105 625c-33.137 0-60 26.863-60 60s26.863 60 60 60c33.137 0 60-26.863 60-60s-26.863-60-60-60zM0 500h257.104c16.852 35.474 53.010 60 94.896 60s78.044-24.526 94.896-60h257.104v-90h-257.104c-16.852-35.474-53.010-60-94.896-60s-78.044 24.526-94.896 60h-257.104v90zM292 455c0-33.137 26.863-60 60-60s60 26.863 60 60c0 33.137-26.863 60-60 60s-60-26.863-60-60zM504.104 180c16.852-35.474 53.010-60 94.896-60 57.99 0 105 47.010 105 105s-47.010 105-105 105c-41.886 0-78.044-24.526-94.896-60h-504.104v-90h504.104zM599 165c-33.137 0-60 26.863-60 60s26.863 60 60 60c33.137 0 60-26.863 60-60s-26.863-60-60-60z" />
<glyph unicode="&#xf160;" glyph-name="location-arrow-solid" data-tags="location-arrow-solid" d="M889.040 952.96l-831.56-383.8c-95.94-44.78-63.96-185.5 38.38-185.5h351.82v-351.82c0-102.34 140.72-134.34 185.5-38.38l383.8 831.56c31.98 76.78-51.18 159.94-127.94 127.94z" />
<glyph unicode="&#xf162;" glyph-name="youtube-brands" data-tags="youtube-brands" horiz-adv-x="1152" d="M1099.31 711.834c-12.562 47.3-49.574 84.552-96.568 97.194-85.18 22.972-426.742 22.972-426.742 22.972s-341.56 0-426.742-22.972c-46.994-12.644-84.006-49.894-96.568-97.194-22.824-85.734-22.824-264.61-22.824-264.61s0-178.876 22.824-264.61c12.562-47.3 49.574-83 96.568-95.642 85.182-22.972 426.742-22.972 426.742-22.972s341.56 0 426.742 22.972c46.994 12.642 84.006 48.342 96.568 95.642 22.824 85.734 22.824 264.61 22.824 264.61s0 178.876-22.824 264.61zM464.29 284.818v324.812l285.478-162.41-285.478-162.402z" />
<glyph unicode="&#xf163;" glyph-name="instagram-brands" data-tags="instagram-brands" horiz-adv-x="896" d="M448.2 678c-127.2 0-229.8-102.6-229.8-229.8s102.6-229.8 229.8-229.8 229.8 102.6 229.8 229.8-102.6 229.8-229.8 229.8zM448.2 298.8c-82.2 0-149.4 67-149.4 149.4s67 149.4 149.4 149.4 149.4-67 149.4-149.4-67.2-149.4-149.4-149.4zM741 687.4c0-29.8-24-53.6-53.6-53.6-29.8 0-53.6 24-53.6 53.6s24 53.6 53.6 53.6 53.6-24 53.6-53.6zM893.2 633c-3.4 71.8-19.8 135.4-72.4 187.8-52.4 52.4-116 68.8-187.8 72.4-74 4.2-295.8 4.2-369.8 0-71.6-3.4-135.2-19.8-187.8-72.2s-68.8-116-72.4-187.8c-4.2-74-4.2-295.8 0-369.8 3.4-71.8 19.8-135.4 72.4-187.8s116-68.8 187.8-72.4c74-4.2 295.8-4.2 369.8 0 71.8 3.4 135.4 19.8 187.8 72.4 52.4 52.4 68.8 116 72.4 187.8 4.2 74 4.2 295.6 0 369.6zM797.6 184c-15.6-39.2-45.8-69.4-85.2-85.2-59-23.4-199-18-264.2-18s-205.4-5.2-264.2 18c-39.2 15.6-69.4 45.8-85.2 85.2-23.4 59-18 199-18 264.2s-5.2 205.4 18 264.2c15.6 39.2 45.8 69.4 85.2 85.2 59 23.4 199 18 264.2 18s205.4 5.2 264.2-18c39.2-15.6 69.4-45.8 85.2-85.2 23.4-59 18-199 18-264.2s5.4-205.4-18-264.2z" />
<glyph unicode="&#xf164;" glyph-name="flickr-brands" data-tags="flickr-brands" horiz-adv-x="896" d="M800 896h-704c-53 0-96-43-96-96v-704c0-53 43-96 96-96h704c53 0 96 43 96 96v704c0 53-43 96-96 96zM289 322c-70.2 0-127 56.8-127 127s56.8 127 127 127 127-56.8 127-127-56.8-127-127-127zM607 322c-70.2 0-127 56.8-127 127s56.8 127 127 127 127-56.8 127-127-56.8-127-127-127z" />
<glyph unicode="&#xf165;" glyph-name="tumblr-brands" data-tags="tumblr-brands" horiz-adv-x="640" d="M619.6-0.6c-27.2-29-100-63.4-194.8-63.4-241.6 0-294 177.6-294 281.2v288h-95c-11 0-20 9-20 20v136c0 14.4 9 27.2 22.6 32 124 43.6 163 152 168.6 234.2 1.6 22 13 32.6 32.2 32.6h141.8c11 0 20-9 20-20v-230.4h166c11 0 20-8.8 20-19.8v-163.4c0-11-9-20-20-20h-166.8v-266.4c0-68.4 47.4-107.2 136-71.6 9.6 3.8 18 6.4 25.4 4.4 7-1.8 11.6-6.8 14.8-15.8l44-128.6c3.6-10 6.6-21.2-0.8-29z" />
<glyph unicode="&#xf166;" glyph-name="dribbble-brands" data-tags="dribbble-brands" d="M512 944c-273.496 0-496-222.504-496-496s222.504-496 496-496 496 222.504 496 496-222.504 496-496 496zM839.94 715.268c59.006-72.092 94.738-163.914 95.67-263.91-13.968 2.954-154.036 31.364-295.004 13.636-11.504 28.082-22.362 52.786-37.234 83.228 156.642 63.954 227.636 154.964 236.568 167.046zM792.842 764.26c-7.62-10.854-71.394-96.572-222.042-153.038-69.424 127.552-146.37 232.336-158.080 248.016 134.352 32.386 275.932-2.54 380.122-94.978zM331.882 830.76c11.17-15.318 86.876-120.232 157.074-245.018-198.174-52.626-372.72-51.868-391.668-51.618 27.472 131.466 116.068 240.73 234.594 296.636zM88.34 447.354c0 4.332 0.086 8.644 0.216 12.946 18.536-0.38 223.84-3.026 435.412 60.292 12.128-23.736 23.714-47.83 34.348-71.898-153.198-43.15-292.388-167.054-361.062-284.612-67.666 75.108-108.914 174.458-108.914 283.272zM251.954 113.128c44.254 90.466 164.356 207.244 335.158 265.512 59.48-154.566 84.078-284.106 90.378-321.276-136.224-58.026-300.030-42.106-425.536 55.764zM748.714 96.15c-4.342 25.772-26.892 149.794-82.304 302.066 132.76 21.252 249.4-13.536 263.894-18.11-18.884-117.882-86.546-219.688-181.59-283.956z" />
<glyph unicode="&#xf167;" glyph-name="skype-brands" data-tags="skype-brands" horiz-adv-x="896" d="M849.4 360.4c5.8 28 9.4 57.8 9.4 87.6 0 227-183.8 410.6-410.6 410.6-29.8 0-59.4-3.4-87.6-9.4-38 29.4-85.2 46.8-136.6 46.8-123.6 0-224-100.4-224-224 0-51.4 17.4-98.6 46.6-136.4-5.8-28-9.4-57.8-9.4-87.6 0-227 183.8-410.6 410.6-410.6 29.8 0 59.4 3.4 87.6 9.4 38-29.2 85.2-46.6 136.4-46.6 123.6 0 224 100.4 224 224 0.2 51.2-17.2 98.4-46.4 136.2zM460.2 177.4c-131.2 0-241 58.4-241 130 0 32 18 61.2 59 61.2 62.4 0 68.2-89.8 176.2-89.8 51.4 0 84.6 22.8 84.6 52.6 0 37.4-32 43.2-84 56-125 30.8-235.6 44-235.6 174.4 0 118.4 117.2 162.2 218.2 162.2 110.2 0 221.6-43.8 221.6-110.8 0-33.8-22.8-63.6-60.6-63.6-56.6 0-58.4 67-150 67-51.4 0-84-14-84-45 0-39.6 41.6-43.6 138.2-66 82.8-18.6 181.4-53.6 181.4-155.2 0-118.2-114.2-173-224-173z" />
<glyph unicode="&#xf168;" glyph-name="vk-brands" data-tags="vk-brands" horiz-adv-x="1152" d="M1090 724.6c7.4 25 0 43.4-35.6 43.4h-117.8c-30 0-43.8-15.8-51.2-33.4 0 0-60-146.2-144.8-241-27.4-27.4-40-36.2-55-36.2-7.4 0-18.8 8.8-18.8 33.8v233.4c0 30-8.4 43.4-33.2 43.4h-185.2c-18.8 0-30-14-30-27 0-28.4 42.4-35 46.8-115v-173.6c0-38-6.8-45-21.8-45-40 0-137.2 146.8-194.8 314.8-11.6 32.6-23 45.8-53.2 45.8h-117.8c-33.6 0-40.4-15.8-40.4-33.4 0-31.2 40-186.2 186.2-391 97.4-139.8 234.6-215.6 359.4-215.6 75 0 84.2 16.8 84.2 45.8 0 133.6-6.8 146.2 30.8 146.2 17.4 0 47.4-8.8 117.4-76.2 80-80 93.2-115.8 138-115.8h117.8c33.6 0 50.6 16.8 40.8 50-22.4 69.8-173.8 213.4-180.6 223-17.4 22.4-12.4 32.4 0 52.4 0.2 0.2 144 202.6 158.8 271.2z" />
<glyph unicode="&#xf169;" glyph-name="google-brands" data-tags="google-brands" horiz-adv-x="976" d="M976 436.4c0-283-193.8-484.4-480-484.4-274.4 0-496 221.6-496 496s221.6 496 496 496c133.6 0 246-49 332.6-129.8l-135-129.8c-176.6 170.4-505 42.4-505-236.4 0-173 138.2-313.2 307.4-313.2 196.4 0 270 140.8 281.6 213.8h-281.6v170.6h472.2c4.6-25.4 7.8-49.8 7.8-82.8z" />
<glyph unicode="&#xf170;" glyph-name="behance-brands" data-tags="behance-brands" horiz-adv-x="1152" d="M464 485.6c63.6 30.4 96.8 76.4 96.8 148 0 141.2-105.2 175.6-226.6 175.6h-334.2v-708.8h343.6c128.8 0 249.8 61.8 249.8 205.8 0 89-42.2 154.8-129.4 179.4zM155.8 688.2h146.2c56.2 0 106.8-15.8 106.8-81 0-60.2-39.4-84.4-95-84.4h-158v165.4zM322.4 220.8h-166.6v195.2h169.8c68.6 0 112-28.6 112-101.2 0-71.6-51.8-94-115.2-94zM1039.4 702.2h-287.4v69.8h287.4v-69.8zM1152 349.6c0 151.8-88.8 278.4-249.8 278.4-156.4 0-262.6-117.6-262.6-271.6 0-159.8 100.6-269.4 262.6-269.4 122.6 0 202 55.2 240.2 172.6h-124.4c-13.4-43.8-68.6-67-111.4-67-82.6 0-126 48.4-126 130.6h370.2c0.6 8.4 1.2 17.4 1.2 26.4zM780.8 412c4.6 67.4 49.4 109.6 117 109.6 70.8 0 106.4-41.6 112.4-109.6h-229.4z" />
<glyph unicode="&#xf171;" glyph-name="spotify-brands" data-tags="spotify-brands" horiz-adv-x="992" d="M496 944c-273.8 0-496-222.2-496-496s222.2-496 496-496 496 222.2 496 496-222.2 496-496 496zM697.4 214.2c-8.4 0-13.6 2.6-21.4 7.2-124.8 75.2-270 78.4-413.4 49-7.8-2-18-5.2-23.8-5.2-19.4 0-31.6 15.4-31.6 31.6 0 20.6 12.2 30.4 27.2 33.6 163.8 36.2 331.2 33 474-52.4 12.2-7.8 19.4-14.8 19.4-33s-14.2-30.8-30.4-30.8zM751.2 345.4c-10.4 0-17.4 4.6-24.6 8.4-125 74-311.4 103.8-477.2 58.8-9.6-2.6-14.8-5.2-23.8-5.2-21.4 0-38.8 17.4-38.8 38.8s10.4 35.6 31 41.4c55.6 15.6 112.4 27.2 195.6 27.2 129.8 0 255.2-32.2 354-91 16.2-9.6 22.6-22 22.6-39.4-0.2-21.6-17-39-38.8-39zM813.2 497.8c-10.4 0-16.8 2.6-25.8 7.8-142.4 85-397 105.4-561.8 59.4-7.2-2-16.2-5.2-25.8-5.2-26.4 0-46.6 20.6-46.6 47.2 0 27.2 16.8 42.6 34.8 47.8 70.4 20.6 149.2 30.4 235 30.4 146 0 299-30.4 410.8-95.6 15.6-9 25.8-21.4 25.8-45.2 0-27.2-22-46.6-46.4-46.6z" />
<glyph unicode="&#xf172;" glyph-name="soundcloud-brands" data-tags="soundcloud-brands" horiz-adv-x="1280" d="M222.8 447.4l11.6-130-11.6-136.6c-0.6-5-4.4-8.8-8.8-8.8s-8.4 3.8-8.4 8.8l-11.2 136.6 11.2 130c0 4.4 3.8 8.4 8.4 8.4 4.4 0 8.2-4 8.8-8.4zM265.6 538.6c-5.6 0-9.4-4.4-10-10l-10-211.2 10-136.6c0.6-5.6 4.4-10 10-10 5 0 9.4 4.4 9.4 10l11.6 136.6-11.6 211.2c0 5.6-4.4 10-9.4 10zM316.6 586.8c-6.2 0-10.6-4.4-11.2-10.6l-8.8-260 8.8-135.6c0.6-6.2 5-10.6 11.2-10.6 5.6 0 10.6 4.4 10.6 10.6l10.6 135.6-10.6 260c0 6.2-5 10.6-10.6 10.6zM14.4 393.6c-2.8 0-4.4-2.2-5-5l-9.4-71.2 9.4-70c0.6-2.8 2.2-5 5-5s4.4 2.2 5 5l11.2 70-11.2 71.2c-0.6 2.8-2.2 5-5 5zM61.6 437.4c-2.8 0-5-2.2-5-5l-12.8-115 12.8-112.2c0-3.4 2.2-5.6 5-5.6s5 2.2 5.6 5l14.4 112.8-14.4 115c-0.6 2.8-2.8 5-5.6 5zM112.2 460.2c-3.4 0-6.2-2.8-6.6-6.6l-11.6-136.2 11.6-131.6c0.6-3.4 3.4-6.2 6.6-6.2 3.4 0 6.2 2.8 6.2 6.2l13.8 131.6-13.8 136.2c0 3.8-2.8 6.6-6.2 6.6zM162.8 464.6c-3.8 0-7.2-2.8-7.2-7.2l-11.6-140 11.6-135.6c0-4.4 3.4-7.2 7.2-7.2s7.2 2.8 7.8 7.2l12.8 135.6-12.8 140c-0.6 4.4-4 7.2-7.8 7.2zM645.6 686.4c-2.2 1.6-5.6 2.8-8.4 2.8-4.4 0-8.4-1.6-11.2-3.8-3.8-3.4-6.2-8.4-6.6-13.4v-1.6l-6.6-353.4 3.4-65 3.4-63.4c0.6-9.4 8.4-17.2 17.8-17.2s17.2 7.8 17.2 17.2l7.8 128.4-7.8 355c-0.8 6-4 11.6-9 14.4zM592.2 655.8c-2.8 1.6-5.6 2.8-8.8 2.8s-6.2-1.2-8.8-2.8c-4.4-2.8-7.2-7.8-7.2-13.4l-0.6-3.4-5.6-321.6s0-0.6 6.2-131.2v-0.6c0-3.4 1.2-6.6 3.4-9.4 3.4-3.8 7.8-6.2 12.8-6.2 4.4 0 8.4 2.2 11.2 5 3.4 2.8 5 6.6 5 11.2l0.6 13.4 6.2 117.2-6.6 325.6c-0.6 5.6-3.4 10.6-7.8 13.4zM369.4 610.8c-6.2 0-11.6-5.6-11.6-12.2l-8.8-281.2 8.8-134.4c0.6-6.6 5.6-11.6 11.6-11.6 6.6 0 11.6 5 12.2 11.6l10 134.4-10 281.2c-0.4 6.6-5.4 12.2-12.2 12.2zM1122.8 485.2c-21.6 0-42.2-4.4-61.2-12.2-12.8 141.6-131.6 252.8-276.6 252.8-35.6 0-70-6.6-100.6-18.8-12.2-4.4-15.6-8.8-15.6-18.4v-499.4c0-10 7.8-17.2 17.2-18.4h436.6c86.6 0 157.2 70 157.2 156.6 0.2 87.2-70.4 157.8-157 157.8zM529.4 605.8c-8.4 0-15-6.6-15.6-15.6l-6.6-273.4 6.6-131.2c0.6-8.4 7.2-15 15.6-15s15 6.6 15 15l7.8 131.2-7.8 273.4c-0.6 9-6.6 15.6-15 15.6zM422.2 621.4c-6.6 0-12.8-6.2-12.8-13.4l-7.8-290.6 7.8-133.8c0.6-7.2 6.2-12.8 12.8-12.8 7.2 0 12.8 5.6 13.4 12.8l8.8 133.8-8.8 290.6c-0.6 7.2-6.2 13.4-13.4 13.4zM475.6 614.6c-7.8 0-13.8-6.2-13.8-13.8l-7.8-283.4 7.8-132.8c0.6-7.8 6.2-13.8 13.8-13.8s13.8 6.2 13.8 13.8l8.4 132.8-8.4 283.4c0 7.8-6 13.8-13.8 13.8z" />
<glyph unicode="&#xf173;" glyph-name="copyright-regular" data-tags="copyright-regular" d="M512 944c-273.934 0-496-222.066-496-496s222.066-496 496-496 496 222.066 496 496-222.066 496-496 496zM512 48c-221.064 0-400 178.902-400 400 0 221.062 178.902 400 400 400 221.064 0 400-178.902 400-400 0-221.064-178.902-400-400-400zM726.702 250.128c-19.228-19.424-91.060-82.792-208.13-82.792-164.86 0-280.968 122.85-280.968 283.134 0 158.304 120.55 278.802 279.524 278.802 111.062 0 177.476-53.24 195.186-69.558 4.76-4.388 7.731-10.654 7.731-17.613 0-4.845-1.44-9.353-3.915-13.121l0.056 0.091-36.31-56.226c-7.682-11.9-23.932-14.564-34.998-5.842-17.19 13.552-63.628 45.076-123.416 45.076-96.606 0-155.832-70.66-155.832-160.164 0-83.178 53.776-167.384 156.554-167.384 65.314 0 113.686 38.078 131.452 54.45 10.54 9.714 27.192 8.078 35.64-3.476l39.73-54.34c2.91-3.913 4.659-8.84 4.659-14.176 0-6.581-2.66-12.54-6.964-16.861l0.001 0.001z" />
<glyph unicode="&#xf174;" glyph-name="facebook-square-brands" data-tags="facebook-square-brands" horiz-adv-x="896" d="M800 896h-704c-53.019 0-96-42.981-96-96v0-704c0-53.019 42.981-96 96-96v0h274.5v304.62h-126v143.38h126v109.28c0 124.3 74 192.96 187.34 192.96 54.28 0 111.040-9.68 111.040-9.68v-122h-62.54c-61.62 0-80.84-38.24-80.84-77.46v-93.1h137.56l-22-143.38h-115.56v-304.62h274.5c53.019 0 96 42.981 96 96v0 704c0 53.019-42.981 96-96 96v0z" />
<glyph unicode="&#xf175;" glyph-name="whatsapp-brands" data-tags="whatsapp-brands" horiz-adv-x="896" d="M761.8 765.8c-83.8 84-195.4 130.2-314 130.2-244.8 0-444-199.2-444-444 0-78.2 20.4-154.6 59.2-222l-63-230 235.4 61.8c64.8-35.4 137.8-54 212.2-54h0.2c244.6 0 448.2 199.2 448.2 444 0 118.6-50.4 230-134.2 314zM447.8 82.6c-66.4 0-131.4 17.8-188 51.4l-13.4 8-139.6-36.6 37.2 136.2-8.8 14c-37 58.8-56.4 126.6-56.4 196.4 0 203.4 165.6 369 369.2 369 98.6 0 191.2-38.4 260.8-108.2s112.4-162.4 112.2-261c0-203.6-169.8-369.2-373.2-369.2zM650.2 359c-11 5.6-65.6 32.4-75.8 36-10.2 3.8-17.6 5.6-25-5.6s-28.6-36-35.2-43.6c-6.4-7.4-13-8.4-24-2.8-65.2 32.6-108 58.2-151 132-11.4 19.6 11.4 18.2 32.6 60.6 3.6 7.4 1.8 13.8-1 19.4s-25 60.2-34.2 82.4c-9 21.6-18.2 18.6-25 19-6.4 0.4-13.8 0.4-21.2 0.4s-19.4-2.8-29.6-13.8c-10.2-11.2-38.8-38-38.8-92.6s39.8-107.4 45.2-114.8c5.6-7.4 78.2-119.4 189.6-167.6 70.4-30.4 98-33 133.2-27.8 21.4 3.2 65.6 26.8 74.8 52.8s9.2 48.2 6.4 52.8c-2.6 5-10 7.8-21 13.2z" />
<glyph unicode="&#xf176;" glyph-name="odnoklassniki-brands" data-tags="odnoklassniki-brands" horiz-adv-x="640" d="M550.2 292c-54.8-34.8-130.2-48.6-180-53.8l41.8-41.2 152.6-152.6c55.8-57.2-35-146.6-91.4-91.4-38.2 38.8-94.2 94.8-152.6 153.2l-152.6-153c-56.4-55-147.2 35.2-90.8 91.4 38.8 38.8 94.2 94.8 152.6 152.6l41.2 41.2c-49.2 5.2-125.8 18.2-181.2 53.8-65.2 42-93.8 66.6-68.6 118 14.8 29.2 55.4 53.8 109.2 11.4 0 0 72.6-57.8 189.8-57.8s189.8 57.8 189.8 57.8c53.8 42.2 94.2 17.8 109.2-11.4 24.8-51.4-3.8-76-69-118.2zM60.6 700.6c0 143.4 116.6 259.4 259.4 259.4s259.4-116 259.4-259.4c0-142.8-116.6-258.8-259.4-258.8s-259.4 116-259.4 258.8zM192.6 700.6c0-70.2 57.2-127.4 127.4-127.4s127.4 57.2 127.4 127.4c0 70.8-57.2 128-127.4 128s-127.4-57.2-127.4-128z" />
<glyph unicode="&#xf177;" glyph-name="vimeo-v-brands" data-tags="vimeo-v-brands" horiz-adv-x="896" d="M895.6 652.8c-4-87.2-64.8-206.6-182.8-358.2-121.8-158.4-224.8-237.6-309.2-237.6-52.2 0-96.4 48.2-132.6 144.6-70.4 258.4-100.4 409.8-158.6 409.8-6.8 0-30.2-14.2-70.4-42.2l-42 54.4c103.2 90.6 201.8 191.4 263.6 197 69.8 6.8 112.6-41 128.8-143 57.4-363 82.8-417.8 187.2-253.4 37.4 59.2 57.6 104.2 60.4 135.2 9.6 91.8-71.6 85.6-126.6 62 44 144.2 128.2 214.2 252.4 210.2 91.6-2.4 135-62.2 129.8-178.8z" />
<glyph unicode="&#xf178;" glyph-name="snapchat-ghost-brands" data-tags="snapchat-ghost-brands" d="M1021.692 174.654c-10.422-24.314-54.478-42.178-134.72-54.636-4.128-5.572-7.55-29.372-13.014-47.912-3.25-11.132-11.246-17.738-24.256-17.738l-0.594 0.010c-18.79 0-38.406 8.646-77.704 8.646-53.042 0-71.324-12.086-112.508-41.176-43.664-30.876-85.542-57.528-148.054-54.798-63.292-4.668-116.050 33.816-145.742 54.808-41.428 29.286-59.656 41.164-112.482 41.164-37.728 0-61.472-9.44-77.704-9.44-16.146 0-22.426 9.844-24.844 18.080-5.406 18.378-8.808 42.526-13.046 48.26-41.358 6.418-134.62 22.688-136.996 64.3-0.020 0.349-0.032 0.758-0.032 1.169 0 10.514 7.634 19.244 17.661 20.952l0.126 0.018c139.166 22.91 201.848 165.802 204.454 171.868 0.148 0.352 0.31 0.688 0.474 1.030 7.426 15.074 9.088 27.698 4.926 37.506-10.1 23.792-53.744 32.328-72.106 39.592-47.43 18.732-54.030 40.256-51.224 55.008 4.874 25.672 43.45 41.47 66.004 30.906 17.838-8.362 33.686-12.594 47.094-12.594 10.044 0 16.424 2.408 19.92 4.342-4.086 71.872-14.202 174.58 11.374 231.938 67.546 151.436 210.712 163.204 252.954 163.204 1.888 0 18.282 0.178 20.22 0.178 104.296 0 204.508-53.56 253.446-163.286 25.554-57.3 15.498-159.584 11.39-232.018 3.164-1.744 8.714-3.884 17.198-4.278 12.794 0.572 27.63 4.778 44.138 12.514 12.17 5.692 28.812 4.922 40.96-0.116l0.058-0.020c18.952-6.77 30.878-20.43 31.178-35.74 0.368-19.494-17.044-36.33-51.756-50.036-4.236-1.67-9.388-3.31-14.868-5.050-19.594-6.212-49.2-15.61-57.232-34.542-4.158-9.808-2.512-22.422 4.92-37.496 0.174-0.336 0.332-0.684 0.478-1.030 2.602-6.060 65.23-148.92 204.46-171.868 12.854-2.116 22.326-15.754 15.45-31.718z" />
<glyph unicode="&#xf179;" glyph-name="telegram-brands" data-tags="telegram-brands" horiz-adv-x="992" d="M496 944c-274 0-496-222-496-496s222-496 496-496 496 222 496 496-222 496-496 496zM739.6 604.2l-81.4-383.6c-6-27.2-22.2-33.8-44.8-21l-124 91.4-59.8-57.6c-6.6-6.6-12.2-12.2-25-12.2l8.8 126.2 229.8 207.6c10 8.8-2.2 13.8-15.4 5l-284-178.8-122.4 38.2c-26.6 8.4-27.2 26.6 5.6 39.4l478.2 184.4c22.2 8 41.6-5.4 34.4-39z" />
<glyph unicode="&#xf180;" glyph-name="facebook-f-brands" data-tags="facebook-f-brands" horiz-adv-x="640" d="M558.28 384l28.44 185.32h-177.82v120.26c0 50.7 24.84 100.12 104.48 100.12h80.84v157.78s-73.36 12.52-143.5 12.52c-146.44 0-242.16-88.76-242.16-249.44v-141.24h-162.78v-185.32h162.78v-448h200.34v448z" />
<glyph unicode="&#xf181;" glyph-name="viber-brands" data-tags="viber-brands" d="M888 860.2c-25.4 23.4-128.2 98-357.4 99 0 0-270.2 16.2-401.8-104.6-73.2-73.2-99-180.6-101.8-313.6s-6.2-382.2 234-449.8h0.2l-0.2-103.2s-1.6-41.8 26-50.2c33.2-10.4 52.8 21.4 84.6 55.6 17.4 18.8 41.4 46.4 59.6 67.4 164.4-13.8 290.6 17.8 305 22.4 33.2 10.8 221 34.8 251.4 284 31.6 257.2-15.2 419.6-99.6 493zM915.8 386c-25.8-208-178-221.2-206-230.2-12-3.8-123-31.4-262.4-22.4 0 0-104-125.4-136.4-158-10.6-10.6-22.2-9.6-22 11.4 0 13.8 0.8 171.4 0.8 171.4-0.2 0-0.2 0 0 0-203.6 56.4-191.6 268.6-189.4 379.6s23.2 202 85.2 263.2c111.4 101 340.8 86 340.8 86 193.8-0.8 286.6-59.2 308.2-78.8 71.4-61.2 107.8-207.6 81.2-422.2zM637.8 547.6c0.8-17.2-25-18.4-25.8-1.2-2.2 44-22.8 65.4-65.2 67.8-17.2 1-15.6 26.8 1.4 25.8 55.8-3 86.8-35 89.6-92.4zM678.4 525c2 84.8-51 151.2-151.6 158.6-17 1.2-15.2 27 1.8 25.8 116-8.4 177.8-88.2 175.6-185-0.2-17.2-26.2-16.4-25.8 0.6zM772.4 498.2c0.2-17.2-25.8-17.4-25.8-0.2-1.2 163-109.8 251.8-241.6 252.8-17 0.2-17 25.8 0 25.8 147.4-1 266-102.8 267.4-278.4zM749.8 302v-0.4c-21.6-38-62-80-103.6-66.6l-0.4 0.6c-42.2 11.8-141.6 63-204.4 113-32.4 25.6-62 55.8-84.8 84.8-20.6 25.8-41.4 56.4-61.6 93.2-42.6 77-52 111.4-52 111.4-13.4 41.6 28.4 82 66.6 103.6h0.4c18.4 9.6 36 6.4 47.8-7.8 0 0 24.8-29.6 35.4-44.2 10-13.6 23.4-35.4 30.4-47.6 12.2-21.8 4.6-44-7.4-53.2l-24-19.2c-12.2-9.8-10.6-28-10.6-28s35.6-134.6 168.6-168.6c0 0 18.2-1.6 28 10.6l19.2 24c9.2 12 31.4 19.6 53.2 7.4 29.4-16.6 66.8-42.4 91.6-65.8 14-11.4 17.2-28.8 7.6-47.2z" />
</font>
</defs>
</svg>
