<svg xmlns="http://www.w3.org/2000/svg" version="1.1" width="100%" height="6vw" viewBox="0 0 100 100" preserveAspectRatio="none">
  <path class="elementor-shape-fill" d="M5,0C1.7,53.3-1.7,53.3-5,0H5z M10,0C6.7,66.7,3.3,66.7,0,0 M15,0C11.7,46.7,8.3,46.7,5,0 M20,0
	c-3.3,60-6.7,60-10,0 M25,0c-3.3,46.7-6.7,46.7-10,0 M30,0c-3.3,73.3-6.7,73.3-10,0 M35,0c-3.3,60-6.7,60-10,0 M40,0
	c-3.3,46.7-6.7,46.7-10,0 M45,0c-3.3,60-6.7,60-10,0 M50,0c-3.3,33.3-6.7,33.3-10,0 M55,0c-3.3,53.3-6.7,53.3-10,0 M60,0
	c-3.3,40-6.7,40-10,0 M65,0c-3.3,26.7-6.7,26.7-10,0 M70,0c-3.3,33.3-6.7,33.3-10,0 M75,0c-3.3,53.3-6.7,53.3-10,0 M80,0
	c-3.3,36.7-6.7,36.7-10,0 M85,0c-3.3,46.7-6.7,46.7-10,0 M90,0c-3.3,53.3-6.7,53.3-10,0 M95,0c-3.3,33.3-6.7,33.3-10,0 M100,0
	c-3.3,50-6.7,50-10,0 M105,0c-3.3,56.7-6.7,56.7-10,0H105z"/>
</svg>
