<svg version="1.1" id="Layer_1" xmlns="http://www.w3.org/2000/svg" xmlns:xlink="http://www.w3.org/1999/xlink" x="0px" y="0px"
	 width="19px" height="19px" viewBox="0 0 19 19" enable-background="new 0 0 19 19" xml:space="preserve">
<rect width="4" height="4"/>
<rect x="5" width="4" height="4"/>
<rect x="10" width="4" height="4"/>
<rect x="15" width="4" height="4"/>
<rect y="5" width="4" height="4"/>
<rect x="5" y="5" width="4" height="4"/>
<rect x="10" y="5" width="4" height="4"/>
<rect x="15" y="5" width="4" height="4"/>
<rect y="15" width="4" height="4"/>
<rect x="5" y="15" width="4" height="4"/>
<rect x="10" y="15" width="4" height="4"/>
<rect x="15" y="15" width="4" height="4"/>
<rect y="10" width="4" height="4"/>
<rect x="5" y="10" width="4" height="4"/>
<rect x="10" y="10" width="4" height="4"/>
<rect x="15" y="10" width="4" height="4"/>
</svg>
