<svg version="1.1" id="Layer_1" xmlns="http://www.w3.org/2000/svg" xmlns:xlink="http://www.w3.org/1999/xlink" x="0px" y="0px"
	 width="23px" height="19px" viewBox="0 0 23 19" enable-background="new 0 0 23 19" xml:space="preserve">
<rect width="3" height="4"/>
<rect x="4" width="3" height="4"/>
<rect x="8" width="3" height="4"/>
<rect x="12" width="3" height="4"/>
<rect x="16" width="3" height="4"/>
<rect x="20" width="3" height="4"/>
<rect y="5" width="3" height="4"/>
<rect x="4" y="5" width="3" height="4"/>
<rect x="8" y="5" width="3" height="4"/>
<rect x="12" y="5" width="3" height="4"/>
<rect x="16" y="5" width="3" height="4"/>
<rect x="20" y="5" width="3" height="4"/>
<rect y="10" width="3" height="4"/>
<rect x="4" y="10" width="3" height="4"/>
<rect x="8" y="10" width="3" height="4"/>
<rect x="12" y="10" width="3" height="4"/>
<rect x="16" y="10" width="3" height="4"/>
<rect x="20" y="10" width="3" height="4"/>
<rect y="15" width="3" height="4"/>
<rect x="4" y="15" width="3" height="4"/>
<rect x="8" y="15" width="3" height="4"/>
<rect x="12" y="15" width="3" height="4"/>
<rect x="16" y="15" width="3" height="4"/>
<rect x="20" y="15" width="3" height="4"/>
</svg>
