<svg xmlns="http://www.w3.org/2000/svg" x="0px" y="0px"
	 viewBox="0 0 99 2" enable-background="new 0 0 99 2" width="100%" height="2vw" preserveAspectRatio="none">
<path class="elementor-shape-fill" d="M0.3,1.5L0,1.4v0.1C0.1,1.5,0.2,1.5,0.3,1.5C0.3,1.5,0.3,1.5,0.3,1.5z"/>
<path class="elementor-shape-fill" d="M0,0v1.2v0.1c0.2,0,0.3,0,0.5,0.1L0,1.3v0.1c0.3,0,0.6,0,0.9,0s0.7,0.1,0.8,0.2c0,0,0,0,0.1,0c0-0.1-0.1-0.1-0.1-0.1
	c0.2,0,0.4,0,0.7,0.1c-0.2,0-0.3,0-0.5,0.1c1,0,2,0,2.9,0c0.2,0,0.5-0.1,0.7-0.1c0.3,0,0.6-0.1,0.9,0.1c0.1,0,0.2,0,0.3,0
	c0.3,0,0.6,0,0.9,0c0.5,0,1-0.1,1.6-0.1c0.7,0.1,1.5,0,2.2,0c0.3,0,0.7,0,0.9-0.1h0.1c0,0.1,0,0.1,0,0.2c0.3-0.1,0.6-0.1,0.8-0.1
	c0.2,0.1,0.3,0.1,0.3,0.1c0.3-0.1,0.6-0.1,0.9,0c0.1,0.1,0.2,0,0.4,0c0.4,0.1,0.7,0.1,1.1,0.1c0,0,0,0,0,0.1c-0.2,0-0.4,0-0.6,0.1
	c1.9,0.1,3.9,0.2,5.8,0.1c-0.3-0.1-0.5,0-0.8-0.1c-0.3,0-0.6,0.1-0.9-0.1c0.7,0,1.4-0.1,2-0.1c0.7,0,1.3,0,2-0.1
	c0.2,0,0.4-0.1,0.7,0c0.1,0,0.2,0,0.3,0c0.5,0,1.1-0.1,1.6-0.1c0.9,0,1.8,0,2.7,0s1.8,0,2.7,0c-0.3,0-0.5,0.1-0.8,0.1
	c0.1,0.1,0.3,0.1,0.4,0.1c1.2-0.1,2.4-0.1,3.6-0.1c0.5,0,0.9,0,1.4,0V1.5c-1.2,0-2.4,0-3.6,0c0.7-0.1,1.3-0.1,2-0.2c0.7,0,1.3,0,2,0
	c0.7,0,1.4,0,2,0c0.7,0,1.3-0.1,2,0c0.7,0.1,1.3-0.1,2.1,0.1c-0.5,0.2-0.6,0.2-0.7,0.2c1,0.1,1.9,0.1,2.9,0.1V1.6
	c-0.5,0-1.1,0-1.6-0.1c0.1-0.1,0.2-0.1,0.4-0.1c1,0,2-0.1,3.1-0.1c0.6,0,1.1,0.1,1.7,0c0.4,0,0.7,0,1,0.1c0.3,0,0.7-0.1,1.1-0.1
	c0.3,0,0.6,0.1,0.9,0.1c0.9,0,1.8,0,2.7-0.1c1.1,0,2.3-0.1,3.4-0.1c0.8,0,1.6,0,2.4,0c1,0,2,0,3,0c0.6,0,1.2,0,1.8,0
	c0.5,0,1.1-0.1,1.6-0.1c0.6,0,1.2,0.1,1.8,0.1c0.3,0,0.6,0.1,0.9-0.1h0.2c0.5,0.2,1-0.1,1.5,0.1c0.5-0.1,1,0,1.5-0.1
	c0.3,0,0.7,0.1,1.1,0c0.3,0,0.6-0.1,0.9,0.1h0.1c0.3-0.1,0.7-0.1,1,0h0.1c0.5,0,1,0,1.4,0s0.8,0,1.2,0c0.4,0,0.7-0.1,1.1-0.1
	c0.2,0,0.4,0,0.5,0.1c-1.6,0-3.2,0-4.8,0.1c2.9,0.1,5.8,0,8.7,0c-0.6,0-1.2,0-1.8,0c-0.6,0-1.2,0.1-1.9-0.1c0.1-0.1,0.2-0.1,0.3-0.1
	c0.5,0,0.9-0.1,1.4,0c0.2,0,0.4,0.1,0.7,0.1c0.3,0,0.6-0.1,0.9-0.1c0.9,0,1.8,0,2.6-0.1c0.1,0,0.2,0,0.3,0.1c0.1,0,0.3,0.1,0.4,0.1
	c0.2,0,0.4,0,0.5,0s0.3,0,0.4,0c0.3-0.1,0.7-0.1,1-0.1c0.2,0.1,0.4,0,0.6,0c0.3,0,0.5-0.1,0.8-0.1c0.3,0,0.7,0,1,0
	c0.2,0,0.4,0,0.6,0c0.8,0.1,1.7,0.1,2.5,0c0.2,0,0.4,0,0.7,0s0.6,0,0.9,0.1c0.4,0,0.7,0,1.1,0c0.3,0,0.7-0.1,1,0h0.1
	c0.5,0,0.9-0.1,1.4-0.1c0.1,0,0.2,0,0.3,0c0.2,0,0.3,0,0.5,0V0H0z M14,1.1h0.1H14z M15.8,1.2c-0.5,0-0.9,0-1.4-0.1
	C14.8,1,15.3,1,15.8,1.1C15.8,1.1,15.8,1.1,15.8,1.2z M24,0.6c0,0.1-0.1,0.1-0.2,0.1c-0.1,0-0.1,0-0.2,0C23.7,0.6,23.9,0.6,24,0.6z
	 M18.1,1.7c-0.1,0-0.2,0-0.3,0c0,0,0,0,0-0.1c0.1,0,0.2-0.1,0.4-0.1C18.1,1.7,18.1,1.7,18.1,1.7z M17.5,1.2c0.4-0.1,0.7-0.1,1.2,0
	C18.3,1.2,18,1.2,17.5,1.2z M19.3,1.1c0.3,0.1,0.6,0,0.9,0C19.9,1.2,19.6,1.2,19.3,1.1z M31.7,1.1c-0.1,0-0.2,0.1-0.3,0.1
	c-1,0-2.1,0-3.1,0.1c-1.4,0-2.8,0.1-4.3,0.1c-1,0-2,0-3.1,0c-0.1,0-0.3,0-0.4-0.1c0.4-0.1,0.7-0.1,1-0.2c0.7,0.1,1.3,0,1.9,0
	c0.3,0,0.6,0.1,0.9,0.1c0.1,0,0.2,0,0.4,0c0.5,0,0.9,0,1.4-0.1c0.4,0,0.8,0,1.2,0c0.7,0,1.3,0.1,2,0.1c0.5,0,0.9-0.1,1.4-0.1
	C31,1.1,31.3,1.1,31.7,1.1L31.7,1.1z M40.2,0.9C37.5,1,34.7,1,32,1c0,0,0,0,0-0.1c0,0.1,0.1,0,0.2,0c0.7,0,1.4-0.1,2.2-0.1
	c0.5,0,1.1,0,1.6,0c1.2,0,2.5-0.1,3.7,0C39.9,0.9,40,0.9,40.2,0.9c0.3,0,0.6,0,0.9,0C40.8,0.9,40.5,0.9,40.2,0.9z M44.2,1
	c-0.2,0-0.4,0-0.6-0.1c0,0,0,0,0,0s0,0,0,0C43.8,0.9,44,0.9,44.2,1L44.2,1z M48.5,1c-0.5,0-0.9,0-1.4,0c-0.6,0-1.2-0.1-1.9,0.1
	C45.1,1,45,1,44.8,0.9C46,0.9,47.3,0.9,48.5,1L48.5,1z M47.8,0.4c-0.2,0-0.5,0-0.7,0C47.4,0.4,47.6,0.4,47.8,0.4c0.2,0,0.5,0,0.7,0
	C48.3,0.4,48.1,0.4,47.8,0.4z M54.3,1.3C54.3,1.3,54.3,1.3,54.3,1.3c-0.2,0-0.4,0-0.6,0V1.3C53.9,1.3,54.1,1.3,54.3,1.3
	C54.3,1.3,54.3,1.3,54.3,1.3z M54.4,1c0.4-0.1,0.9-0.1,1.3-0.1C55.3,0.9,54.8,1,54.4,1z M70.2,1.2L70.2,1.2c0.6-0.1,1.2-0.1,1.9-0.1
	C71.5,1.2,70.8,1.2,70.2,1.2z M74.2,1.2C74.3,1.2,74.2,1.2,74.2,1.2C74.2,1.2,74.2,1.2,74.2,1.2C74.2,1.2,74.2,1.2,74.2,1.2h0.1
	C74.3,1.2,74.3,1.2,74.2,1.2z M75.1,1.3C75.1,1.3,75.1,1.3,75.1,1.3c1-0.1,2-0.1,3-0.1C77.1,1.3,76.1,1.3,75.1,1.3z M80.2,1.2
	c0.1,0,0.3,0,0.4,0C80.5,1.2,80.3,1.2,80.2,1.2z M81,1.2C81,1.2,81,1.2,81,1.2C81,1.2,81,1.2,81,1.2c0.3,0,0.5,0,0.8,0
	C81.6,1.2,81.3,1.2,81,1.2z M92.3,1.1C92.3,1.1,92.3,1.1,92.3,1.1c-0.1,0-0.3,0-0.4,0.1V1.1C92,1.1,92.1,1.1,92.3,1.1
	C92.3,1.1,92.3,1.1,92.3,1.1z M93.9,1.1c0.8,0,1.5,0,2.3,0C95.8,1.2,95.3,1.2,93.9,1.1z"/>
<path class="elementor-shape-fill" d="M48.5,0.4c-0.3,0-0.5,0-0.7,0C48.1,0.4,48.3,0.4,48.5,0.4z"/>
<path class="elementor-shape-fill" d="M41.1,0.9c-0.3,0-0.6,0-0.9,0C40.5,0.9,40.8,0.9,41.1,0.9z"/>
<path class="elementor-shape-fill" d="M29.9,1.7c0.2,0,0.3-0.1,0.5-0.1c-1.1,0-2.2,0.1-3.4,0.1C28,1.7,29,1.7,29.9,1.7z"/>
<path class="elementor-shape-fill" d="M30.4,1.6L30.4,1.6L30.4,1.6L30.4,1.6L30.4,1.6L30.4,1.6z"/>
<path class="elementor-shape-fill" d="M37.4,1.6c0.3,0,0.6,0,1-0.1C38.1,1.5,37.8,1.5,37.4,1.6C37.4,1.6,37.4,1.6,37.4,1.6z"/>
<path class="elementor-shape-fill" d="M67.6,1.5c0.3,0,0.6,0,0.9,0C68.2,1.5,67.9,1.5,67.6,1.5L67.6,1.5z"/>
<path class="elementor-shape-fill" d="M66,1.5C66,1.5,66,1.5,66,1.5c-0.3-0.1-0.6-0.1-1,0C65.3,1.5,65.7,1.5,66,1.5z"/>
<path class="elementor-shape-fill" d="M72.5,1.5c-1.1,0-2.1,0-3.2,0C70.3,1.6,71.4,1.6,72.5,1.5z"/>
<path class="elementor-shape-fill" d="M56.6,1.5c0.4,0,0.8,0,1.2,0l0,0C57.4,1.5,57,1.5,56.6,1.5L56.6,1.5z"/>
<path class="elementor-shape-fill" d="M73.3,1.5C73.3,1.5,73.3,1.5,73.3,1.5c-0.2,0-0.3,0-0.5,0C72.9,1.5,73.1,1.5,73.3,1.5z"/>
<path class="elementor-shape-fill" d="M64.6,1.5L64.6,1.5c-0.8-0.1-1.6-0.1-2.4,0C63,1.5,63.8,1.5,64.6,1.5z"/>
<path class="elementor-shape-fill" d="M59.5,1.5C59.5,1.5,59.5,1.5,59.5,1.5c0.4,0,0.7,0,1.1,0l0,0C60.2,1.5,59.8,1.5,59.5,1.5z"/>
<path class="elementor-shape-fill" d="M100,1.4L100,1.4h-2.8C97.7,1.4,98.9,1.4,100,1.4z"/>
<path class="elementor-shape-fill" d="M95.1,1.4C95.1,1.4,95.1,1.4,95.1,1.4c0,0-0.1,0-0.3,0C94.9,1.4,95,1.4,95.1,1.4z"/>
<path class="elementor-shape-fill" d="M90,1.4C90,1.4,90,1.4,90,1.4c-0.1,0-0.3,0-0.5,0C89.7,1.4,89.9,1.4,90,1.4z"/>
<path class="elementor-shape-fill" d="M87.6,1.5c0.2,0,0.5,0,0.8,0C88.1,1.4,87.8,1.4,87.6,1.5z"/>
<path class="elementor-shape-fill" d="M74.2,1.5C74.2,1.5,74.2,1.5,74.2,1.5c-0.2,0-0.4,0-0.7,0C73.7,1.5,74,1.5,74.2,1.5z"/>
<path class="elementor-shape-fill" d="M37,1.6L37,1.6c-0.2-0.1-0.4,0-0.7,0C36.5,1.6,36.8,1.6,37,1.6z"/>
<path class="elementor-shape-fill" d="M12.3,1.7c-0.1,0-0.1,0-0.2,0C12.2,1.7,12.3,1.7,12.3,1.7z"/>
<path class="elementor-shape-fill" d="M21.6,1.8c0.6,0,1.1,0,1.7,0V1.7C22.7,1.7,22.1,1.8,21.6,1.8z"/>
<path class="elementor-shape-fill" d="M25.9,1.7L25.9,1.7c-0.5,0-1.1-0.1-1.6,0C24.8,1.7,25.4,1.7,25.9,1.7z"/>
<path class="elementor-shape-fill" d="M55.7,1.5L55.7,1.5c0.1,0,0.2,0,0.4,0l0,0C55.9,1.5,55.8,1.5,55.7,1.5z"/>
<path class="elementor-shape-fill" d="M8.1,1.7c1.1,0,2.2,0,3.4,0.1C10.3,1.6,8.6,1.6,8.1,1.7z"/>
<path class="elementor-shape-fill" d="M6.6,1.7c0.2,0,0.4-0.1,0.6-0.1C6.9,1.6,6.7,1.6,6.6,1.7z"/>
<path class="elementor-shape-fill" d="M4.2,1.7c-0.1,0-0.1,0-0.2,0.1c0.7,0,1.3,0,2,0C5.6,1.6,4.4,1.6,4.2,1.7z"/>
<path class="elementor-shape-fill" d="M48.2,1.6c1.3,0,2.5,0,3.8,0V1.5c-1.3,0-2.5,0-3.8-0.1C48.2,1.5,48.2,1.6,48.2,1.6z"/>
<path class="elementor-shape-fill" d="M38.8,1.6c0.9,0,1.7,0.1,2.6,0C40.5,1.5,39.7,1.6,38.8,1.6z"/>
<path class="elementor-shape-fill" d="M54.2,1.5L54.2,1.5c0.3,0,0.6,0,0.8,0l0,0C54.8,1.5,54.5,1.5,54.2,1.5z"/>
<path class="elementor-shape-fill" d="M45.4,1.6c0.4,0,0.7-0.1,1.1-0.1C46.1,1.5,45.8,1.5,45.4,1.6L45.4,1.6z"/>
<path class="elementor-shape-fill" d="M47.8,1.5c-0.2,0-0.5,0-0.8,0C47.3,1.6,47.6,1.5,47.8,1.5z"/>
<rect class="elementor-shape-fill" x="6.4" y="6" width="0" height="0"/>
</svg>
