<svg xmlns="http://www.w3.org/2000/svg" x="0px" y="0px"
	 viewBox="0 0 100 2" enable-background="new 0 0 100 2" width="100%" height="2vw" preserveAspectRatio="none">
<path d="M99.7,0.9L100,1V0.8C99.9,0.8,99.8,0.8,99.7,0.9C99.7,0.8,99.7,0.8,99.7,0.9z"/>
<path d="M99.7,0.7l0.3,0V0.6c-0.2,0-0.5,0-0.7,0c-0.3-0.1-0.7-0.1-0.8-0.2c0,0,0,0-0.1,0c0,0.1,0.1,0.1,0.1,0.1
	c-0.2,0-0.4,0-0.7-0.1C98,0.5,98,0.5,98.2,0.4c-1,0-2,0-2.9,0c-0.2,0-0.5,0.1-0.7,0.1c-0.3,0-0.6,0.1-0.9-0.1c-0.1-0.1-0.2,0-0.3,0
	c-0.3,0-0.6,0-0.9,0c-0.5,0-1,0.1-1.6,0.1c-0.7-0.1-1.5,0-2.2,0c-0.3,0-0.7,0-0.9,0.1h-0.1c0-0.1,0-0.1,0-0.2
	c-0.3,0.1-0.6,0.1-0.8,0.1c-0.1-0.1-0.2-0.1-0.3-0.1c-0.3,0.1-0.6,0.1-0.9,0c-0.1-0.1-0.2,0-0.4,0c-0.4-0.1-0.7-0.1-1.1-0.1
	c0,0,0,0,0-0.1c0.2,0,0.4,0,0.6-0.1c-1.9-0.1-3.9-0.2-5.8-0.1c0.3,0.1,0.5,0,0.8,0.1c0.3,0,0.6-0.1,0.9,0.1c-0.7,0-1.4,0.1-2,0.1
	c-0.7,0-1.3,0-2,0.1c-0.2,0-0.4,0.1-0.7,0c-0.1,0-0.2,0-0.3,0c-0.5,0-1.1,0.1-1.6,0.1c-0.9,0-1.8,0-2.7,0c-0.9,0-1.8,0-2.7,0
	c0.3,0,0.5-0.1,0.8-0.1c-0.1-0.1-0.3-0.1-0.4-0.1c-1.2,0.1-2.4,0.1-3.6,0.1c-0.5,0-0.9,0-1.4,0v0.1c1.2,0,2.4,0,3.6,0
	c-0.7,0.1-1.3,0.1-2,0.2c-0.7,0-1.3,0-2,0s-1.4,0-2,0c-0.7,0-1.3,0.1-2,0c-0.7-0.1-1.3,0.1-2.1-0.1c0.2-0.1,0.3-0.1,0.4-0.1
	c-1-0.1-1.9-0.1-2.9-0.1v0.1c0.5,0,1.1,0,1.6,0.1c-0.1,0.1-0.2,0.1-0.4,0.1c-1,0-2,0.1-3.1,0.1c-0.6,0-1.1-0.1-1.7,0
	c-0.4,0-0.7,0-1-0.1c-0.3,0-0.7,0.1-1.1,0.1c-0.3,0-0.6-0.1-0.9-0.1c-0.6,0-1.2,0-1.8,0v0c-0.2,0-0.4,0-0.6,0c0,0,0.1,0,0.1,0
	c-0.1,0-0.3,0-0.4,0c-1.1,0-2.3,0.1-3.4,0.1c-0.8,0-1.6,0-2.4,0c-1,0-2,0-3,0c-0.6,0-1.2,0-1.8,0c-0.5,0-1.1,0.1-1.6,0.1
	c-0.6,0-1.2-0.1-1.8-0.1c-0.3,0-0.6-0.1-0.9,0.1h-0.2c-0.5-0.2-1,0.1-1.5-0.1c-0.5,0.1-1,0-1.5,0.1c-0.3,0-0.7-0.1-1.1,0
	c-0.3,0-0.6,0.1-0.9-0.1h-0.1c-0.1,0-0.2,0-0.3,0c0,0,0,0,0,0c0,0-0.1,0-0.1,0c-0.1,0-0.2,0-0.3,0c-0.9,0-1.7,0-2.6,0c0,0,0,0,0,0
	c0,0,0,0,0,0c0.8,0,1.5,0,2.3,0c0,0,0,0,0,0h-0.1c-0.5,0-1,0-1.4,0c-0.4,0-0.8,0-1.2,0c-0.4,0-0.7,0.1-1.1,0.1c-0.2,0-0.4,0-0.5-0.1
	c1.6,0,3.2,0,4.8-0.1c-2.9-0.1-5.8,0-8.7,0c0.6,0,1.2,0,1.8,0c0.6,0,1.2-0.1,1.9,0.1c-0.1,0.1-0.2,0.1-0.3,0.1c0.1,0,0.3,0,0.4,0
	c-0.1,0-0.3,0-0.4,0c-0.5,0-0.9,0.1-1.4,0c-0.2,0-0.4-0.1-0.7-0.1c-0.3,0-0.6,0.1-0.9,0.1c-0.6-0.1-1.5-0.1-2.4-0.1
	c-0.1,0-0.2,0-0.3-0.1c-0.1,0-0.3-0.1-0.4-0.1c-0.2,0-0.4,0-0.5,0s-0.3,0-0.4,0c-0.3,0.1-0.7,0.1-1,0.1c-0.2-0.1-0.4,0-0.6,0
	c-0.3,0-0.5,0.1-0.8,0.1c-0.3,0-0.7,0-1,0c-0.2,0-0.4,0-0.6,0C7.8,0.7,7,0.6,6.1,0.8c-0.2,0-0.4,0-0.7,0c-0.3,0-0.6-0.1-0.9-0.1
	c-0.3,0-0.7,0-1.1,0c-0.3,0-0.7,0.1-1,0H2.3c-0.5,0-0.9,0.1-1.4,0.1c-0.1,0-0.2,0-0.3,0c-0.2,0-0.4,0-0.6,0V2h100V0.7
	C99.9,0.7,99.8,0.7,99.7,0.7z M4.2,1c0.4-0.1,0.9-0.1,2.3,0C5.7,0.9,5,1,4.2,1z M8.5,0.9C8.4,0.9,8.3,0.9,8.1,0.9
	C8.2,0.9,8.4,0.9,8.5,0.9L8.5,0.9z M30.1,0.9c-0.6-0.1-1.2,0-1.9,0c0,0,0,0,0,0s0,0,0,0C28.8,0.8,29.5,0.8,30.1,0.9L30.1,0.9z
	 M44.6,1.1C44.6,1.1,44.6,1.1,44.6,1.1C44.6,1.1,44.6,1.1,44.6,1.1c0.4,0,0.9-0.1,1.3-0.1C45.5,1.1,45,1.1,44.6,1.1z M51.8,1.6
	c0.5,0,0.9-0.1,1.4,0C52.7,1.6,52.3,1.6,51.8,1.6z M55.5,1.1c-1.2,0-2.5,0-3.7,0V1.1c0.5,0,0.9,0,1.4,0c0.6,0,1.2,0.1,1.9-0.1
	C55.2,1,55.3,1.1,55.5,1.1C55.5,1.1,55.5,1.1,55.5,1.1C55.5,1.1,55.5,1.1,55.5,1.1z M56.1,1.1L56.1,1.1c0.2-0.1,0.4,0,0.6,0
	C56.5,1.1,56.3,1.1,56.1,1.1z M82.2,0.3c0.1,0,0.2,0,0.3,0c0,0,0,0,0,0.1c-0.1,0-0.2,0.1-0.4,0.1C82.2,0.3,82.2,0.3,82.2,0.3z
	 M68.3,1c0-0.1-0.1,0-0.2,0c-0.7,0-1.4,0.1-2.2,0.1c-0.5,0-1.1,0-1.6,0c-1.2,0-2.5,0.1-3.7,0c-0.1,0-0.3,0-0.5,0c-0.3,0-0.6,0-0.9,0
	c0.3,0,0.6,0,0.9,0C62.8,1,65.6,1,68.3,1C68.3,1,68.3,1,68.3,1z M76.3,1.4C76.3,1.4,76.3,1.4,76.3,1.4C76.3,1.4,76.3,1.4,76.3,1.4
	c0-0.1,0.1-0.1,0.2-0.1s0.1,0,0.2,0C76.6,1.4,76.4,1.4,76.3,1.4z M78.8,1c-0.7-0.1-1.3,0-1.9,0c-0.3,0-0.6-0.1-0.9-0.1
	c-0.1,0-0.2,0-0.4,0c-0.5,0-0.9,0-1.4,0.1c-0.4,0-0.8,0-1.2,0c-0.7,0-1.3-0.1-2-0.1c-0.5,0-0.9,0.1-1.4,0.1c-0.3,0-0.6,0-1,0V0.9
	c0.1,0,0.2-0.1,0.3-0.1c1,0,2.1,0,3.1-0.1c1.4,0,2.8-0.1,4.3-0.1c1,0,2,0,3.1,0c0.1,0,0.3,0,0.4,0.1C79.4,0.9,79.1,0.9,78.8,1z
	 M80.1,0.9c0.3-0.1,0.6-0.1,0.9,0C80.7,0.9,80.4,0.9,80.1,0.9z M81.6,0.8c0.4,0,0.7,0,1.2,0C82.4,0.9,82.1,0.9,81.6,0.8z M84.4,0.9
	c0-0.1,0-0.1,0-0.1c0.5,0,0.9,0,1.4,0.1C85.4,1,84.9,1,84.4,0.9z M86.1,0.9h0.1H86.1z"/>
<path d="M26.1,0.8C26.1,0.8,26,0.8,26.1,0.8L26.1,0.8z"/>
<path d="M59.2,1.1c0.3,0,0.6,0,0.9,0C59.8,1.1,59.5,1.1,59.2,1.1z"/>
<path d="M26,0.8h0.1C26,0.8,26,0.8,26,0.8z"/>
<path d="M46.1,0.7c0.2,0,0.3,0,0.5,0v0C46.5,0.7,46.3,0.7,46.1,0.7z"/>
<path d="M24.5,0.8c0.1,0,0.2,0,0.3,0c0.1,0,0.2,0,0.3,0c0,0,0.1,0,0.1,0c0,0,0,0,0,0C25,0.8,24.8,0.8,24.5,0.8z"/>
<path d="M70.1,0.6c-0.2,0-0.3,0.1-0.5,0.1c1.1,0,2.2-0.1,3.4-0.1C72,0.6,71,0.6,70.1,0.6z"/>
<path d="M69.6,0.7L69.6,0.7L69.6,0.7L69.6,0.7L69.6,0.7L69.6,0.7z"/>
<path d="M62.6,0.8C62.6,0.8,62.6,0.8,62.6,0.8c-0.3-0.1-0.6-0.1-1,0C61.9,0.8,62.2,0.8,62.6,0.8z"/>
<path d="M32.4,0.9C32.4,0.8,32.4,0.8,32.4,0.9c-0.3-0.1-0.6-0.1-0.9-0.1C31.8,0.8,32.1,0.8,32.4,0.9z"/>
<path d="M34,0.9c0.3-0.1,0.6-0.1,1-0.1C34.7,0.9,34.3,0.9,34,0.9C34,0.9,34,0.9,34,0.9z"/>
<path d="M27.5,0.8c1.1,0,2.1,0,3.2,0C29.7,0.7,28.6,0.8,27.5,0.8z"/>
<path d="M43.4,0.8c-0.4,0-0.8,0-1.2,0l0,0C42.6,0.8,43,0.8,43.4,0.8L43.4,0.8z"/>
<path d="M26.7,0.8c0.2,0,0.3,0,0.5-0.1C27.1,0.8,26.9,0.8,26.7,0.8C26.7,0.8,26.7,0.8,26.7,0.8z"/>
<path d="M35.4,0.9c0.8,0,1.6,0,2.4-0.1C37,0.8,36.2,0.8,35.4,0.9L35.4,0.9z"/>
<path d="M40.5,0.8L40.5,0.8c-0.4,0-0.7,0-1.1,0l0,0C39.8,0.8,40.2,0.8,40.5,0.8z"/>
<path d="M0,0.9L0,0.9h2.8C2.3,0.9,1.1,0.9,0,0.9z"/>
<path d="M4.9,1c0-0.1,0.1-0.1,0.3-0.1C5.1,0.9,5,0.9,4.9,1C4.9,0.9,4.9,0.9,4.9,1z"/>
<path d="M10,0.9c0.1,0,0.3,0,0.5-0.1C10.3,0.9,10.1,0.9,10,0.9C10,0.9,10,0.9,10,0.9z"/>
<path d="M12.4,0.9c-0.2,0-0.5,0-0.8,0l0,0C11.9,0.9,12.2,0.9,12.4,0.9L12.4,0.9z"/>
<path d="M25.8,0.8c0.2,0,0.4,0,0.7-0.1C26.3,0.8,26,0.8,25.8,0.8C25.8,0.8,25.8,0.8,25.8,0.8z"/>
<path d="M63,0.8c0.2-0.1,0.4-0.1,0.7-0.1C63.5,0.8,63.2,0.8,63,0.8L63,0.8z"/>
<path d="M87.7,0.7c0.1,0,0.1,0,0.2,0C87.8,0.6,87.7,0.7,87.7,0.7z"/>
<path d="M76.7,0.6c0.6,0.1,1.2-0.1,1.7-0.1C77.8,0.6,77.3,0.6,76.7,0.6L76.7,0.6z"/>
<path d="M74.1,0.6c0.5,0,1.1,0.1,1.6-0.1C75.2,0.6,74.6,0.6,74.1,0.6L74.1,0.6z"/>
<path d="M44.3,0.8C44.3,0.8,44.3,0.8,44.3,0.8c-0.1,0-0.2,0-0.4,0l0,0C44.1,0.8,44.2,0.8,44.3,0.8z"/>
<path d="M91.9,0.7c-1.1,0-2.2,0-3.4-0.1C89.7,0.8,91.4,0.8,91.9,0.7z"/>
<path d="M93.4,0.6c-0.2,0-0.4,0.1-0.6,0.1C93.1,0.7,93.3,0.7,93.4,0.6z"/>
<path d="M95.8,0.7c0.1,0,0.1-0.1,0.1-0.1c-0.7,0-1.3,0-2,0C94.4,0.7,95.6,0.7,95.8,0.7z"/>
<path d="M48,0.8c1.3,0,2.5,0,3.8,0.1c0-0.1,0-0.1,0-0.1C50.5,0.7,49.3,0.7,48,0.8L48,0.8z"/>
<path d="M58.6,0.8c0.9,0.1,1.7,0,2.6,0C60.3,0.8,59.5,0.7,58.6,0.8z"/>
<path d="M45.8,0.8L45.8,0.8c-0.3,0-0.6,0-0.8,0l0,0C45.2,0.8,45.5,0.8,45.8,0.8z"/>
<path d="M54.6,0.8L54.6,0.8c-0.4-0.1-0.7,0-1.1,0C53.9,0.8,54.2,0.8,54.6,0.8z"/>
<path d="M52.2,0.8c0.2,0,0.5,0,0.8,0C52.7,0.7,52.4,0.8,52.2,0.8z"/>
</svg>
