<svg xmlns="http://www.w3.org/2000/svg" xmlns:xlink="http://www.w3.org/1999/xlink" x="0px" y="0px"
	 viewBox="0 0 100 100" width="100%" height="3vw" preserveAspectRatio="none">
		<polygon points="100,129 100,68.5 98.5,29.2 96.9,69 95.3,29.2 93.7,69 92.2,29.2 90.6,69 89,29.2 87.5,69 85.9,29.2
		84.4,69 82.8,29.2 81.2,69 79.7,29.2 78.1,69 76.5,29.2 75,69 73.4,29.2 71.8,69 70.3,29.2 68.7,69 67.1,29.2 65.6,69 64,29.2
		62.4,69 60.9,29.2 59.3,69 57.7,29.2 56.2,69 54.6,29.2 53.1,69 51.5,29.2 49.9,69 48.4,29.2 46.8,69 45.2,29.2 43.7,69 42.1,29.2
		40.5,69 39,29.2 37.4,69 35.8,29.2 34.3,69 32.7,29.2 31.1,69 29.6,29.2 28,69 26.5,29.2 24.9,69 23.3,29.2 21.8,69 20.2,29.2
		18.6,69 17.1,29.2 15.5,69 14,29.2 12.4,69 10.8,29.2 9.3,69 7.7,29.2 6.1,69 4.6,29.2 3,69 1.4,29.2 0,69 0,65.7 0,129 	"/>
</svg>
