<svg xmlns="http://www.w3.org/2000/svg" xmlns:xlink="http://www.w3.org/1999/xlink" x="0px" y="0px"
	 viewBox="0 0 100 100" width="100%" height="3vw" preserveAspectRatio="none">
	<polygon class="elementor-shape-fill" points="100,-30 100,30.8 98.5,70 96.9,30.3 95.3,70 93.7,30.3 92.2,70 90.6,30.3 89,70 87.5,30.3 85.9,70
		84.4,30.3 82.8,70 81.2,30.3 79.7,70 78.1,30.3 76.5,70 75,30.3 73.4,70 71.8,30.3 70.3,70 68.7,30.3 67.1,70 65.6,30.3 64,70
		62.4,30.3 60.9,70 59.3,30.3 57.7,70 56.2,30.3 54.6,70 53.1,30.3 51.5,70 49.9,30.3 48.4,70 46.8,30.3 45.2,70 43.7,30.3 42.1,70
		40.5,30.3 39,70 37.4,30.3 35.8,70 34.3,30.3 32.7,70 31.1,30.3 29.6,70 28,30.3 26.5,70 24.9,30.3 23.3,70 21.8,30.3 20.2,70
		18.6,30.3 17.1,70 15.5,30.3 14,70 12.4,30.3 10.8,70 9.3,30.3 7.7,70 6.1,30.3 4.6,70 3,30.3 1.4,70 0,30.3 0,33.5 0,-30 	"/>
</svg>
