<svg xmlns="http://www.w3.org/2000/svg" xmlns:xlink="http://www.w3.org/1999/xlink" x="0px" y="0px"
	 viewBox="0 0 100 100" width="100%" height="3vw" preserveAspectRatio="none">
<path d="M93.7,25c-3.1,0-3.1,43-6.3,43c-3.1,0-3.1-43-6.3-43C78,25,78,68,74.9,68s-3.1-43-6.3-43c-3.1,0-3.1,43-6.3,43
	c-3.1,0-3.1-43-6.3-43C53,25,53,68,49.9,68c-3.1,0-3.1-43-6.3-43c-3.1,0-3.1,43-6.3,43c-3.1,0-3.1-43-6.3-43c-3.1,0-3.1,43-6.3,43
	c-3.1,0-3.1-43-6.3-43c-3.1,0-3.1,43-6.3,43C9.2,68,9.2,25,6,25C3,25,2.9,65.9,0,67.9V100h100V68c0,0,0,0,0,0
	C96.8,68,96.8,25,93.7,25z"/>
</svg>
