<svg xmlns="http://www.w3.org/2000/svg" xmlns:xlink="http://www.w3.org/1999/xlink" x="0px" y="0px"
viewBox="0 0 100 3" width="100%" height="3vw" preserveAspectRatio="none">
<path class="elementor-shape-fill" d="M100,0v0.8c-0.7,0-0.7,0.6-1.4,0.6c-0.7,0-0.7-0.6-1.5-0.6c-0.7,0-0.7,0.6-1.5,0.6c-0.7,0-0.7-0.6-1.5-0.6
	c-0.7,0-0.7,0.6-1.5,0.6c-0.6,0-0.6-0.6-1.4-0.6c-0.7,0-0.7,0.6-1.5,0.6c-0.7,0-0.7-0.6-1.4-0.6s-0.7,0.6-1.5,0.6
	c-0.7,0-0.7-0.6-1.5-0.6c-0.7,0-0.7,0.6-1.5,0.6c-0.7,0-0.7-0.6-1.5-0.6c-0.7,0-0.7,0.6-1.5,0.6c-0.7,0-0.7-0.6-1.5-0.6
	c-0.6,0-0.6,0.6-1.3,0.6s-0.7-0.6-1.5-0.6c-0.7,0-0.7,0.6-1.5,0.6c-0.7,0-0.7-0.6-1.5-0.6c-0.7,0-0.7,0.6-1.5,0.6
	c-0.7,0-0.7-0.6-1.5-0.6c-0.7,0-0.7,0.6-1.5,0.6c-0.7,0-0.7-0.6-1.5-0.6c-0.5,0-0.5,0.6-1.3,0.6c-0.7,0-0.7-0.6-1.5-0.6
	c-0.7,0-0.7,0.6-1.4,0.6s-0.7-0.6-1.5-0.6c-0.7,0-0.7,0.6-1.5,0.6c-0.7,0-0.7-0.6-1.5-0.6s-0.7,0.6-1.4,0.6c-0.7,0-0.7-0.6-1.5-0.6
	c-0.7,0-0.7,0.6-1.5,0.6c-0.7,0-0.7-0.6-1.5-0.6c-0.7,0-0.7,0.6-1.5,0.6c-0.7,0-0.7-0.6-1.5-0.6c-0.7,0-0.7,0.6-1.5,0.6
	s-0.7-0.6-1.5-0.6c-0.7,0-0.7,0.6-1.5,0.6c-0.7,0-0.7-0.6-1.5-0.6c-0.7,0-0.6,0.6-1.4,0.6c-0.8,0-0.7-0.6-1.3-0.6
	c-0.7,0-0.7,0.6-1.5,0.6c-0.7,0-0.7-0.6-1.4-0.6s-0.7,0.6-1.5,0.6s-0.7-0.6-1.5-0.6c-0.7,0-0.7,0.6-1.5,0.6c-0.7,0-0.7-0.6-1.5-0.6
	c-0.6,0-0.6,0.6-1.3,0.6s-0.7-0.6-1.5-0.6c-0.7,0-0.7,0.6-1.5,0.6c-0.7,0-0.7-0.6-1.5-0.6c-0.7,0-0.7,0.6-1.5,0.6
	c-0.7,0-0.7-0.6-1.5-0.6c-0.7,0-0.7,0.6-1.5,0.6c-0.7,0-0.7-0.6-1.5-0.6s-0.6,0.6-1.3,0.6c-0.7,0-0.7-0.6-1.5-0.6
	c-0.7,0-0.7,0.6-1.4,0.6c-0.7,0-0.7-0.6-1.5-0.6c-0.7,0-0.7,0.6-1.5,0.6c-0.7,0-0.7-0.6-1.5-0.6c-0.7,0-0.7,0.6-1.5,0.6
	c-0.7,0-0.7-0.6-1.5-0.6c-0.6,0-0.6,0.6-1.3,0.6C6.7,1.4,6.7,0.8,6,0.8S5.3,1.4,4.5,1.4C3.8,1.4,3.8,0.8,3,0.8
	c-0.7,0-0.7,0.6-1.4,0.6S0.9,0.8,0.1,0.8c0,0-0.1,0-0.1,0V0H100z"/>
</svg>
