<svg xmlns="http://www.w3.org/2000/svg" xmlns:xlink="http://www.w3.org/1999/xlink" x="0px" y="0px"
viewBox="0 0 100 3" width="100%" height="3vw" preserveAspectRatio="none">
<path d="M0,3V2.2c0,0,0.1,0,0.1,0c0.8,0,0.8-0.6,1.5-0.6S2.3,2.2,3,2.2c0.8,0,0.8-0.6,1.5-0.6c0.8,0,0.8,0.6,1.5,0.6
	s0.7-0.6,1.5-0.6c0.7,0,0.7,0.6,1.3,0.6c0.8,0,0.8-0.6,1.5-0.6c0.8,0,0.8,0.6,1.5,0.6c0.8,0,0.8-0.6,1.5-0.6c0.8,0,0.8,0.6,1.5,0.6
	c0.8,0,0.8-0.6,1.5-0.6c0.7,0,0.7,0.6,1.4,0.6c0.8,0,0.8-0.6,1.5-0.6c0.7,0,0.5,0.6,1.3,0.6s0.8-0.6,1.5-0.6c0.8,0,0.8,0.6,1.5,0.6
	c0.8,0,0.8-0.6,1.5-0.6c0.8,0,0.8,0.6,1.5,0.6c0.8,0,0.8-0.6,1.5-0.6c0.8,0,0.8,0.6,1.5,0.6c0.8,0,0.8-0.6,1.5-0.6s0.7,0.6,1.3,0.6
	c0.8,0,0.8-0.6,1.5-0.6c0.8,0,0.8,0.6,1.5,0.6c0.8,0,0.7-0.6,1.5-0.6s0.8,0.6,1.5,0.6s0.7-0.6,1.4-0.6c0.8,0,0.8,0.6,1.5,0.6
	c0.6,0,0.5-0.6,1.3-0.6c0.8,0,0.7,0.6,1.4,0.6c0.8,0,0.8-0.6,1.5-0.6c0.8,0,0.8,0.6,1.5,0.6c0.8,0,0.7-0.6,1.5-0.6s0.8,0.6,1.5,0.6
	c0.8,0,0.8-0.6,1.5-0.6c0.8,0,0.8,0.6,1.5,0.6c0.8,0,0.8-0.6,1.5-0.6c0.8,0,0.8,0.6,1.5,0.6c0.8,0,0.8-0.6,1.5-0.6
	c0.7,0,0.6,0.6,1.4,0.6s0.8-0.6,1.5-0.6c0.8,0,0.8,0.6,1.5,0.6c0.8,0,0.8-0.6,1.5-0.6s0.7,0.6,1.4,0.6c0.8,0,0.8-0.6,1.5-0.6
	c0.8,0,0.8,0.6,1.3,0.6c0.8,0,0.8-0.6,1.5-0.6c0.8,0,0.8,0.6,1.5,0.6c0.8,0,0.8-0.6,1.5-0.6c0.8,0,0.8,0.6,1.5,0.6
	c0.8,0,0.8-0.6,1.5-0.6c0.8,0,0.8,0.6,1.5,0.6c0.8,0,0.8-0.6,1.5-0.6s0.7,0.6,1.3,0.6c0.8,0,0.8-0.6,1.5-0.6c0.8,0,0.8,0.6,1.5,0.6
	c0.8,0,0.8-0.6,1.5-0.6c0.8,0,0.8,0.6,1.5,0.6c0.8,0,0.8-0.6,1.5-0.6c0.8,0,0.8,0.6,1.5,0.6s0.7-0.6,1.4-0.6c0.8,0,0.8,0.6,1.5,0.6
	c0.8,0,0.8-0.6,1.4-0.6c0.8,0,0.8,0.6,1.5,0.6c0.8,0,0.8-0.6,1.5-0.6c0.8,0,0.8,0.6,1.5,0.6c0.8,0,0.8-0.6,1.5-0.6
	c0.7,0,0.7,0.6,1.4,0.6V3H0z"/>
</svg>
