<svg xmlns="http://www.w3.org/2000/svg" xmlns:xlink="http://www.w3.org/1999/xlink" x="0px" y="0px"
	 viewBox="0 0 100 100" width="100%" height="3vw" preserveAspectRatio="none">
<path class="elementor-shape-fill" d="M93.7,75c-3.1,0-3.1-43-6.3-43c-3.1,0-3.1,43-6.3,43C78,75,78,32,74.9,32s-3.1,43-6.3,43c-3.1,0-3.1-43-6.3-43
	c-3.1,0-3.1,43-6.3,43C53,75,53,32,49.9,32c-3.1,0-3.1,43-6.3,43c-3.1,0-3.1-43-6.3-43c-3.1,0-3.1,43-6.3,43c-3.1,0-3.1-43-6.3-43
	c-3.1,0-3.1,43-6.3,43c-3.1,0-3.1-43-6.3-43C9.2,32,9.2,75,6,75C3,75,2.9,34.1,0,32.1V0h100v32c0,0,0,0,0,0C96.8,32,96.8,75,93.7,75
	z"/>
</svg>
