<?xml version="1.0" encoding="UTF-8"?> <svg xmlns="http://www.w3.org/2000/svg" width="80" height="80" viewBox="0 0 80 80" fill="none"><circle cx="40" cy="40" r="40" fill="#114639"></circle><path d="M57.8843 29.2348C55.8719 27.2291 53.1963 26.1245 50.3504 26.1245C50.2543 26.1245 50.1585 26.126 50.0628 26.1285C48.611 21.9826 44.6485 19 39.9999 19C35.3514 19 31.389 21.9826 29.9372 26.1285C29.8416 26.126 29.7457 26.1245 29.6496 26.1245C26.8036 26.1245 24.128 27.2291 22.1157 29.2348C17.9614 33.3753 17.9614 40.1122 22.1157 44.2527L25.1102 47.2373C24.8006 48.231 24.6336 49.2868 24.6336 50.3808C24.6336 56.2362 29.4133 61 35.2882 61H44.712C50.587 61 55.3666 56.2362 55.3666 50.3807C55.3666 49.2868 55.1996 48.231 54.89 47.2373L57.8845 44.2527C62.0385 40.1122 62.0385 33.3753 57.8843 29.2348ZM52.8881 49.8649L50.199 48.6973C46.7133 47.1835 42.6692 47.4164 39.3816 49.3199C36.7683 50.8328 33.5543 51.0178 30.7836 49.8148L27.3576 48.3271C28.2737 44.8152 31.4819 42.2148 35.2881 42.2148H44.712C49.0556 42.2147 52.6201 45.6016 52.8881 49.8649ZM35.4428 30.9696L42.1065 37.6112C42.7543 38.2568 43.2696 38.9849 43.6543 39.7614H35.6204C34.8845 39.3902 34.1066 39.0929 33.2968 38.8789C30.3756 38.1071 27.9717 35.9726 26.8661 33.1694L25.4981 29.7004C26.7431 28.9686 28.1661 28.5779 29.6496 28.5779C31.838 28.5779 33.8955 29.4272 35.4428 30.9696ZM43.8471 35.8764L41.7405 33.7768L44.557 30.9696C46.1044 29.4272 48.1619 28.5779 50.3503 28.5779C52.3654 28.5779 54.2691 29.2985 55.7662 30.6166L53.0361 31.6862C49.7251 32.9834 47.1535 35.7061 46.0382 39.0517C45.5232 37.8995 44.794 36.8202 43.8471 35.8764ZM47.5655 26.4896C45.786 26.9666 44.1546 27.9012 42.8166 29.2348L40.2289 31.8139C39.5361 29.6403 39.639 27.2546 40.5677 25.1302L42.0603 21.7155C44.5542 22.3618 46.5889 24.1528 47.5655 26.4896ZM39.4819 21.4714L38.3109 24.1503C37.5838 25.8135 37.2595 27.6041 37.3276 29.3785L37.1833 29.2347C35.8454 27.9011 34.214 26.9666 32.4345 26.4895C33.6061 23.6869 36.3 21.6705 39.4819 21.4714ZM23.8561 42.5179C20.7846 39.4565 20.667 34.5495 23.5022 31.3461L24.5751 34.0669C25.7472 37.0389 28.0793 39.4132 30.9831 40.6678C28.9942 41.5469 27.3235 43.0154 26.196 44.85L23.8561 42.5179ZM44.7119 58.5466H35.2881C30.9443 58.5466 27.3799 55.1597 27.1119 50.8964L29.8005 52.0639C31.3257 52.7263 32.9573 53.0542 34.5862 53.0542C36.6799 53.0542 38.7689 52.512 40.6181 51.4414C43.2313 49.9284 46.4454 49.7435 49.2159 50.9464L52.6423 52.4343C51.7262 55.9461 48.518 58.5466 44.7119 58.5466ZM53.8039 44.85C52.528 42.774 50.5568 41.1669 48.2157 40.352C48.9962 37.4527 51.1328 35.0679 53.9366 33.9695L57.4151 32.6068C59.2589 35.7356 58.8352 39.8354 56.1438 42.5179L53.8039 44.85Z" fill="white"></path></svg> 